G04 #@! TF.FileFunction,Copper,L1,Top,Signal*
%FSLAX46Y46*%
G04 Gerber Fmt 4.6, Leading zero omitted, Abs format (unit mm)*
G04 Created by KiCad (PCBNEW 4.0.5) date 03/08/17 17:48:46*
%MOMM*%
%LPD*%
G01*
G04 APERTURE LIST*
%ADD10C,0.100000*%
%ADD11C,3.200400*%
%ADD12R,1.700000X1.700000*%
%ADD13O,1.700000X1.700000*%
%ADD14R,1.250000X1.000000*%
%ADD15R,1.000000X1.250000*%
%ADD16R,2.500000X2.300000*%
%ADD17R,2.300000X2.500000*%
%ADD18R,1.600200X1.198880*%
%ADD19R,1.198880X1.600200*%
%ADD20R,2.032000X1.524000*%
%ADD21R,0.500000X0.900000*%
%ADD22R,0.900000X0.500000*%
%ADD23R,0.700000X1.300000*%
%ADD24R,1.300000X0.700000*%
%ADD25R,1.500000X0.600000*%
%ADD26R,1.800000X0.600000*%
%ADD27R,1.450000X0.450000*%
%ADD28R,1.060000X0.650000*%
%ADD29C,4.000500*%
%ADD30R,1.524000X2.032000*%
%ADD31C,0.700000*%
%ADD32C,1.200000*%
%ADD33C,1.000000*%
%ADD34C,0.750000*%
%ADD35C,0.250000*%
%ADD36C,0.600000*%
G04 APERTURE END LIST*
D10*
D11*
X226822000Y-96266000D03*
X226822000Y-91186000D03*
X226822000Y-68326000D03*
X210820000Y-121158000D03*
X210820000Y-116078000D03*
X210820000Y-93218000D03*
X226822000Y-145288000D03*
X226822000Y-140208000D03*
X226822000Y-117348000D03*
D12*
X141478000Y-88646000D03*
D13*
X138938000Y-88646000D03*
X136398000Y-88646000D03*
X133858000Y-88646000D03*
X131318000Y-88646000D03*
X128778000Y-88646000D03*
X126238000Y-88646000D03*
X123698000Y-88646000D03*
X121158000Y-88646000D03*
X118618000Y-88646000D03*
D12*
X141478000Y-134366000D03*
D13*
X138938000Y-134366000D03*
X136398000Y-134366000D03*
X133858000Y-134366000D03*
X131318000Y-134366000D03*
X128778000Y-134366000D03*
X126238000Y-134366000D03*
X123698000Y-134366000D03*
X121158000Y-134366000D03*
X118618000Y-134366000D03*
D12*
X141478000Y-91186000D03*
D13*
X138938000Y-91186000D03*
X136398000Y-91186000D03*
X133858000Y-91186000D03*
X131318000Y-91186000D03*
X128778000Y-91186000D03*
X126238000Y-91186000D03*
X123698000Y-91186000D03*
X121158000Y-91186000D03*
X118618000Y-91186000D03*
D12*
X141478000Y-131826000D03*
D13*
X138938000Y-131826000D03*
X136398000Y-131826000D03*
X133858000Y-131826000D03*
X131318000Y-131826000D03*
X128778000Y-131826000D03*
X126238000Y-131826000D03*
X123698000Y-131826000D03*
X121158000Y-131826000D03*
X118618000Y-131826000D03*
D12*
X211074000Y-63246000D03*
D13*
X208534000Y-63246000D03*
X205994000Y-63246000D03*
D12*
X155448000Y-69850000D03*
D13*
X152908000Y-69850000D03*
D12*
X188214000Y-63246000D03*
D13*
X185674000Y-63246000D03*
D12*
X191008000Y-147066000D03*
X193802000Y-142748000D03*
D14*
X156972000Y-86122000D03*
X156972000Y-88122000D03*
X156972000Y-105934000D03*
X156972000Y-107934000D03*
X156972000Y-126254000D03*
X156972000Y-128254000D03*
X158750000Y-86122000D03*
X158750000Y-88122000D03*
X158750000Y-105934000D03*
X158750000Y-107934000D03*
X158750000Y-126254000D03*
X158750000Y-128254000D03*
X161544000Y-82534000D03*
X161544000Y-80534000D03*
X161544000Y-102346000D03*
X161544000Y-100346000D03*
X161544000Y-122666000D03*
X161544000Y-120666000D03*
D15*
X158734000Y-84582000D03*
X156734000Y-84582000D03*
X158734000Y-104394000D03*
X156734000Y-104394000D03*
X158734000Y-124714000D03*
X156734000Y-124714000D03*
D14*
X176784000Y-90186000D03*
X176784000Y-92186000D03*
X176784000Y-110252000D03*
X176784000Y-112252000D03*
X176784000Y-130572000D03*
X176784000Y-132572000D03*
X175006000Y-90186000D03*
X175006000Y-92186000D03*
X175006000Y-110252000D03*
X175006000Y-112252000D03*
X175006000Y-130572000D03*
X175006000Y-132572000D03*
X178054000Y-143494000D03*
X178054000Y-141494000D03*
X174752000Y-147812000D03*
X174752000Y-145812000D03*
D15*
X141208000Y-82042000D03*
X139208000Y-82042000D03*
X156956000Y-152654000D03*
X154956000Y-152654000D03*
D14*
X155702000Y-146066000D03*
X155702000Y-148066000D03*
D15*
X156956000Y-150876000D03*
X154956000Y-150876000D03*
X140192000Y-109220000D03*
X138192000Y-109220000D03*
X136668000Y-116332000D03*
X138668000Y-116332000D03*
X138192000Y-103124000D03*
X140192000Y-103124000D03*
D14*
X143256000Y-109712000D03*
X143256000Y-107712000D03*
D15*
X119745000Y-112395000D03*
X117745000Y-112395000D03*
X119618000Y-101600000D03*
X117618000Y-101600000D03*
X119872000Y-123444000D03*
X117872000Y-123444000D03*
D14*
X190500000Y-153146000D03*
X190500000Y-151146000D03*
X188722000Y-153146000D03*
X188722000Y-151146000D03*
D15*
X185944000Y-67564000D03*
X187944000Y-67564000D03*
D14*
X186944000Y-153146000D03*
X186944000Y-151146000D03*
D15*
X152162000Y-75438000D03*
X154162000Y-75438000D03*
X152162000Y-77724000D03*
X154162000Y-77724000D03*
X185944000Y-69342000D03*
X187944000Y-69342000D03*
X152162000Y-73406000D03*
X154162000Y-73406000D03*
X185944000Y-65786000D03*
X187944000Y-65786000D03*
X211312000Y-66040000D03*
X209312000Y-66040000D03*
X207756000Y-66040000D03*
X205756000Y-66040000D03*
X207756000Y-67818000D03*
X205756000Y-67818000D03*
X211312000Y-67818000D03*
X209312000Y-67818000D03*
D14*
X175260000Y-84090000D03*
X175260000Y-86090000D03*
X174752000Y-103902000D03*
X174752000Y-105902000D03*
X174752000Y-124222000D03*
X174752000Y-126222000D03*
D16*
X176920000Y-81026000D03*
X181220000Y-81026000D03*
X176920000Y-100838000D03*
X181220000Y-100838000D03*
X176920000Y-121158000D03*
X181220000Y-121158000D03*
D17*
X171704000Y-81144000D03*
X171704000Y-76844000D03*
X171704000Y-100956000D03*
X171704000Y-96656000D03*
X171704000Y-121276000D03*
X171704000Y-116976000D03*
D18*
X146535140Y-77724000D03*
X150136860Y-77724000D03*
D19*
X184150000Y-72666860D03*
X184150000Y-69065140D03*
D20*
X205740000Y-73279000D03*
X205740000Y-69977000D03*
X211328000Y-73279000D03*
X211328000Y-69977000D03*
X186436000Y-75819000D03*
X186436000Y-72517000D03*
D21*
X156222000Y-91694000D03*
X157722000Y-91694000D03*
X156222000Y-93218000D03*
X157722000Y-93218000D03*
X156222000Y-111506000D03*
X157722000Y-111506000D03*
X156222000Y-113030000D03*
X157722000Y-113030000D03*
X156222000Y-131826000D03*
X157722000Y-131826000D03*
X156222000Y-133350000D03*
X157722000Y-133350000D03*
D22*
X154940000Y-134862000D03*
X154940000Y-133362000D03*
X141224000Y-83578000D03*
X141224000Y-85078000D03*
X139446000Y-83578000D03*
X139446000Y-85078000D03*
D23*
X159954000Y-81534000D03*
X158054000Y-81534000D03*
X156906000Y-82804000D03*
X155006000Y-82804000D03*
X158938000Y-89916000D03*
X157038000Y-89916000D03*
X159954000Y-101346000D03*
X158054000Y-101346000D03*
X156906000Y-102616000D03*
X155006000Y-102616000D03*
X158938000Y-109728000D03*
X157038000Y-109728000D03*
X159954000Y-121666000D03*
X158054000Y-121666000D03*
X156906000Y-122936000D03*
X155006000Y-122936000D03*
X158938000Y-130048000D03*
X157038000Y-130048000D03*
D24*
X159258000Y-91506000D03*
X159258000Y-93406000D03*
X159258000Y-111318000D03*
X159258000Y-113218000D03*
X159258000Y-131638000D03*
X159258000Y-133538000D03*
D23*
X186756000Y-147066000D03*
X188656000Y-147066000D03*
X186502000Y-142748000D03*
X188402000Y-142748000D03*
X181930000Y-142748000D03*
X183830000Y-142748000D03*
D24*
X182118000Y-147254000D03*
X182118000Y-145354000D03*
D23*
X172278000Y-140208000D03*
X174178000Y-140208000D03*
D24*
X176276000Y-143444000D03*
X176276000Y-141544000D03*
D23*
X176342000Y-147320000D03*
X178242000Y-147320000D03*
X176342000Y-145288000D03*
X178242000Y-145288000D03*
X157292000Y-146050000D03*
X159192000Y-146050000D03*
X157292000Y-147828000D03*
X159192000Y-147828000D03*
X152212000Y-146050000D03*
X154112000Y-146050000D03*
X152212000Y-148082000D03*
X154112000Y-148082000D03*
X138242000Y-107188000D03*
X140142000Y-107188000D03*
X138242000Y-105156000D03*
X140142000Y-105156000D03*
X117414000Y-117856000D03*
X119314000Y-117856000D03*
X120462000Y-117856000D03*
X122362000Y-117856000D03*
X117160000Y-106934000D03*
X119060000Y-106934000D03*
X120208000Y-106934000D03*
X122108000Y-106934000D03*
X117160000Y-96012000D03*
X119060000Y-96012000D03*
X120208000Y-96012000D03*
X122108000Y-96012000D03*
D24*
X119761000Y-110805000D03*
X119761000Y-108905000D03*
X119634000Y-100010000D03*
X119634000Y-98110000D03*
X119888000Y-121854000D03*
X119888000Y-119954000D03*
D23*
X181290000Y-84328000D03*
X179390000Y-84328000D03*
X181036000Y-92710000D03*
X179136000Y-92710000D03*
X181290000Y-104394000D03*
X179390000Y-104394000D03*
X181036000Y-113030000D03*
X179136000Y-113030000D03*
X181290000Y-124460000D03*
X179390000Y-124460000D03*
X181036000Y-133096000D03*
X179136000Y-133096000D03*
X177358000Y-149098000D03*
X179258000Y-149098000D03*
X175834000Y-150876000D03*
X177734000Y-150876000D03*
X174818000Y-76708000D03*
X176718000Y-76708000D03*
X174818000Y-96774000D03*
X176718000Y-96774000D03*
X175326000Y-116840000D03*
X177226000Y-116840000D03*
D25*
X161974000Y-83947000D03*
X161974000Y-85217000D03*
X161974000Y-86487000D03*
X161974000Y-87757000D03*
X161974000Y-89027000D03*
X161974000Y-90297000D03*
X161974000Y-91567000D03*
X161974000Y-92837000D03*
X171274000Y-92837000D03*
X171274000Y-91567000D03*
X171274000Y-90297000D03*
X171274000Y-89027000D03*
X171274000Y-87757000D03*
X171274000Y-86487000D03*
X171274000Y-85217000D03*
X171274000Y-83947000D03*
X161974000Y-103759000D03*
X161974000Y-105029000D03*
X161974000Y-106299000D03*
X161974000Y-107569000D03*
X161974000Y-108839000D03*
X161974000Y-110109000D03*
X161974000Y-111379000D03*
X161974000Y-112649000D03*
X171274000Y-112649000D03*
X171274000Y-111379000D03*
X171274000Y-110109000D03*
X171274000Y-108839000D03*
X171274000Y-107569000D03*
X171274000Y-106299000D03*
X171274000Y-105029000D03*
X171274000Y-103759000D03*
X161974000Y-124079000D03*
X161974000Y-125349000D03*
X161974000Y-126619000D03*
X161974000Y-127889000D03*
X161974000Y-129159000D03*
X161974000Y-130429000D03*
X161974000Y-131699000D03*
X161974000Y-132969000D03*
X171274000Y-132969000D03*
X171274000Y-131699000D03*
X171274000Y-130429000D03*
X171274000Y-129159000D03*
X171274000Y-127889000D03*
X171274000Y-126619000D03*
X171274000Y-125349000D03*
X171274000Y-124079000D03*
D26*
X161428000Y-148717000D03*
X172328000Y-148717000D03*
X161428000Y-147447000D03*
X172328000Y-147447000D03*
X161428000Y-146177000D03*
X172328000Y-146177000D03*
X161428000Y-144907000D03*
X172328000Y-144907000D03*
D27*
X144440000Y-111293000D03*
X140040000Y-111293000D03*
X144440000Y-111943000D03*
X140040000Y-111943000D03*
X144440000Y-112593000D03*
X140040000Y-112593000D03*
X144440000Y-113243000D03*
X140040000Y-113243000D03*
D28*
X182796000Y-152212000D03*
X182796000Y-153162000D03*
X182796000Y-154112000D03*
X184996000Y-154112000D03*
X184996000Y-152212000D03*
D12*
X177546000Y-87376000D03*
X177546000Y-107188000D03*
D24*
X183896000Y-103312000D03*
X183896000Y-101412000D03*
X183896000Y-83500000D03*
X183896000Y-81600000D03*
X183896000Y-123378000D03*
X183896000Y-121478000D03*
D29*
X184150000Y-92202000D03*
X184150000Y-86614000D03*
X184404000Y-112014000D03*
X184404000Y-106426000D03*
X184404000Y-132334000D03*
X184404000Y-126746000D03*
D15*
X172482000Y-150114000D03*
X174482000Y-150114000D03*
X172482000Y-151892000D03*
X174482000Y-151892000D03*
X172482000Y-153670000D03*
X174482000Y-153670000D03*
D30*
X140843000Y-77216000D03*
X144145000Y-77216000D03*
D20*
X149606000Y-73279000D03*
X149606000Y-69977000D03*
D30*
X145669000Y-83058000D03*
X148971000Y-83058000D03*
D14*
X130556000Y-108474000D03*
X130556000Y-110474000D03*
D15*
X132318000Y-116078000D03*
X130318000Y-116078000D03*
X134350000Y-110490000D03*
X132350000Y-110490000D03*
D14*
X128778000Y-114062000D03*
X128778000Y-116062000D03*
D23*
X132146000Y-108712000D03*
X134046000Y-108712000D03*
D28*
X132504000Y-112334000D03*
X132504000Y-113284000D03*
X132504000Y-114234000D03*
X134704000Y-114234000D03*
X134704000Y-112334000D03*
D12*
X177800000Y-127508000D03*
D31*
X116078000Y-103378000D03*
X116078000Y-110490000D03*
D32*
X152908000Y-150876000D03*
D33*
X144780000Y-101854000D03*
X148844000Y-101346000D03*
D31*
X123698000Y-96012000D03*
X125730000Y-98044000D03*
X125476000Y-107188000D03*
D33*
X157988000Y-142748000D03*
D31*
X154686000Y-132334000D03*
X154178000Y-127508000D03*
X153924000Y-124714000D03*
X155448000Y-84582000D03*
X155194000Y-94742000D03*
X154178000Y-107950000D03*
X153924000Y-114808000D03*
X155194000Y-104394000D03*
D32*
X152908000Y-80010000D03*
X136906000Y-81788000D03*
D31*
X154178000Y-88646000D03*
D32*
X191008000Y-95250000D03*
X187706000Y-95250000D03*
X186944000Y-115062000D03*
X191516000Y-115062000D03*
X159258000Y-153162000D03*
D31*
X146050000Y-106934000D03*
X161798000Y-134112000D03*
X153924000Y-129794000D03*
X151638000Y-130556000D03*
X151638000Y-126238000D03*
X161798000Y-114046000D03*
X154432000Y-112268000D03*
X151892000Y-111506000D03*
X151638000Y-105918000D03*
X162052000Y-93980000D03*
X154686000Y-92456000D03*
X151638000Y-91694000D03*
X151638000Y-88138000D03*
D32*
X149098000Y-86614000D03*
X194564000Y-134112000D03*
X189992000Y-129540000D03*
X172278000Y-141798000D03*
X170688000Y-155194000D03*
D31*
X148590000Y-141986000D03*
X143510000Y-115062000D03*
X147320000Y-141478000D03*
X136652000Y-114808000D03*
X136906000Y-112522000D03*
X121920000Y-120396000D03*
D32*
X111252000Y-121920000D03*
X133096000Y-121920000D03*
D33*
X173101000Y-85217000D03*
X177038000Y-84836000D03*
X173101000Y-125349000D03*
X176530000Y-124714000D03*
D32*
X144018000Y-87376000D03*
X135890000Y-85852000D03*
D31*
X137414000Y-126746000D03*
X132334000Y-129032000D03*
X145288000Y-133604000D03*
X140970000Y-124206000D03*
X124968000Y-125730000D03*
X135128000Y-127000000D03*
D32*
X159512000Y-137160000D03*
X157480000Y-138684000D03*
X202692000Y-138938000D03*
X155956000Y-140208000D03*
D33*
X173228000Y-91694000D03*
X178562000Y-91186000D03*
X173101000Y-111379000D03*
X178562000Y-111252000D03*
X173101000Y-131699000D03*
X178562000Y-131826000D03*
X173101000Y-105029000D03*
X176530000Y-104648000D03*
X128016000Y-111760000D03*
X128524000Y-107188000D03*
D34*
X211312000Y-67818000D02*
X211328000Y-67834000D01*
X211328000Y-67834000D02*
X211328000Y-69977000D01*
X211312000Y-66040000D02*
X211312000Y-67818000D01*
X211074000Y-63246000D02*
X211312000Y-63484000D01*
X211312000Y-63484000D02*
X211312000Y-66040000D01*
D35*
X117745000Y-112157000D02*
X117094000Y-111506000D01*
X116078000Y-103378000D02*
X116586000Y-102870000D01*
X116078000Y-110490000D02*
X117094000Y-111506000D01*
X117745000Y-112157000D02*
X117745000Y-112395000D01*
X117745000Y-112395000D02*
X117729000Y-112395000D01*
X117745000Y-112395000D02*
X117745000Y-113681000D01*
D34*
X154956000Y-152654000D02*
X154686000Y-152654000D01*
X154686000Y-152654000D02*
X153924000Y-151892000D01*
X154178000Y-151638000D02*
X154432000Y-151384000D01*
X154956000Y-150876000D02*
X154178000Y-150876000D01*
X154178000Y-150876000D02*
X153543000Y-151511000D01*
X152908000Y-150876000D02*
X153543000Y-151511000D01*
X153924000Y-151892000D02*
X154956000Y-151892000D01*
X153543000Y-151511000D02*
X153924000Y-151892000D01*
X155448000Y-69850000D02*
X155448000Y-70866000D01*
X155448000Y-70866000D02*
X161544000Y-76962000D01*
D36*
X143510000Y-103124000D02*
X144780000Y-101854000D01*
X155702000Y-98044000D02*
X153670000Y-100076000D01*
X152146000Y-100076000D02*
X153670000Y-100076000D01*
X150876000Y-101346000D02*
X152146000Y-100076000D01*
X148844000Y-101346000D02*
X150876000Y-101346000D01*
D34*
X154162000Y-77724000D02*
X154162000Y-75438000D01*
D35*
X122108000Y-106934000D02*
X122108000Y-105852000D01*
X117602000Y-102870000D02*
X116586000Y-102870000D01*
X118872000Y-104140000D02*
X117602000Y-102870000D01*
X120396000Y-104140000D02*
X118872000Y-104140000D01*
X122108000Y-105852000D02*
X120396000Y-104140000D01*
X116586000Y-102870000D02*
X117618000Y-101838000D01*
X117618000Y-101838000D02*
X117618000Y-101600000D01*
X117872000Y-123444000D02*
X117872000Y-124476000D01*
X124714000Y-122936000D02*
X131064000Y-122936000D01*
X122428000Y-125222000D02*
X124714000Y-122936000D01*
X118618000Y-125222000D02*
X122428000Y-125222000D01*
X117872000Y-124476000D02*
X118618000Y-125222000D01*
X122936000Y-115570000D02*
X124648000Y-115570000D01*
X122174000Y-114808000D02*
X122936000Y-115570000D01*
X118872000Y-114808000D02*
X122174000Y-114808000D01*
X117745000Y-113681000D02*
X118872000Y-114808000D01*
X126746000Y-110998000D02*
X126746000Y-107696000D01*
X126492000Y-105664000D02*
X126492000Y-105918000D01*
X125730000Y-98044000D02*
X126492000Y-98806000D01*
X126492000Y-98806000D02*
X126492000Y-105410000D01*
X123698000Y-96012000D02*
X122108000Y-96012000D01*
X126492000Y-105664000D02*
X126492000Y-105410000D01*
X126492000Y-105918000D02*
X126746000Y-106172000D01*
X126746000Y-107696000D02*
X126746000Y-106172000D01*
X139954000Y-113329000D02*
X139954000Y-114300000D01*
X139954000Y-114300000D02*
X139954000Y-116840000D01*
X139954000Y-116840000D02*
X138668000Y-118126000D01*
X139954000Y-113329000D02*
X140040000Y-113243000D01*
X125476000Y-112268000D02*
X125476000Y-107188000D01*
X143256000Y-107712000D02*
X143256000Y-103378000D01*
X143256000Y-103378000D02*
X143510000Y-103124000D01*
X161544000Y-99314000D02*
X160274000Y-98044000D01*
X161544000Y-100346000D02*
X161544000Y-99314000D01*
X160274000Y-98044000D02*
X155702000Y-98044000D01*
D36*
X156222000Y-93218000D02*
X156222000Y-93714000D01*
X156222000Y-93714000D02*
X155702000Y-94234000D01*
X156222000Y-93218000D02*
X156222000Y-94754000D01*
X156222000Y-94754000D02*
X156210000Y-94742000D01*
X155702000Y-94234000D02*
X156210000Y-94742000D01*
X156210000Y-94742000D02*
X156464000Y-94996000D01*
X156464000Y-94996000D02*
X156464000Y-94488000D01*
X143510000Y-103124000D02*
X140192000Y-103124000D01*
X156464000Y-97282000D02*
X156464000Y-94488000D01*
X155702000Y-98044000D02*
X156464000Y-97282000D01*
X161428000Y-144907000D02*
X159269000Y-142748000D01*
X159269000Y-142748000D02*
X157988000Y-142748000D01*
D34*
X154956000Y-150876000D02*
X154956000Y-151892000D01*
D35*
X155702000Y-133350000D02*
X154686000Y-132334000D01*
X154940000Y-133362000D02*
X154952000Y-133350000D01*
X154952000Y-133350000D02*
X155702000Y-133350000D01*
X155702000Y-133350000D02*
X156222000Y-133350000D01*
X156972000Y-128254000D02*
X155940000Y-128254000D01*
X155940000Y-128254000D02*
X155194000Y-127508000D01*
X155194000Y-127508000D02*
X154178000Y-127508000D01*
X156972000Y-128254000D02*
X156956000Y-128270000D01*
X156734000Y-124714000D02*
X153924000Y-124714000D01*
X156972000Y-128254000D02*
X158750000Y-128254000D01*
X158750000Y-128254000D02*
X159115000Y-127889000D01*
X159115000Y-127889000D02*
X161974000Y-127889000D01*
X155702000Y-114300000D02*
X154432000Y-114300000D01*
X156718000Y-115316000D02*
X155702000Y-114300000D01*
X154432000Y-114300000D02*
X153924000Y-114808000D01*
X161544000Y-120142000D02*
X156718000Y-115316000D01*
X161544000Y-120666000D02*
X161544000Y-120142000D01*
X155448000Y-84582000D02*
X156734000Y-84582000D01*
X155194000Y-94742000D02*
X155702000Y-94234000D01*
X154178000Y-107950000D02*
X156956000Y-107950000D01*
X156222000Y-113030000D02*
X155702000Y-113030000D01*
X155702000Y-113030000D02*
X154432000Y-114300000D01*
X156972000Y-107934000D02*
X156956000Y-107950000D01*
X156734000Y-104394000D02*
X155194000Y-104394000D01*
X158750000Y-107934000D02*
X159115000Y-107569000D01*
X159115000Y-107569000D02*
X161974000Y-107569000D01*
X158750000Y-107934000D02*
X156972000Y-107934000D01*
X156464000Y-94234000D02*
X155702000Y-94234000D01*
X156222000Y-93714000D02*
X155702000Y-94234000D01*
D34*
X152908000Y-80010000D02*
X154178000Y-78740000D01*
X154178000Y-78740000D02*
X154162000Y-78724000D01*
X138303000Y-82931000D02*
X138176000Y-83058000D01*
X136906000Y-81788000D02*
X138176000Y-83058000D01*
X139446000Y-83578000D02*
X138950000Y-83578000D01*
X138950000Y-83578000D02*
X138303000Y-82931000D01*
X139208000Y-82042000D02*
X139192000Y-82042000D01*
X139192000Y-82042000D02*
X138303000Y-82931000D01*
D35*
X156972000Y-88122000D02*
X154702000Y-88122000D01*
X154702000Y-88122000D02*
X154178000Y-88646000D01*
D34*
X154162000Y-77724000D02*
X154162000Y-78724000D01*
D35*
X158750000Y-88122000D02*
X159115000Y-87757000D01*
X159115000Y-87757000D02*
X161974000Y-87757000D01*
X156972000Y-88122000D02*
X158750000Y-88122000D01*
D34*
X139446000Y-83578000D02*
X139208000Y-83340000D01*
X139208000Y-83340000D02*
X139208000Y-82042000D01*
D35*
X139999000Y-113284000D02*
X140040000Y-113243000D01*
D36*
X138668000Y-116332000D02*
X138668000Y-118126000D01*
X138668000Y-118126000D02*
X138668000Y-118888000D01*
X130318000Y-122190000D02*
X130318000Y-116078000D01*
X134112000Y-123444000D02*
X138414000Y-119142000D01*
X131572000Y-123444000D02*
X134112000Y-123444000D01*
X130318000Y-122190000D02*
X131064000Y-122936000D01*
X131064000Y-122936000D02*
X131572000Y-123444000D01*
X138414000Y-119142000D02*
X138668000Y-118888000D01*
X128794000Y-110474000D02*
X127270000Y-110474000D01*
X130556000Y-110474000D02*
X128794000Y-110474000D01*
X125476000Y-114742000D02*
X124648000Y-115570000D01*
X124648000Y-115570000D02*
X124156000Y-116062000D01*
X125476000Y-112268000D02*
X125476000Y-114742000D01*
X127270000Y-110474000D02*
X126746000Y-110998000D01*
X126746000Y-110998000D02*
X126238000Y-111506000D01*
X126238000Y-111506000D02*
X125476000Y-112268000D01*
X132350000Y-110490000D02*
X130572000Y-110490000D01*
X130572000Y-110490000D02*
X130556000Y-110474000D01*
X130318000Y-116078000D02*
X128794000Y-116078000D01*
X128794000Y-116078000D02*
X128778000Y-116062000D01*
X128778000Y-116062000D02*
X125238000Y-116062000D01*
X125238000Y-116062000D02*
X124156000Y-116062000D01*
X124156000Y-116062000D02*
X122362000Y-117856000D01*
X132504000Y-113284000D02*
X131064000Y-113284000D01*
X130556000Y-113792000D02*
X130556000Y-115840000D01*
X131064000Y-113284000D02*
X130556000Y-113792000D01*
X130556000Y-115840000D02*
X130318000Y-116078000D01*
D34*
X154162000Y-73406000D02*
X154162000Y-75438000D01*
X155448000Y-69850000D02*
X155448000Y-72120000D01*
X155448000Y-72120000D02*
X154162000Y-73406000D01*
X161544000Y-76962000D02*
X161544000Y-80534000D01*
X209312000Y-66040000D02*
X208534000Y-66040000D01*
X207756000Y-66040000D02*
X208534000Y-66040000D01*
X208534000Y-67040000D02*
X208399000Y-67175000D01*
X208399000Y-67175000D02*
X207756000Y-67818000D01*
X208534000Y-63246000D02*
X208534000Y-66040000D01*
X208534000Y-66040000D02*
X208534000Y-67040000D01*
X208534000Y-67040000D02*
X209312000Y-67818000D01*
X205756000Y-66040000D02*
X205756000Y-63484000D01*
X205756000Y-63484000D02*
X205994000Y-63246000D01*
X205756000Y-67818000D02*
X205756000Y-66040000D01*
X205756000Y-67818000D02*
X205740000Y-67834000D01*
X205740000Y-67834000D02*
X205740000Y-69977000D01*
X152908000Y-69850000D02*
X149733000Y-69850000D01*
X149733000Y-69850000D02*
X149606000Y-69977000D01*
X170434000Y-141478000D02*
X170434000Y-137668000D01*
X172328000Y-144134000D02*
X170434000Y-142240000D01*
X170434000Y-142240000D02*
X170434000Y-141478000D01*
X172328000Y-144907000D02*
X172328000Y-144134000D01*
X172466000Y-135636000D02*
X177038000Y-135636000D01*
X170434000Y-137668000D02*
X172466000Y-135636000D01*
X176276000Y-141544000D02*
X178004000Y-141544000D01*
X178004000Y-141544000D02*
X178054000Y-141494000D01*
X177038000Y-135636000D02*
X175768000Y-134366000D01*
X176022000Y-134620000D02*
X176022000Y-134366000D01*
X175768000Y-134366000D02*
X176022000Y-134620000D01*
X176276000Y-141544000D02*
X176276000Y-136398000D01*
X177038000Y-135636000D02*
X178054000Y-135636000D01*
X176276000Y-136398000D02*
X177038000Y-135636000D01*
X175133000Y-150749000D02*
X175133000Y-151913000D01*
X175133000Y-151913000D02*
X174818000Y-152228000D01*
X174818000Y-152228000D02*
X174482000Y-151892000D01*
X190500000Y-151146000D02*
X192516000Y-151146000D01*
X194564000Y-149098000D02*
X194564000Y-143510000D01*
X192516000Y-151146000D02*
X194564000Y-149098000D01*
X194564000Y-143510000D02*
X193802000Y-142748000D01*
X193802000Y-142748000D02*
X189992000Y-138938000D01*
X189992000Y-138938000D02*
X189992000Y-132080000D01*
D36*
X183642000Y-151130000D02*
X184150000Y-150622000D01*
X183134000Y-151638000D02*
X183642000Y-151130000D01*
X182880000Y-151638000D02*
X183134000Y-151638000D01*
X184150000Y-150622000D02*
X184404000Y-150622000D01*
X181864000Y-152212000D02*
X183454000Y-150622000D01*
X182880000Y-150876000D02*
X182880000Y-150622000D01*
X183134000Y-150622000D02*
X182880000Y-150876000D01*
X183454000Y-150622000D02*
X183134000Y-150622000D01*
X181102000Y-152212000D02*
X182692000Y-150622000D01*
X182372000Y-150876000D02*
X182372000Y-150622000D01*
X182626000Y-150622000D02*
X182372000Y-150876000D01*
X182692000Y-150622000D02*
X182626000Y-150622000D01*
X182796000Y-152212000D02*
X181864000Y-152212000D01*
X181864000Y-152212000D02*
X181102000Y-152212000D01*
X181102000Y-152212000D02*
X180274000Y-152212000D01*
X182796000Y-152212000D02*
X182880000Y-152128000D01*
X182880000Y-152128000D02*
X182880000Y-151638000D01*
X182880000Y-151638000D02*
X182880000Y-151384000D01*
X182880000Y-151384000D02*
X183642000Y-150622000D01*
D34*
X180274000Y-152212000D02*
X179832000Y-152654000D01*
X179832000Y-152654000D02*
X176464000Y-152654000D01*
X176464000Y-152654000D02*
X175260000Y-151450000D01*
X186944000Y-151146000D02*
X186420000Y-150622000D01*
X186420000Y-150622000D02*
X184404000Y-150622000D01*
X181864000Y-150622000D02*
X180274000Y-152212000D01*
X182372000Y-150622000D02*
X181864000Y-150622000D01*
X183642000Y-150622000D02*
X182880000Y-150622000D01*
X182880000Y-150622000D02*
X182372000Y-150622000D01*
X184404000Y-150622000D02*
X183642000Y-150622000D01*
X188722000Y-151146000D02*
X186944000Y-151146000D01*
X190500000Y-151146000D02*
X188722000Y-151146000D01*
D36*
X174818000Y-152974000D02*
X174818000Y-152228000D01*
X174818000Y-152228000D02*
X174482000Y-151892000D01*
X174482000Y-153670000D02*
X174482000Y-151892000D01*
X174482000Y-150114000D02*
X174482000Y-151892000D01*
X174482000Y-150114000D02*
X174498000Y-150114000D01*
X174498000Y-150114000D02*
X175133000Y-150749000D01*
X175133000Y-150749000D02*
X175547000Y-151163000D01*
X175547000Y-151163000D02*
X175834000Y-150876000D01*
X174482000Y-150114000D02*
X175072000Y-150114000D01*
X175072000Y-150114000D02*
X175834000Y-150876000D01*
X174482000Y-150114000D02*
X174482000Y-150672000D01*
X174482000Y-150672000D02*
X175260000Y-151450000D01*
X176022000Y-152212000D02*
X175260000Y-151450000D01*
X176022000Y-152212000D02*
X175580000Y-152212000D01*
X175834000Y-150876000D02*
X175260000Y-151450000D01*
X175260000Y-151450000D02*
X175260000Y-152532000D01*
X174482000Y-153670000D02*
X174482000Y-153310000D01*
X174482000Y-153310000D02*
X174818000Y-152974000D01*
X174818000Y-152974000D02*
X175260000Y-152532000D01*
X175260000Y-152532000D02*
X175580000Y-152212000D01*
X175580000Y-152212000D02*
X174802000Y-152212000D01*
X174802000Y-152212000D02*
X174482000Y-151892000D01*
D34*
X171679500Y-93242500D02*
X176022000Y-93242500D01*
X176022000Y-93242500D02*
X176022000Y-93472000D01*
X171274000Y-92837000D02*
X175387000Y-92837000D01*
X175387000Y-92837000D02*
X176022000Y-93472000D01*
X176022000Y-93472000D02*
X176022000Y-93202000D01*
X171274000Y-92837000D02*
X171679500Y-93242500D01*
X171679500Y-93242500D02*
X172163000Y-93726000D01*
X172163000Y-93726000D02*
X175514000Y-93726000D01*
X171274000Y-112649000D02*
X174879000Y-112649000D01*
X174879000Y-112649000D02*
X175514000Y-113284000D01*
X171274000Y-112649000D02*
X171909000Y-113284000D01*
X171909000Y-113284000D02*
X175514000Y-113284000D01*
X171274000Y-132969000D02*
X175387000Y-132969000D01*
X175387000Y-132969000D02*
X175768000Y-133350000D01*
X171274000Y-132969000D02*
X171655000Y-133350000D01*
X171655000Y-133350000D02*
X175768000Y-133350000D01*
X176276000Y-133858000D02*
X172163000Y-133858000D01*
X172466000Y-133858000D02*
X172466000Y-134161000D01*
X172163000Y-133858000D02*
X172466000Y-133858000D01*
X171274000Y-132969000D02*
X172466000Y-134161000D01*
X172466000Y-134161000D02*
X172671000Y-134366000D01*
X172671000Y-134366000D02*
X176022000Y-134366000D01*
X176022000Y-134366000D02*
X176784000Y-134366000D01*
X176784000Y-132572000D02*
X175006000Y-132572000D01*
X176784000Y-133604000D02*
X175768000Y-132588000D01*
X176784000Y-132572000D02*
X176784000Y-133604000D01*
X176784000Y-133604000D02*
X176784000Y-134366000D01*
X176784000Y-134366000D02*
X177292000Y-134874000D01*
X194056000Y-112522000D02*
X194056000Y-128016000D01*
X178054000Y-135636000D02*
X177292000Y-134874000D01*
X177292000Y-134874000D02*
X176276000Y-133858000D01*
X176276000Y-133858000D02*
X175768000Y-133350000D01*
X175768000Y-133350000D02*
X175006000Y-132588000D01*
X186436000Y-135636000D02*
X179578000Y-135636000D01*
X179578000Y-135636000D02*
X178054000Y-135636000D01*
X194056000Y-128016000D02*
X189992000Y-132080000D01*
X189992000Y-132080000D02*
X186436000Y-135636000D01*
X175006000Y-132588000D02*
X175006000Y-132572000D01*
X177800000Y-95250000D02*
X186690000Y-95250000D01*
X186690000Y-95250000D02*
X187706000Y-95250000D01*
X191008000Y-95250000D02*
X194056000Y-92202000D01*
X194056000Y-92202000D02*
X194056000Y-95504000D01*
X191516000Y-115062000D02*
X194056000Y-112522000D01*
X194056000Y-112522000D02*
X194056000Y-112268000D01*
X194056000Y-97282000D02*
X194056000Y-95504000D01*
X194056000Y-99568000D02*
X194056000Y-97282000D01*
X178054000Y-115062000D02*
X186944000Y-115062000D01*
X194056000Y-112268000D02*
X194056000Y-99568000D01*
X178054000Y-115062000D02*
X176784000Y-113792000D01*
X177038000Y-113284000D02*
X176784000Y-113030000D01*
X176784000Y-113030000D02*
X176022000Y-113030000D01*
X177038000Y-114046000D02*
X176784000Y-113792000D01*
X176784000Y-113792000D02*
X176022000Y-113030000D01*
X176022000Y-113030000D02*
X175498000Y-112506000D01*
X175498000Y-112506000D02*
X175498000Y-112760000D01*
X175498000Y-112760000D02*
X175514000Y-112776000D01*
X175514000Y-112776000D02*
X175514000Y-113284000D01*
X177038000Y-114808000D02*
X175514000Y-113284000D01*
X175514000Y-113284000D02*
X175006000Y-112776000D01*
X175006000Y-112776000D02*
X175006000Y-112506000D01*
X175006000Y-112506000D02*
X175006000Y-112252000D01*
X174244000Y-112649000D02*
X174387000Y-112506000D01*
X174387000Y-112506000D02*
X177038000Y-112506000D01*
X177038000Y-112506000D02*
X176784000Y-112252000D01*
X176784000Y-112252000D02*
X177038000Y-112506000D01*
X177038000Y-112506000D02*
X177038000Y-113284000D01*
X177038000Y-113284000D02*
X177038000Y-114046000D01*
X177038000Y-114046000D02*
X177038000Y-114808000D01*
X177038000Y-114808000D02*
X177038000Y-115062000D01*
X174244000Y-112649000D02*
X176657000Y-115062000D01*
X176657000Y-115062000D02*
X177038000Y-115062000D01*
X177038000Y-115062000D02*
X178054000Y-115062000D01*
D36*
X171274000Y-112649000D02*
X174244000Y-112649000D01*
X174244000Y-112649000D02*
X174609000Y-112649000D01*
X174609000Y-112649000D02*
X175006000Y-112252000D01*
X175006000Y-112252000D02*
X176784000Y-112252000D01*
D34*
X177800000Y-95250000D02*
X177038000Y-95250000D01*
X177038000Y-95250000D02*
X176022000Y-94234000D01*
X176784000Y-94234000D02*
X176022000Y-94234000D01*
X176022000Y-94234000D02*
X175514000Y-93726000D01*
X175514000Y-93726000D02*
X174490000Y-92702000D01*
X176784000Y-92710000D02*
X175530000Y-92710000D01*
X175530000Y-92710000D02*
X175006000Y-92186000D01*
X176784000Y-94234000D02*
X176784000Y-93964000D01*
X176784000Y-93964000D02*
X176022000Y-93202000D01*
X176022000Y-93202000D02*
X175006000Y-92186000D01*
X176784000Y-92186000D02*
X176784000Y-92710000D01*
X176784000Y-92710000D02*
X176784000Y-94234000D01*
X176784000Y-94234000D02*
X177800000Y-95250000D01*
X194056000Y-75454000D02*
X194056000Y-92202000D01*
X194056000Y-75454000D02*
X187944000Y-69342000D01*
D36*
X176784000Y-92186000D02*
X175006000Y-92186000D01*
X175006000Y-92186000D02*
X174490000Y-92702000D01*
X174490000Y-92702000D02*
X174355000Y-92837000D01*
X174355000Y-92837000D02*
X171274000Y-92837000D01*
D34*
X187944000Y-69342000D02*
X187944000Y-67564000D01*
X187944000Y-67564000D02*
X187944000Y-65786000D01*
X187944000Y-65786000D02*
X187944000Y-63516000D01*
X187944000Y-63516000D02*
X188214000Y-63246000D01*
X185944000Y-65786000D02*
X185944000Y-63516000D01*
X185944000Y-63516000D02*
X185674000Y-63246000D01*
X185944000Y-65786000D02*
X185944000Y-67564000D01*
X185944000Y-67564000D02*
X185944000Y-69342000D01*
X184150000Y-69065140D02*
X184426860Y-69342000D01*
X184426860Y-69342000D02*
X185944000Y-69342000D01*
X191008000Y-147066000D02*
X188656000Y-147066000D01*
D36*
X156956000Y-150876000D02*
X156956000Y-151368000D01*
X156956000Y-151368000D02*
X157480000Y-151892000D01*
X159258000Y-152400000D02*
X159258000Y-152146000D01*
X158750000Y-151892000D02*
X159258000Y-152400000D01*
X157480000Y-151892000D02*
X158750000Y-151892000D01*
X161428000Y-148717000D02*
X159258000Y-150887000D01*
X159258000Y-150887000D02*
X159258000Y-150622000D01*
D34*
X159258000Y-150622000D02*
X159258000Y-152146000D01*
X159258000Y-152146000D02*
X159258000Y-153162000D01*
D35*
X144272000Y-110236000D02*
X144272000Y-110728000D01*
X144780000Y-109728000D02*
X144272000Y-110236000D01*
X144780000Y-108204000D02*
X144780000Y-109728000D01*
X146050000Y-106934000D02*
X144780000Y-108204000D01*
X161974000Y-132969000D02*
X161798000Y-133145000D01*
X161798000Y-133145000D02*
X161798000Y-134112000D01*
X153924000Y-129794000D02*
X153162000Y-130556000D01*
X156222000Y-131826000D02*
X154952000Y-130556000D01*
X154952000Y-130556000D02*
X153162000Y-130556000D01*
X153162000Y-130556000D02*
X151638000Y-130556000D01*
D36*
X156956000Y-150876000D02*
X156956000Y-151638000D01*
X156956000Y-151638000D02*
X156956000Y-152654000D01*
D35*
X156972000Y-126254000D02*
X156956000Y-126238000D01*
X156956000Y-126238000D02*
X151638000Y-126238000D01*
X156972000Y-126254000D02*
X158750000Y-126254000D01*
X158750000Y-126254000D02*
X159115000Y-126619000D01*
X159115000Y-126619000D02*
X161974000Y-126619000D01*
X161798000Y-112825000D02*
X161798000Y-114046000D01*
X154432000Y-112268000D02*
X153670000Y-111506000D01*
X161974000Y-112649000D02*
X161798000Y-112825000D01*
X156222000Y-111506000D02*
X153670000Y-111506000D01*
X153670000Y-111506000D02*
X151892000Y-111506000D01*
X151638000Y-105918000D02*
X156956000Y-105918000D01*
X156972000Y-105934000D02*
X156956000Y-105918000D01*
X158750000Y-105934000D02*
X156972000Y-105934000D01*
X161974000Y-106299000D02*
X159115000Y-106299000D01*
X159115000Y-106299000D02*
X158750000Y-105934000D01*
X161974000Y-92837000D02*
X162052000Y-92915000D01*
X162052000Y-92915000D02*
X162052000Y-93980000D01*
X154686000Y-92456000D02*
X153924000Y-91694000D01*
X156222000Y-91694000D02*
X153924000Y-91694000D01*
X153924000Y-91694000D02*
X151638000Y-91694000D01*
X158750000Y-86122000D02*
X156972000Y-86122000D01*
X161974000Y-86487000D02*
X160401000Y-86487000D01*
X160036000Y-86122000D02*
X158750000Y-86122000D01*
X160401000Y-86487000D02*
X160036000Y-86122000D01*
X156972000Y-86122000D02*
X155432000Y-86122000D01*
X155432000Y-86122000D02*
X153416000Y-88138000D01*
X153416000Y-88138000D02*
X151638000Y-88138000D01*
D34*
X149098000Y-86614000D02*
X149098000Y-83185000D01*
X148971000Y-83058000D02*
X149098000Y-83185000D01*
D35*
X143256000Y-109712000D02*
X144272000Y-110728000D01*
X144272000Y-110728000D02*
X144440000Y-110896000D01*
X144440000Y-110896000D02*
X144440000Y-111293000D01*
X161544000Y-82534000D02*
X160954000Y-82534000D01*
X160954000Y-82534000D02*
X159954000Y-81534000D01*
X161974000Y-83947000D02*
X161974000Y-82964000D01*
X161974000Y-82964000D02*
X161544000Y-82534000D01*
X161544000Y-102346000D02*
X161052000Y-102346000D01*
X161052000Y-102346000D02*
X160528000Y-102870000D01*
X160528000Y-102870000D02*
X160528000Y-103378000D01*
X161974000Y-103759000D02*
X160909000Y-103759000D01*
X159954000Y-102804000D02*
X159954000Y-101346000D01*
X160909000Y-103759000D02*
X160528000Y-103378000D01*
X160528000Y-103378000D02*
X159954000Y-102804000D01*
X161544000Y-122666000D02*
X161036000Y-123174000D01*
X161036000Y-123174000D02*
X161036000Y-123952000D01*
X161974000Y-124079000D02*
X161163000Y-124079000D01*
X159954000Y-122870000D02*
X159954000Y-121666000D01*
X161163000Y-124079000D02*
X161036000Y-123952000D01*
X161036000Y-123952000D02*
X159954000Y-122870000D01*
X156906000Y-82804000D02*
X157160000Y-83058000D01*
X157160000Y-83058000D02*
X159512000Y-83058000D01*
X159512000Y-83058000D02*
X160020000Y-83566000D01*
X160020000Y-83566000D02*
X160020000Y-84836000D01*
X158734000Y-84582000D02*
X159766000Y-84582000D01*
X160401000Y-85217000D02*
X161974000Y-85217000D01*
X159766000Y-84582000D02*
X160020000Y-84836000D01*
X160020000Y-84836000D02*
X160401000Y-85217000D01*
X159766000Y-103886000D02*
X160020000Y-104140000D01*
X157414000Y-103124000D02*
X159004000Y-103124000D01*
X159004000Y-103124000D02*
X159766000Y-103886000D01*
X156906000Y-102616000D02*
X157414000Y-103124000D01*
X160020000Y-104140000D02*
X160020000Y-104648000D01*
X158734000Y-104394000D02*
X159766000Y-104394000D01*
X160401000Y-105029000D02*
X161974000Y-105029000D01*
X159766000Y-104394000D02*
X160020000Y-104648000D01*
X160020000Y-104648000D02*
X160401000Y-105029000D01*
X156906000Y-122936000D02*
X157160000Y-123190000D01*
X157160000Y-123190000D02*
X159258000Y-123190000D01*
X159258000Y-123190000D02*
X160020000Y-123952000D01*
X160020000Y-123952000D02*
X160020000Y-124968000D01*
X158734000Y-124714000D02*
X159766000Y-124714000D01*
X160401000Y-125349000D02*
X161974000Y-125349000D01*
X159766000Y-124714000D02*
X160020000Y-124968000D01*
X160020000Y-124968000D02*
X160401000Y-125349000D01*
D34*
X176784000Y-130572000D02*
X175006000Y-130572000D01*
X189357000Y-128905000D02*
X189992000Y-129540000D01*
X197358000Y-136906000D02*
X197358000Y-150368000D01*
X197358000Y-150368000D02*
X194580000Y-153146000D01*
X190500000Y-153146000D02*
X194580000Y-153146000D01*
X189357000Y-128905000D02*
X189357000Y-127381000D01*
X194564000Y-134112000D02*
X197358000Y-136906000D01*
D36*
X182796000Y-153162000D02*
X186928000Y-153162000D01*
X186928000Y-153162000D02*
X186944000Y-153146000D01*
D34*
X188722000Y-153146000D02*
X186944000Y-153146000D01*
X190500000Y-153146000D02*
X188722000Y-153146000D01*
D36*
X171274000Y-130429000D02*
X174863000Y-130429000D01*
X174863000Y-130429000D02*
X175006000Y-130572000D01*
D34*
X176784000Y-130572000D02*
X179816000Y-130572000D01*
X179816000Y-130572000D02*
X180848000Y-129540000D01*
X180848000Y-129540000D02*
X187198000Y-129540000D01*
X187198000Y-129540000D02*
X189357000Y-127381000D01*
X189357000Y-120269000D02*
X189357000Y-115697000D01*
X189357000Y-127381000D02*
X189357000Y-120269000D01*
X177226000Y-116840000D02*
X188214000Y-116840000D01*
X188214000Y-116840000D02*
X189357000Y-115697000D01*
X187706000Y-89408000D02*
X189357000Y-87757000D01*
X181610000Y-89662000D02*
X181864000Y-89408000D01*
X181864000Y-89408000D02*
X187706000Y-89408000D01*
X177292000Y-89662000D02*
X181610000Y-89662000D01*
X189230000Y-87884000D02*
X189357000Y-87884000D01*
X189357000Y-87757000D02*
X189230000Y-87884000D01*
X187452000Y-76835000D02*
X189357000Y-78740000D01*
X189357000Y-78740000D02*
X189357000Y-87884000D01*
X189357000Y-87884000D02*
X189357000Y-96139000D01*
X189357000Y-107061000D02*
X189357000Y-115697000D01*
X189357000Y-96139000D02*
X189357000Y-107061000D01*
X189357000Y-107061000D02*
X187198000Y-109220000D01*
X176784000Y-110252000D02*
X177308000Y-109728000D01*
X177308000Y-109728000D02*
X180594000Y-109728000D01*
X180594000Y-109728000D02*
X181102000Y-109220000D01*
X181102000Y-109220000D02*
X187198000Y-109220000D01*
X175006000Y-110252000D02*
X176784000Y-110252000D01*
D36*
X171274000Y-110109000D02*
X174863000Y-110109000D01*
X174863000Y-110109000D02*
X175006000Y-110252000D01*
D34*
X177308000Y-89662000D02*
X177292000Y-89662000D01*
X177292000Y-89662000D02*
X173990000Y-89662000D01*
X173990000Y-89662000D02*
X173355000Y-90297000D01*
X176718000Y-96774000D02*
X188722000Y-96774000D01*
X188722000Y-96774000D02*
X189357000Y-96139000D01*
X185547000Y-76708000D02*
X187325000Y-76708000D01*
X187452000Y-76708000D02*
X187452000Y-76835000D01*
X187325000Y-76708000D02*
X187452000Y-76708000D01*
X176718000Y-76708000D02*
X183642000Y-76708000D01*
X185547000Y-76708000D02*
X186436000Y-75819000D01*
X183642000Y-76708000D02*
X185547000Y-76708000D01*
D36*
X176784000Y-90186000D02*
X177308000Y-89662000D01*
D34*
X186436000Y-75819000D02*
X187452000Y-76835000D01*
D36*
X176784000Y-90186000D02*
X175006000Y-90186000D01*
X175006000Y-90186000D02*
X174895000Y-90297000D01*
X174895000Y-90297000D02*
X173355000Y-90297000D01*
X173355000Y-90297000D02*
X171274000Y-90297000D01*
D34*
X178054000Y-143494000D02*
X178242000Y-143682000D01*
X178242000Y-143682000D02*
X178242000Y-145288000D01*
X176276000Y-143444000D02*
X175194000Y-143444000D01*
X174178000Y-142428000D02*
X174178000Y-140208000D01*
X175194000Y-143444000D02*
X174178000Y-142428000D01*
X176276000Y-143444000D02*
X178004000Y-143444000D01*
X178004000Y-143444000D02*
X178054000Y-143494000D01*
X172278000Y-140208000D02*
X172278000Y-141798000D01*
X170942000Y-155448000D02*
X173228000Y-155448000D01*
X170688000Y-155194000D02*
X170942000Y-155448000D01*
D36*
X172482000Y-150114000D02*
X172482000Y-148871000D01*
X172482000Y-148871000D02*
X172328000Y-148717000D01*
D34*
X172482000Y-151892000D02*
X172482000Y-150114000D01*
X172482000Y-153670000D02*
X172482000Y-151892000D01*
X182796000Y-154112000D02*
X181460000Y-155448000D01*
X172482000Y-154702000D02*
X172482000Y-153670000D01*
X173228000Y-155448000D02*
X172482000Y-154702000D01*
X181460000Y-155448000D02*
X173228000Y-155448000D01*
X176342000Y-147320000D02*
X175850000Y-147812000D01*
X175850000Y-147812000D02*
X174752000Y-147812000D01*
D36*
X172328000Y-147447000D02*
X174387000Y-147447000D01*
X174387000Y-147447000D02*
X174752000Y-147812000D01*
D34*
X176342000Y-145288000D02*
X175276000Y-145288000D01*
X175276000Y-145288000D02*
X174752000Y-145812000D01*
D36*
X172328000Y-146177000D02*
X174387000Y-146177000D01*
X174387000Y-146177000D02*
X174752000Y-145812000D01*
D34*
X151384000Y-78486000D02*
X150898860Y-78486000D01*
X150898860Y-78486000D02*
X150136860Y-77724000D01*
X150136860Y-78486000D02*
X151384000Y-78486000D01*
X151384000Y-78486000D02*
X151130000Y-78486000D01*
X150136860Y-77724000D02*
X150136860Y-78486000D01*
X150136860Y-78486000D02*
X150136860Y-79479140D01*
X150136860Y-79479140D02*
X150114000Y-79502000D01*
X141208000Y-82042000D02*
X142732000Y-80518000D01*
X142732000Y-80518000D02*
X149098000Y-80518000D01*
X149098000Y-80518000D02*
X150114000Y-79502000D01*
X150114000Y-79502000D02*
X151130000Y-78486000D01*
X151130000Y-78486000D02*
X151892000Y-77724000D01*
X151892000Y-77724000D02*
X152162000Y-77724000D01*
X141224000Y-83578000D02*
X141224000Y-82058000D01*
X141224000Y-82058000D02*
X141208000Y-82042000D01*
X152162000Y-77724000D02*
X150136860Y-77724000D01*
X152162000Y-75438000D02*
X152162000Y-77724000D01*
X152162000Y-73406000D02*
X152162000Y-75438000D01*
X149606000Y-73279000D02*
X152035000Y-73279000D01*
X152035000Y-73279000D02*
X152162000Y-73406000D01*
D35*
X155702000Y-146066000D02*
X154128000Y-146066000D01*
X154128000Y-146066000D02*
X154112000Y-146050000D01*
X157292000Y-146050000D02*
X155718000Y-146050000D01*
X155718000Y-146050000D02*
X155702000Y-146066000D01*
X155702000Y-148066000D02*
X157054000Y-148066000D01*
X157054000Y-148066000D02*
X157292000Y-147828000D01*
X154112000Y-148082000D02*
X155686000Y-148082000D01*
X155686000Y-148082000D02*
X155702000Y-148066000D01*
X140142000Y-107188000D02*
X140142000Y-105156000D01*
X140192000Y-109220000D02*
X140142000Y-109170000D01*
X140142000Y-109170000D02*
X140142000Y-107188000D01*
X140040000Y-111293000D02*
X140192000Y-111141000D01*
X140192000Y-111141000D02*
X140192000Y-109220000D01*
X143510000Y-114300000D02*
X141153000Y-111943000D01*
X140040000Y-111943000D02*
X141153000Y-111943000D01*
X149606000Y-146050000D02*
X148590000Y-145034000D01*
X148590000Y-145034000D02*
X148590000Y-141986000D01*
X149606000Y-146050000D02*
X152212000Y-146050000D01*
X143510000Y-115062000D02*
X143510000Y-114300000D01*
X140040000Y-111943000D02*
X138867000Y-111943000D01*
X138192000Y-111268000D02*
X138192000Y-109220000D01*
X138867000Y-111943000D02*
X138192000Y-111268000D01*
X138242000Y-107188000D02*
X138192000Y-107238000D01*
X138192000Y-107238000D02*
X138192000Y-109220000D01*
X149606000Y-148082000D02*
X147320000Y-145796000D01*
X147320000Y-145796000D02*
X147320000Y-141478000D01*
X149606000Y-148082000D02*
X152212000Y-148082000D01*
X136668000Y-116332000D02*
X136652000Y-116316000D01*
X136652000Y-116316000D02*
X136652000Y-114808000D01*
X134046000Y-108712000D02*
X135128000Y-108712000D01*
X136398000Y-110490000D02*
X138501000Y-112593000D01*
X136398000Y-109982000D02*
X136398000Y-110490000D01*
X135128000Y-108712000D02*
X136398000Y-109982000D01*
X136977000Y-112593000D02*
X138501000Y-112593000D01*
X138501000Y-112593000D02*
X140040000Y-112593000D01*
X136906000Y-112522000D02*
X136977000Y-112593000D01*
X138192000Y-103124000D02*
X136398000Y-101330000D01*
X136398000Y-101330000D02*
X136398000Y-91186000D01*
X138192000Y-103124000D02*
X138192000Y-105106000D01*
X138192000Y-105106000D02*
X138242000Y-105156000D01*
X121158000Y-110998000D02*
X123698000Y-108458000D01*
D36*
X119745000Y-111760000D02*
X120253000Y-111252000D01*
X120253000Y-111252000D02*
X120904000Y-111252000D01*
X119745000Y-111252000D02*
X120904000Y-111252000D01*
X120650000Y-111252000D02*
X120650000Y-111506000D01*
X120904000Y-111252000D02*
X120650000Y-111252000D01*
X121158000Y-110998000D02*
X120965000Y-110805000D01*
X120965000Y-110805000D02*
X119761000Y-110805000D01*
X120650000Y-111506000D02*
X121158000Y-110998000D01*
X119761000Y-112395000D02*
X120650000Y-111506000D01*
X119745000Y-112395000D02*
X119761000Y-112395000D01*
X119745000Y-112395000D02*
X119745000Y-111760000D01*
X119745000Y-111760000D02*
X119745000Y-111252000D01*
X119745000Y-111252000D02*
X119745000Y-110821000D01*
X119745000Y-110821000D02*
X119761000Y-110805000D01*
D35*
X123698000Y-98806000D02*
X123698000Y-108458000D01*
X123698000Y-98806000D02*
X131318000Y-91186000D01*
X120396000Y-99822000D02*
X119822000Y-99822000D01*
X119822000Y-99822000D02*
X119634000Y-100010000D01*
X121158000Y-99822000D02*
X120904000Y-99822000D01*
X120650000Y-100076000D02*
X119618000Y-101108000D01*
X120904000Y-99822000D02*
X120650000Y-100076000D01*
X119634000Y-100584000D02*
X119634000Y-100838000D01*
X119618000Y-101600000D02*
X119618000Y-101362000D01*
X119618000Y-101362000D02*
X121158000Y-99822000D01*
X120650000Y-99822000D02*
X121158000Y-99822000D01*
X128778000Y-92202000D02*
X121920000Y-99060000D01*
X128778000Y-92202000D02*
X128778000Y-91186000D01*
X121158000Y-99822000D02*
X121920000Y-99060000D01*
X119634000Y-100584000D02*
X120396000Y-99822000D01*
X120650000Y-99822000D02*
X119634000Y-100838000D01*
X120396000Y-99822000D02*
X120650000Y-99822000D01*
X119618000Y-101600000D02*
X119618000Y-101108000D01*
X119634000Y-100010000D02*
X119634000Y-100584000D01*
X119634000Y-100838000D02*
X119634000Y-101584000D01*
X119634000Y-101584000D02*
X119618000Y-101600000D01*
D36*
X119872000Y-122428000D02*
X120396000Y-122428000D01*
X120650000Y-122174000D02*
X120650000Y-122428000D01*
X120396000Y-122428000D02*
X120650000Y-122174000D01*
X119872000Y-123444000D02*
X119872000Y-123206000D01*
X119872000Y-123206000D02*
X120650000Y-122428000D01*
X120650000Y-122428000D02*
X121224000Y-121854000D01*
X119888000Y-121854000D02*
X121224000Y-121854000D01*
D35*
X121920000Y-121158000D02*
X121224000Y-121854000D01*
X121920000Y-120396000D02*
X121920000Y-121158000D01*
D36*
X119888000Y-121854000D02*
X119872000Y-121870000D01*
X119872000Y-121870000D02*
X119872000Y-122428000D01*
X119872000Y-122428000D02*
X119872000Y-123444000D01*
X132504000Y-114234000D02*
X134704000Y-114234000D01*
X134704000Y-114234000D02*
X134704000Y-120312000D01*
D34*
X111252000Y-91440000D02*
X111252000Y-121920000D01*
X125476000Y-77216000D02*
X140843000Y-77216000D01*
X125476000Y-77216000D02*
X115316000Y-87376000D01*
X115316000Y-87376000D02*
X111252000Y-91440000D01*
X133096000Y-121920000D02*
X134704000Y-120312000D01*
D36*
X132318000Y-116078000D02*
X132504000Y-115892000D01*
X132504000Y-115892000D02*
X132504000Y-114234000D01*
X134704000Y-112334000D02*
X134704000Y-110844000D01*
X134704000Y-110844000D02*
X134350000Y-110490000D01*
X173736000Y-82804000D02*
X172076000Y-81144000D01*
X172076000Y-81144000D02*
X171704000Y-81144000D01*
X175260000Y-84090000D02*
X175022000Y-84090000D01*
X175022000Y-84090000D02*
X173736000Y-82804000D01*
X173736000Y-82804000D02*
X173736000Y-83176000D01*
X175260000Y-84090000D02*
X174650000Y-84090000D01*
X174650000Y-84090000D02*
X173736000Y-83176000D01*
X173736000Y-83176000D02*
X171704000Y-81144000D01*
X172720000Y-82550000D02*
X172250000Y-82550000D01*
X174260000Y-84090000D02*
X172720000Y-82550000D01*
X175260000Y-84090000D02*
X174260000Y-84090000D01*
X172250000Y-82550000D02*
X171274000Y-81574000D01*
X171274000Y-81574000D02*
X171704000Y-81144000D01*
X172085000Y-82804000D02*
X172466000Y-82804000D01*
X172466000Y-82804000D02*
X173752000Y-84090000D01*
X172085000Y-83185000D02*
X172085000Y-82804000D01*
X172085000Y-82804000D02*
X172085000Y-81525000D01*
X172085000Y-81525000D02*
X171704000Y-81144000D01*
X171274000Y-83947000D02*
X171274000Y-81574000D01*
X171274000Y-81574000D02*
X171704000Y-81144000D01*
X172466000Y-83566000D02*
X171655000Y-83566000D01*
X171655000Y-83566000D02*
X171704000Y-83517000D01*
X171274000Y-83947000D02*
X172847000Y-83947000D01*
X172847000Y-83947000D02*
X172990000Y-84090000D01*
X175260000Y-84090000D02*
X173752000Y-84090000D01*
X173752000Y-84090000D02*
X172990000Y-84090000D01*
X172990000Y-84090000D02*
X172466000Y-83566000D01*
X172466000Y-83566000D02*
X172085000Y-83185000D01*
X172085000Y-83185000D02*
X171704000Y-82804000D01*
X171274000Y-83947000D02*
X171704000Y-83517000D01*
X171704000Y-83517000D02*
X171704000Y-82804000D01*
X171704000Y-82804000D02*
X171704000Y-81144000D01*
X176530000Y-87122000D02*
X175498000Y-86090000D01*
X175498000Y-86090000D02*
X175260000Y-86090000D01*
X177546000Y-87376000D02*
X176260000Y-86090000D01*
X176260000Y-86090000D02*
X175260000Y-86090000D01*
X175260000Y-86090000D02*
X176292000Y-87122000D01*
X176292000Y-87122000D02*
X176530000Y-87122000D01*
X172974000Y-86868000D02*
X176022000Y-86868000D01*
X176022000Y-86868000D02*
X176022000Y-87122000D01*
X175260000Y-86090000D02*
X174863000Y-86487000D01*
X174863000Y-86487000D02*
X172593000Y-86487000D01*
X177546000Y-87376000D02*
X177292000Y-87122000D01*
X177292000Y-87122000D02*
X176530000Y-87122000D01*
X176530000Y-87122000D02*
X176022000Y-87122000D01*
X176022000Y-87122000D02*
X174752000Y-87122000D01*
X175260000Y-86090000D02*
X175260000Y-86614000D01*
X175260000Y-86614000D02*
X174752000Y-87122000D01*
X171274000Y-86487000D02*
X172593000Y-86487000D01*
X173228000Y-87122000D02*
X174752000Y-87122000D01*
X172593000Y-86487000D02*
X172974000Y-86868000D01*
X172974000Y-86868000D02*
X173228000Y-87122000D01*
X171704000Y-100956000D02*
X171704000Y-101346000D01*
X171704000Y-101346000D02*
X174117000Y-103759000D01*
X174117000Y-103759000D02*
X174117000Y-103369000D01*
X174752000Y-103902000D02*
X174650000Y-103902000D01*
X174650000Y-103902000D02*
X174117000Y-103369000D01*
X174117000Y-103369000D02*
X171704000Y-100956000D01*
X171679500Y-103353500D02*
X171704000Y-103378000D01*
X171704000Y-103378000D02*
X172466000Y-103378000D01*
X171274000Y-103759000D02*
X171679500Y-103353500D01*
X171679500Y-103353500D02*
X171704000Y-103329000D01*
X171704000Y-103329000D02*
X171704000Y-103124000D01*
X171274000Y-102362000D02*
X171450000Y-102362000D01*
X171450000Y-102362000D02*
X172466000Y-103378000D01*
X172466000Y-103378000D02*
X172847000Y-103759000D01*
X171274000Y-103759000D02*
X171274000Y-102362000D01*
X171274000Y-102362000D02*
X171274000Y-101386000D01*
X171274000Y-101386000D02*
X171704000Y-100956000D01*
X171704000Y-100956000D02*
X171704000Y-102108000D01*
X171704000Y-102108000D02*
X173355000Y-103759000D01*
X174752000Y-103902000D02*
X174609000Y-103759000D01*
X174609000Y-103759000D02*
X173355000Y-103759000D01*
X173355000Y-103759000D02*
X172847000Y-103759000D01*
X172847000Y-103759000D02*
X171274000Y-103759000D01*
X174752000Y-105902000D02*
X176260000Y-105902000D01*
X176260000Y-105902000D02*
X177546000Y-107188000D01*
X173736000Y-106299000D02*
X176657000Y-106299000D01*
X176657000Y-106299000D02*
X177546000Y-107188000D01*
X173609000Y-106807000D02*
X177165000Y-106807000D01*
X177165000Y-106807000D02*
X177546000Y-107188000D01*
X177546000Y-107188000D02*
X173990000Y-107188000D01*
X173990000Y-107188000D02*
X173609000Y-106807000D01*
X173609000Y-106807000D02*
X173101000Y-106299000D01*
X171274000Y-106299000D02*
X173101000Y-106299000D01*
X173101000Y-106299000D02*
X173736000Y-106299000D01*
X173736000Y-106299000D02*
X174355000Y-106299000D01*
X174355000Y-106299000D02*
X174752000Y-105902000D01*
X172330000Y-121276000D02*
X172974000Y-121920000D01*
X174752000Y-123698000D02*
X172974000Y-121920000D01*
X174752000Y-123698000D02*
X174752000Y-124222000D01*
X172330000Y-121276000D02*
X171704000Y-121276000D01*
X171274000Y-123190000D02*
X172163000Y-124079000D01*
X172163000Y-124079000D02*
X173355000Y-124079000D01*
X171274000Y-122682000D02*
X171274000Y-122760000D01*
X171274000Y-122760000D02*
X172593000Y-124079000D01*
X171704000Y-121276000D02*
X171704000Y-122428000D01*
X171704000Y-122428000D02*
X173355000Y-124079000D01*
X171704000Y-121276000D02*
X171704000Y-121920000D01*
X171704000Y-121920000D02*
X173863000Y-124079000D01*
X174752000Y-124222000D02*
X174650000Y-124222000D01*
X174650000Y-124222000D02*
X171704000Y-121276000D01*
X171274000Y-124079000D02*
X172593000Y-124079000D01*
X172593000Y-124079000D02*
X173355000Y-124079000D01*
X173355000Y-124079000D02*
X173863000Y-124079000D01*
X173863000Y-124079000D02*
X174609000Y-124079000D01*
X174609000Y-124079000D02*
X174752000Y-124222000D01*
X171274000Y-124079000D02*
X171274000Y-123190000D01*
X171274000Y-123190000D02*
X171274000Y-122682000D01*
X171274000Y-122682000D02*
X171274000Y-121706000D01*
X171274000Y-121706000D02*
X171704000Y-121276000D01*
X176784000Y-126619000D02*
X176657000Y-126492000D01*
X173482000Y-126492000D02*
X173482000Y-126619000D01*
X176657000Y-126492000D02*
X173482000Y-126492000D01*
X176784000Y-127000000D02*
X177292000Y-127508000D01*
X177292000Y-127508000D02*
X177800000Y-127508000D01*
X174371000Y-126873000D02*
X174498000Y-127000000D01*
X176784000Y-127000000D02*
X176784000Y-126619000D01*
X176784000Y-126619000D02*
X176784000Y-126873000D01*
X174498000Y-127000000D02*
X176784000Y-127000000D01*
X174752000Y-126222000D02*
X176514000Y-126222000D01*
X176514000Y-126222000D02*
X177800000Y-127508000D01*
X174117000Y-126873000D02*
X174371000Y-126873000D01*
X176784000Y-126873000D02*
X177165000Y-126873000D01*
X177165000Y-126873000D02*
X177800000Y-127508000D01*
X177800000Y-127508000D02*
X174752000Y-127508000D01*
X174752000Y-127508000D02*
X174117000Y-126873000D01*
X174117000Y-126873000D02*
X173863000Y-126619000D01*
X171274000Y-126619000D02*
X173482000Y-126619000D01*
X173482000Y-126619000D02*
X173863000Y-126619000D01*
X173863000Y-126619000D02*
X174355000Y-126619000D01*
X174355000Y-126619000D02*
X174752000Y-126222000D01*
X177800000Y-83566000D02*
X178562000Y-84328000D01*
X178562000Y-84328000D02*
X179390000Y-84328000D01*
X177800000Y-84074000D02*
X178054000Y-84074000D01*
X178054000Y-84074000D02*
X178308000Y-84328000D01*
X177546000Y-84328000D02*
X177800000Y-84074000D01*
X177800000Y-84074000D02*
X177800000Y-84074000D01*
X177800000Y-84074000D02*
X177800000Y-83566000D01*
X177800000Y-83566000D02*
X177800000Y-81906000D01*
X177800000Y-81906000D02*
X176920000Y-81026000D01*
X172847000Y-85217000D02*
X173101000Y-85217000D01*
X171274000Y-85217000D02*
X172847000Y-85217000D01*
X177546000Y-84328000D02*
X178308000Y-84328000D01*
X178308000Y-84328000D02*
X179390000Y-84328000D01*
X177038000Y-84836000D02*
X177546000Y-84328000D01*
X183896000Y-81600000D02*
X183322000Y-81026000D01*
X183322000Y-81026000D02*
X181220000Y-81026000D01*
X177038000Y-124460000D02*
X177546000Y-123952000D01*
X177546000Y-123952000D02*
X177546000Y-121784000D01*
X177546000Y-121784000D02*
X176920000Y-121158000D01*
X171274000Y-125349000D02*
X173101000Y-125349000D01*
X176784000Y-124460000D02*
X177038000Y-124460000D01*
X177038000Y-124460000D02*
X179390000Y-124460000D01*
X176530000Y-124714000D02*
X176784000Y-124460000D01*
X183896000Y-121478000D02*
X183576000Y-121158000D01*
X183576000Y-121158000D02*
X181220000Y-121158000D01*
D34*
X174818000Y-76708000D02*
X171840000Y-76708000D01*
X171840000Y-76708000D02*
X171704000Y-76844000D01*
X171704000Y-76844000D02*
X171840000Y-76708000D01*
X171704000Y-96656000D02*
X174700000Y-96656000D01*
X174700000Y-96656000D02*
X174818000Y-96774000D01*
X175326000Y-116840000D02*
X171840000Y-116840000D01*
X171840000Y-116840000D02*
X171704000Y-116976000D01*
X146535140Y-77724000D02*
X144653000Y-77724000D01*
X144653000Y-77724000D02*
X144145000Y-77216000D01*
X186436000Y-72517000D02*
X184299860Y-72517000D01*
X184299860Y-72517000D02*
X184150000Y-72666860D01*
X186286140Y-72666860D02*
X186436000Y-72517000D01*
X209042000Y-97790000D02*
X210820000Y-99568000D01*
X209042000Y-97790000D02*
X205740000Y-94488000D01*
X205740000Y-73279000D02*
X205740000Y-94488000D01*
X210820000Y-99568000D02*
X210820000Y-102616000D01*
X226822000Y-140208000D02*
X217424000Y-130810000D01*
X217424000Y-114808000D02*
X210820000Y-108204000D01*
X217424000Y-130810000D02*
X217424000Y-114808000D01*
X210820000Y-116078000D02*
X210820000Y-108204000D01*
X210820000Y-108204000D02*
X210820000Y-102616000D01*
X210820000Y-102616000D02*
X210820000Y-101092000D01*
X210820000Y-101092000D02*
X214122000Y-97790000D01*
X226822000Y-91186000D02*
X220726000Y-91186000D01*
X220726000Y-91186000D02*
X214122000Y-97790000D01*
X210820000Y-93218000D02*
X216916000Y-87122000D01*
X216916000Y-87122000D02*
X216916000Y-75565000D01*
X215900000Y-74549000D02*
X216916000Y-75565000D01*
X216916000Y-75565000D02*
X223647000Y-82296000D01*
X223647000Y-82296000D02*
X231140000Y-89789000D01*
X214630000Y-73279000D02*
X215900000Y-74549000D01*
X231140000Y-113030000D02*
X226822000Y-117348000D01*
X231140000Y-89789000D02*
X231140000Y-113030000D01*
X211328000Y-73279000D02*
X214630000Y-73279000D01*
X214630000Y-73279000D02*
X221869000Y-73279000D01*
X221869000Y-73279000D02*
X226822000Y-68326000D01*
D35*
X141478000Y-134366000D02*
X141974000Y-134862000D01*
X141974000Y-134862000D02*
X154940000Y-134862000D01*
D34*
X142990000Y-85078000D02*
X144018000Y-86106000D01*
X141224000Y-85078000D02*
X142990000Y-85078000D01*
X144018000Y-86106000D02*
X144018000Y-87376000D01*
X138672000Y-85852000D02*
X139446000Y-85078000D01*
X135890000Y-85852000D02*
X138672000Y-85852000D01*
D35*
X149860000Y-123698000D02*
X149606000Y-123698000D01*
X150876000Y-123698000D02*
X149860000Y-123698000D01*
X152400000Y-122174000D02*
X150876000Y-123698000D01*
X153416000Y-122174000D02*
X152400000Y-122174000D01*
X154178000Y-121412000D02*
X153416000Y-122174000D01*
X157800000Y-121412000D02*
X154178000Y-121412000D01*
X149606000Y-123698000D02*
X141478000Y-131826000D01*
X158054000Y-121666000D02*
X157800000Y-121412000D01*
X147828000Y-126492000D02*
X144018000Y-130302000D01*
X155006000Y-122936000D02*
X152400000Y-122936000D01*
X150876000Y-124460000D02*
X149860000Y-124460000D01*
X152400000Y-122936000D02*
X150876000Y-124460000D01*
X149860000Y-124460000D02*
X147828000Y-126492000D01*
X139954000Y-133096000D02*
X138938000Y-132080000D01*
X143002000Y-133096000D02*
X139954000Y-133096000D01*
X144018000Y-132080000D02*
X143002000Y-133096000D01*
X144018000Y-130302000D02*
X144018000Y-132080000D01*
X138938000Y-132080000D02*
X138938000Y-131826000D01*
X148336000Y-114554000D02*
X136398000Y-126492000D01*
X148336000Y-104140000D02*
X148336000Y-107696000D01*
X152400000Y-101092000D02*
X150876000Y-102616000D01*
X157800000Y-101092000D02*
X152400000Y-101092000D01*
X150876000Y-102616000D02*
X149860000Y-102616000D01*
X149860000Y-102616000D02*
X148336000Y-104140000D01*
X148336000Y-114554000D02*
X148336000Y-107696000D01*
X136398000Y-126492000D02*
X136398000Y-131826000D01*
X158054000Y-101346000D02*
X157800000Y-101092000D01*
X137922000Y-125730000D02*
X137414000Y-126238000D01*
X148844000Y-114808000D02*
X137922000Y-125730000D01*
X148844000Y-114554000D02*
X148844000Y-107696000D01*
X148844000Y-104394000D02*
X148844000Y-107696000D01*
X155006000Y-102616000D02*
X152400000Y-102616000D01*
X150876000Y-103378000D02*
X149860000Y-103378000D01*
X151638000Y-102616000D02*
X150876000Y-103378000D01*
X152400000Y-102616000D02*
X151638000Y-102616000D01*
X149860000Y-103378000D02*
X148844000Y-104394000D01*
X148844000Y-114554000D02*
X148844000Y-114808000D01*
X137414000Y-126238000D02*
X137414000Y-126746000D01*
X146812000Y-113284000D02*
X134874000Y-125222000D01*
X131318000Y-128778000D02*
X131318000Y-131826000D01*
X134874000Y-125222000D02*
X131318000Y-128778000D01*
X146812000Y-90678000D02*
X146812000Y-113284000D01*
X151892000Y-82550000D02*
X150876000Y-83566000D01*
X152400000Y-82042000D02*
X151892000Y-82550000D01*
X153416000Y-82042000D02*
X152400000Y-82042000D01*
X154178000Y-81280000D02*
X153416000Y-82042000D01*
X157734000Y-81280000D02*
X154178000Y-81280000D01*
X150876000Y-86614000D02*
X149098000Y-88392000D01*
X150876000Y-83566000D02*
X150876000Y-86614000D01*
X149098000Y-88392000D02*
X146812000Y-90678000D01*
X158054000Y-81534000D02*
X157988000Y-81534000D01*
X157988000Y-81534000D02*
X157734000Y-81280000D01*
X132334000Y-129032000D02*
X132842000Y-128524000D01*
X132842000Y-128524000D02*
X132842000Y-128016000D01*
X132842000Y-128016000D02*
X147320000Y-113538000D01*
X149352000Y-88900000D02*
X147320000Y-90932000D01*
X147320000Y-90932000D02*
X147320000Y-113538000D01*
X152146000Y-83058000D02*
X151384000Y-83820000D01*
X152400000Y-82804000D02*
X152146000Y-83058000D01*
X155006000Y-82804000D02*
X152400000Y-82804000D01*
X151384000Y-86868000D02*
X149352000Y-88900000D01*
X151384000Y-83820000D02*
X151384000Y-86868000D01*
X155448000Y-130048000D02*
X154178000Y-128778000D01*
X157038000Y-130048000D02*
X155448000Y-130048000D01*
X150114000Y-128778000D02*
X145288000Y-133604000D01*
X154178000Y-128778000D02*
X150114000Y-128778000D01*
X121158000Y-131826000D02*
X119634000Y-130302000D01*
X119634000Y-130048000D02*
X119634000Y-129540000D01*
X123444000Y-125730000D02*
X120142000Y-129032000D01*
X141224000Y-123952000D02*
X140970000Y-124206000D01*
X149352000Y-115824000D02*
X141224000Y-123952000D01*
X149860000Y-109728000D02*
X149352000Y-110236000D01*
X152400000Y-109728000D02*
X157038000Y-109728000D01*
X149860000Y-109728000D02*
X152400000Y-109728000D01*
X149352000Y-110236000D02*
X149352000Y-114554000D01*
X149352000Y-114554000D02*
X149352000Y-115824000D01*
X124968000Y-125730000D02*
X123952000Y-125730000D01*
X123444000Y-125730000D02*
X123952000Y-125730000D01*
X119634000Y-129540000D02*
X120142000Y-129032000D01*
X119634000Y-130048000D02*
X119634000Y-130302000D01*
X135890000Y-125730000D02*
X135128000Y-126492000D01*
X147828000Y-91186000D02*
X147828000Y-92456000D01*
X149860000Y-89916000D02*
X149098000Y-89916000D01*
X157038000Y-89916000D02*
X149860000Y-89916000D01*
X149098000Y-89916000D02*
X147828000Y-91186000D01*
X147828000Y-113792000D02*
X147828000Y-92456000D01*
X147828000Y-113792000D02*
X135890000Y-125730000D01*
X135128000Y-126492000D02*
X135128000Y-127000000D01*
X159258000Y-91506000D02*
X157910000Y-91506000D01*
X157910000Y-91506000D02*
X157722000Y-91694000D01*
X159258000Y-91506000D02*
X159700000Y-91506000D01*
X159700000Y-91506000D02*
X160909000Y-90297000D01*
X160909000Y-90297000D02*
X161974000Y-90297000D01*
X159258000Y-93406000D02*
X157910000Y-93406000D01*
X157910000Y-93406000D02*
X157722000Y-93218000D01*
X159258000Y-111318000D02*
X159700000Y-111318000D01*
X159700000Y-111318000D02*
X160909000Y-110109000D01*
X160909000Y-110109000D02*
X161974000Y-110109000D01*
X157722000Y-111506000D02*
X157910000Y-111318000D01*
X157910000Y-111318000D02*
X159258000Y-111318000D01*
X157722000Y-113030000D02*
X157910000Y-113218000D01*
X157910000Y-113218000D02*
X159258000Y-113218000D01*
X159258000Y-131638000D02*
X159700000Y-131638000D01*
X159700000Y-131638000D02*
X160909000Y-130429000D01*
X160909000Y-130429000D02*
X161974000Y-130429000D01*
X157722000Y-131826000D02*
X157910000Y-131638000D01*
X157910000Y-131638000D02*
X159258000Y-131638000D01*
X157722000Y-133350000D02*
X157910000Y-133538000D01*
X157910000Y-133538000D02*
X159258000Y-133538000D01*
X158938000Y-89916000D02*
X159766000Y-89916000D01*
X160655000Y-89027000D02*
X161974000Y-89027000D01*
X159766000Y-89916000D02*
X160655000Y-89027000D01*
X158938000Y-109728000D02*
X159766000Y-109728000D01*
X160655000Y-108839000D02*
X161974000Y-108839000D01*
X159766000Y-109728000D02*
X160655000Y-108839000D01*
X158938000Y-130048000D02*
X159766000Y-130048000D01*
X160655000Y-129159000D02*
X161974000Y-129159000D01*
X159766000Y-130048000D02*
X160655000Y-129159000D01*
D34*
X188402000Y-144084000D02*
X188402000Y-142748000D01*
X186756000Y-145730000D02*
X188402000Y-144084000D01*
X186756000Y-147066000D02*
X186756000Y-145730000D01*
X186502000Y-142748000D02*
X183830000Y-142748000D01*
X181930000Y-142748000D02*
X181930000Y-145166000D01*
X181930000Y-145166000D02*
X182118000Y-145354000D01*
X182118000Y-147254000D02*
X180660000Y-147254000D01*
X179258000Y-149098000D02*
X179258000Y-148656000D01*
X179258000Y-148656000D02*
X180660000Y-147254000D01*
X180660000Y-147254000D02*
X178308000Y-147254000D01*
X178308000Y-147254000D02*
X178242000Y-147320000D01*
D35*
X161428000Y-146177000D02*
X159319000Y-146177000D01*
X159319000Y-146177000D02*
X159192000Y-146050000D01*
X159192000Y-147828000D02*
X159573000Y-147447000D01*
X159573000Y-147447000D02*
X161428000Y-147447000D01*
D34*
X134874000Y-137160000D02*
X135890000Y-137160000D01*
X134874000Y-137160000D02*
X116840000Y-137160000D01*
X116840000Y-137160000D02*
X115570000Y-135890000D01*
X115570000Y-135890000D02*
X115570000Y-119700000D01*
X115570000Y-119700000D02*
X117414000Y-117856000D01*
X135890000Y-137160000D02*
X157734000Y-137160000D01*
X159512000Y-137160000D02*
X157734000Y-137160000D01*
D36*
X119314000Y-117856000D02*
X120462000Y-117856000D01*
X119888000Y-118364000D02*
X119822000Y-118364000D01*
X119822000Y-118364000D02*
X119314000Y-117856000D01*
X119888000Y-118364000D02*
X119954000Y-118364000D01*
X119954000Y-118364000D02*
X120462000Y-117856000D01*
X119888000Y-119954000D02*
X119888000Y-118364000D01*
D34*
X210820000Y-126238000D02*
X204216000Y-132842000D01*
X210820000Y-121158000D02*
X210820000Y-126238000D01*
X157480000Y-138684000D02*
X116332000Y-138684000D01*
X114300000Y-109794000D02*
X117160000Y-106934000D01*
X114300000Y-136652000D02*
X114300000Y-109794000D01*
X116332000Y-138684000D02*
X114300000Y-136652000D01*
X202692000Y-134366000D02*
X202692000Y-138938000D01*
X204216000Y-132842000D02*
X202692000Y-134366000D01*
D36*
X120208000Y-106934000D02*
X119700000Y-107442000D01*
X119700000Y-107442000D02*
X119634000Y-107442000D01*
X119060000Y-106934000D02*
X120208000Y-106934000D01*
X119126000Y-106934000D02*
X119634000Y-107442000D01*
X119634000Y-107442000D02*
X119634000Y-108778000D01*
X119126000Y-106934000D02*
X119060000Y-106934000D01*
X119761000Y-108905000D02*
X119634000Y-108778000D01*
D34*
X155956000Y-140208000D02*
X115824000Y-140208000D01*
X115824000Y-140208000D02*
X113030000Y-137414000D01*
X113030000Y-137414000D02*
X113030000Y-100142000D01*
X117160000Y-96012000D02*
X113030000Y-100142000D01*
D36*
X120208000Y-96012000D02*
X120142000Y-96012000D01*
X120142000Y-96012000D02*
X119634000Y-96520000D01*
X119060000Y-96012000D02*
X120208000Y-96012000D01*
X119634000Y-96520000D02*
X119568000Y-96520000D01*
X119634000Y-98110000D02*
X119634000Y-96520000D01*
X119568000Y-96520000D02*
X119060000Y-96012000D01*
X179136000Y-92710000D02*
X179136000Y-91760000D01*
X173101000Y-91567000D02*
X171274000Y-91567000D01*
X173228000Y-91694000D02*
X173101000Y-91567000D01*
X179136000Y-91760000D02*
X178562000Y-91186000D01*
X171274000Y-111379000D02*
X173101000Y-111379000D01*
X179136000Y-111826000D02*
X179136000Y-113030000D01*
X178562000Y-111252000D02*
X179136000Y-111826000D01*
X171274000Y-131699000D02*
X173101000Y-131699000D01*
X179136000Y-132400000D02*
X179136000Y-133096000D01*
X178562000Y-131826000D02*
X179136000Y-132400000D01*
D34*
X177358000Y-149098000D02*
X177358000Y-149672000D01*
X177358000Y-149672000D02*
X177734000Y-150048000D01*
X177734000Y-150048000D02*
X177734000Y-150876000D01*
D36*
X177546000Y-103632000D02*
X178308000Y-104394000D01*
X178308000Y-104394000D02*
X179390000Y-104394000D01*
X176784000Y-104394000D02*
X177546000Y-103632000D01*
X177546000Y-103632000D02*
X177546000Y-103124000D01*
X177546000Y-103886000D02*
X178054000Y-104394000D01*
X177038000Y-104394000D02*
X177546000Y-103886000D01*
X177546000Y-103886000D02*
X177546000Y-103124000D01*
X177546000Y-103124000D02*
X177546000Y-101464000D01*
X177546000Y-101464000D02*
X176920000Y-100838000D01*
X172847000Y-105029000D02*
X173101000Y-105029000D01*
X171274000Y-105029000D02*
X172847000Y-105029000D01*
X176784000Y-104394000D02*
X177038000Y-104394000D01*
X177038000Y-104394000D02*
X178054000Y-104394000D01*
X178054000Y-104394000D02*
X179390000Y-104394000D01*
X176530000Y-104648000D02*
X176784000Y-104394000D01*
X183896000Y-101412000D02*
X183322000Y-100838000D01*
X183322000Y-100838000D02*
X181220000Y-100838000D01*
X184150000Y-92202000D02*
X181544000Y-92202000D01*
X181544000Y-92202000D02*
X181036000Y-92710000D01*
X181036000Y-92710000D02*
X183642000Y-92710000D01*
X183642000Y-92710000D02*
X184150000Y-92202000D01*
X181290000Y-84328000D02*
X183576000Y-86614000D01*
X183576000Y-86614000D02*
X184150000Y-86614000D01*
X184150000Y-86614000D02*
X184150000Y-85852000D01*
X184150000Y-85852000D02*
X182626000Y-84328000D01*
X181864000Y-84328000D02*
X182626000Y-85090000D01*
X184150000Y-86614000D02*
X182626000Y-85090000D01*
X182626000Y-85090000D02*
X182626000Y-84328000D01*
X182626000Y-84328000D02*
X182626000Y-84074000D01*
X181290000Y-84328000D02*
X181864000Y-84328000D01*
X181864000Y-84328000D02*
X182118000Y-84328000D01*
X183134000Y-83566000D02*
X183830000Y-83566000D01*
X182372000Y-84328000D02*
X182626000Y-84074000D01*
X182626000Y-84074000D02*
X183134000Y-83566000D01*
X182118000Y-84328000D02*
X182372000Y-84328000D01*
X183830000Y-83566000D02*
X183896000Y-83500000D01*
X184404000Y-112014000D02*
X183896000Y-112522000D01*
X183896000Y-112522000D02*
X181544000Y-112522000D01*
X181036000Y-113030000D02*
X181544000Y-112522000D01*
X181544000Y-112522000D02*
X182052000Y-112014000D01*
X182052000Y-112014000D02*
X184404000Y-112014000D01*
X181036000Y-113030000D02*
X183388000Y-113030000D01*
X183388000Y-113030000D02*
X184404000Y-112014000D01*
X182118000Y-104394000D02*
X182814000Y-104394000D01*
X182814000Y-104394000D02*
X183896000Y-103312000D01*
X182118000Y-104648000D02*
X183896000Y-106426000D01*
X183896000Y-106426000D02*
X184404000Y-106426000D01*
X184404000Y-106426000D02*
X182626000Y-104648000D01*
X182118000Y-104648000D02*
X182118000Y-104394000D01*
X182626000Y-104648000D02*
X182118000Y-104648000D01*
X182847000Y-104361000D02*
X184404000Y-105918000D01*
X182847000Y-104361000D02*
X182814000Y-104394000D01*
X184404000Y-105918000D02*
X184404000Y-106426000D01*
X181290000Y-104394000D02*
X183322000Y-106426000D01*
X183322000Y-106426000D02*
X184404000Y-106426000D01*
X182118000Y-104394000D02*
X181290000Y-104394000D01*
X181577000Y-132555000D02*
X184183000Y-132555000D01*
X184183000Y-132555000D02*
X184404000Y-132334000D01*
X181036000Y-133096000D02*
X181577000Y-132555000D01*
X181577000Y-132555000D02*
X181798000Y-132334000D01*
X181798000Y-132334000D02*
X184404000Y-132334000D01*
X181036000Y-133096000D02*
X183642000Y-133096000D01*
X183642000Y-133096000D02*
X184404000Y-132334000D01*
X182118000Y-124460000D02*
X182814000Y-124460000D01*
X182814000Y-124460000D02*
X183896000Y-123378000D01*
X181290000Y-124460000D02*
X182118000Y-124460000D01*
X182118000Y-124460000D02*
X184404000Y-126746000D01*
X181290000Y-124460000D02*
X183576000Y-126746000D01*
X183576000Y-126746000D02*
X184404000Y-126746000D01*
D34*
X141478000Y-88646000D02*
X145034000Y-88646000D01*
X145669000Y-84201000D02*
X145669000Y-83058000D01*
X146812000Y-85344000D02*
X145669000Y-84201000D01*
X146812000Y-86868000D02*
X146812000Y-85344000D01*
X145034000Y-88646000D02*
X146812000Y-86868000D01*
D36*
X130556000Y-108474000D02*
X129810000Y-108474000D01*
X128524000Y-112268000D02*
X130048000Y-112268000D01*
X128016000Y-111760000D02*
X128524000Y-112268000D01*
X129810000Y-108474000D02*
X128524000Y-107188000D01*
X132504000Y-112334000D02*
X132438000Y-112268000D01*
X132438000Y-112268000D02*
X130048000Y-112268000D01*
X130048000Y-112268000D02*
X128778000Y-113538000D01*
X128778000Y-113538000D02*
X128778000Y-114062000D01*
X132146000Y-108712000D02*
X131908000Y-108474000D01*
X131908000Y-108474000D02*
X130556000Y-108474000D01*
M02*
