G04 #@! TF.FileFunction,Paste,Top*
%FSLAX46Y46*%
G04 Gerber Fmt 4.6, Leading zero omitted, Abs format (unit mm)*
G04 Created by KiCad (PCBNEW 4.0.5) date 03/08/17 17:48:46*
%MOMM*%
%LPD*%
G01*
G04 APERTURE LIST*
%ADD10C,0.100000*%
%ADD11R,1.250000X1.000000*%
%ADD12R,1.000000X1.250000*%
%ADD13R,2.500000X2.300000*%
%ADD14R,2.300000X2.500000*%
%ADD15R,1.600200X1.198880*%
%ADD16R,1.198880X1.600200*%
%ADD17R,2.032000X1.524000*%
%ADD18R,0.500000X0.900000*%
%ADD19R,0.900000X0.500000*%
%ADD20R,0.700000X1.300000*%
%ADD21R,1.300000X0.700000*%
%ADD22R,1.500000X0.600000*%
%ADD23R,1.800000X0.600000*%
%ADD24R,1.450000X0.450000*%
%ADD25R,1.060000X0.650000*%
%ADD26R,1.524000X2.032000*%
G04 APERTURE END LIST*
D10*
D11*
X156972000Y-86122000D03*
X156972000Y-88122000D03*
X156972000Y-105934000D03*
X156972000Y-107934000D03*
X156972000Y-126254000D03*
X156972000Y-128254000D03*
X158750000Y-86122000D03*
X158750000Y-88122000D03*
X158750000Y-105934000D03*
X158750000Y-107934000D03*
X158750000Y-126254000D03*
X158750000Y-128254000D03*
X161544000Y-82534000D03*
X161544000Y-80534000D03*
X161544000Y-102346000D03*
X161544000Y-100346000D03*
X161544000Y-122666000D03*
X161544000Y-120666000D03*
D12*
X158734000Y-84582000D03*
X156734000Y-84582000D03*
X158734000Y-104394000D03*
X156734000Y-104394000D03*
X158734000Y-124714000D03*
X156734000Y-124714000D03*
D11*
X176784000Y-90186000D03*
X176784000Y-92186000D03*
X176784000Y-110252000D03*
X176784000Y-112252000D03*
X176784000Y-130572000D03*
X176784000Y-132572000D03*
X175006000Y-90186000D03*
X175006000Y-92186000D03*
X175006000Y-110252000D03*
X175006000Y-112252000D03*
X175006000Y-130572000D03*
X175006000Y-132572000D03*
X178054000Y-143494000D03*
X178054000Y-141494000D03*
X174752000Y-147812000D03*
X174752000Y-145812000D03*
D12*
X141208000Y-82042000D03*
X139208000Y-82042000D03*
X156956000Y-152654000D03*
X154956000Y-152654000D03*
D11*
X155702000Y-146066000D03*
X155702000Y-148066000D03*
D12*
X156956000Y-150876000D03*
X154956000Y-150876000D03*
X140192000Y-109220000D03*
X138192000Y-109220000D03*
X136668000Y-116332000D03*
X138668000Y-116332000D03*
X138192000Y-103124000D03*
X140192000Y-103124000D03*
D11*
X143256000Y-109712000D03*
X143256000Y-107712000D03*
D12*
X119745000Y-112395000D03*
X117745000Y-112395000D03*
X119618000Y-101600000D03*
X117618000Y-101600000D03*
X119872000Y-123444000D03*
X117872000Y-123444000D03*
D11*
X190500000Y-153146000D03*
X190500000Y-151146000D03*
X188722000Y-153146000D03*
X188722000Y-151146000D03*
D12*
X185944000Y-67564000D03*
X187944000Y-67564000D03*
D11*
X186944000Y-153146000D03*
X186944000Y-151146000D03*
D12*
X152162000Y-75438000D03*
X154162000Y-75438000D03*
X152162000Y-77724000D03*
X154162000Y-77724000D03*
X185944000Y-69342000D03*
X187944000Y-69342000D03*
X152162000Y-73406000D03*
X154162000Y-73406000D03*
X185944000Y-65786000D03*
X187944000Y-65786000D03*
X211312000Y-66040000D03*
X209312000Y-66040000D03*
X207756000Y-66040000D03*
X205756000Y-66040000D03*
X207756000Y-67818000D03*
X205756000Y-67818000D03*
X211312000Y-67818000D03*
X209312000Y-67818000D03*
D11*
X175260000Y-84090000D03*
X175260000Y-86090000D03*
X174752000Y-103902000D03*
X174752000Y-105902000D03*
X174752000Y-124222000D03*
X174752000Y-126222000D03*
D13*
X176920000Y-81026000D03*
X181220000Y-81026000D03*
X176920000Y-100838000D03*
X181220000Y-100838000D03*
X176920000Y-121158000D03*
X181220000Y-121158000D03*
D14*
X171704000Y-81144000D03*
X171704000Y-76844000D03*
X171704000Y-100956000D03*
X171704000Y-96656000D03*
X171704000Y-121276000D03*
X171704000Y-116976000D03*
D15*
X146535140Y-77724000D03*
X150136860Y-77724000D03*
D16*
X184150000Y-72666860D03*
X184150000Y-69065140D03*
D17*
X205740000Y-73279000D03*
X205740000Y-69977000D03*
X211328000Y-73279000D03*
X211328000Y-69977000D03*
X186436000Y-75819000D03*
X186436000Y-72517000D03*
D18*
X156222000Y-91694000D03*
X157722000Y-91694000D03*
X156222000Y-93218000D03*
X157722000Y-93218000D03*
X156222000Y-111506000D03*
X157722000Y-111506000D03*
X156222000Y-113030000D03*
X157722000Y-113030000D03*
X156222000Y-131826000D03*
X157722000Y-131826000D03*
X156222000Y-133350000D03*
X157722000Y-133350000D03*
D19*
X154940000Y-134862000D03*
X154940000Y-133362000D03*
X141224000Y-83578000D03*
X141224000Y-85078000D03*
X139446000Y-83578000D03*
X139446000Y-85078000D03*
D20*
X159954000Y-81534000D03*
X158054000Y-81534000D03*
X156906000Y-82804000D03*
X155006000Y-82804000D03*
X158938000Y-89916000D03*
X157038000Y-89916000D03*
X159954000Y-101346000D03*
X158054000Y-101346000D03*
X156906000Y-102616000D03*
X155006000Y-102616000D03*
X158938000Y-109728000D03*
X157038000Y-109728000D03*
X159954000Y-121666000D03*
X158054000Y-121666000D03*
X156906000Y-122936000D03*
X155006000Y-122936000D03*
X158938000Y-130048000D03*
X157038000Y-130048000D03*
D21*
X159258000Y-91506000D03*
X159258000Y-93406000D03*
X159258000Y-111318000D03*
X159258000Y-113218000D03*
X159258000Y-131638000D03*
X159258000Y-133538000D03*
D20*
X186756000Y-147066000D03*
X188656000Y-147066000D03*
X186502000Y-142748000D03*
X188402000Y-142748000D03*
X181930000Y-142748000D03*
X183830000Y-142748000D03*
D21*
X182118000Y-147254000D03*
X182118000Y-145354000D03*
D20*
X172278000Y-140208000D03*
X174178000Y-140208000D03*
D21*
X176276000Y-143444000D03*
X176276000Y-141544000D03*
D20*
X176342000Y-147320000D03*
X178242000Y-147320000D03*
X176342000Y-145288000D03*
X178242000Y-145288000D03*
X157292000Y-146050000D03*
X159192000Y-146050000D03*
X157292000Y-147828000D03*
X159192000Y-147828000D03*
X152212000Y-146050000D03*
X154112000Y-146050000D03*
X152212000Y-148082000D03*
X154112000Y-148082000D03*
X138242000Y-107188000D03*
X140142000Y-107188000D03*
X138242000Y-105156000D03*
X140142000Y-105156000D03*
X117414000Y-117856000D03*
X119314000Y-117856000D03*
X120462000Y-117856000D03*
X122362000Y-117856000D03*
X117160000Y-106934000D03*
X119060000Y-106934000D03*
X120208000Y-106934000D03*
X122108000Y-106934000D03*
X117160000Y-96012000D03*
X119060000Y-96012000D03*
X120208000Y-96012000D03*
X122108000Y-96012000D03*
D21*
X119761000Y-110805000D03*
X119761000Y-108905000D03*
X119634000Y-100010000D03*
X119634000Y-98110000D03*
X119888000Y-121854000D03*
X119888000Y-119954000D03*
D20*
X181290000Y-84328000D03*
X179390000Y-84328000D03*
X181036000Y-92710000D03*
X179136000Y-92710000D03*
X181290000Y-104394000D03*
X179390000Y-104394000D03*
X181036000Y-113030000D03*
X179136000Y-113030000D03*
X181290000Y-124460000D03*
X179390000Y-124460000D03*
X181036000Y-133096000D03*
X179136000Y-133096000D03*
X177358000Y-149098000D03*
X179258000Y-149098000D03*
X175834000Y-150876000D03*
X177734000Y-150876000D03*
X174818000Y-76708000D03*
X176718000Y-76708000D03*
X174818000Y-96774000D03*
X176718000Y-96774000D03*
X175326000Y-116840000D03*
X177226000Y-116840000D03*
D22*
X161974000Y-83947000D03*
X161974000Y-85217000D03*
X161974000Y-86487000D03*
X161974000Y-87757000D03*
X161974000Y-89027000D03*
X161974000Y-90297000D03*
X161974000Y-91567000D03*
X161974000Y-92837000D03*
X171274000Y-92837000D03*
X171274000Y-91567000D03*
X171274000Y-90297000D03*
X171274000Y-89027000D03*
X171274000Y-87757000D03*
X171274000Y-86487000D03*
X171274000Y-85217000D03*
X171274000Y-83947000D03*
X161974000Y-103759000D03*
X161974000Y-105029000D03*
X161974000Y-106299000D03*
X161974000Y-107569000D03*
X161974000Y-108839000D03*
X161974000Y-110109000D03*
X161974000Y-111379000D03*
X161974000Y-112649000D03*
X171274000Y-112649000D03*
X171274000Y-111379000D03*
X171274000Y-110109000D03*
X171274000Y-108839000D03*
X171274000Y-107569000D03*
X171274000Y-106299000D03*
X171274000Y-105029000D03*
X171274000Y-103759000D03*
X161974000Y-124079000D03*
X161974000Y-125349000D03*
X161974000Y-126619000D03*
X161974000Y-127889000D03*
X161974000Y-129159000D03*
X161974000Y-130429000D03*
X161974000Y-131699000D03*
X161974000Y-132969000D03*
X171274000Y-132969000D03*
X171274000Y-131699000D03*
X171274000Y-130429000D03*
X171274000Y-129159000D03*
X171274000Y-127889000D03*
X171274000Y-126619000D03*
X171274000Y-125349000D03*
X171274000Y-124079000D03*
D23*
X161428000Y-148717000D03*
X172328000Y-148717000D03*
X161428000Y-147447000D03*
X172328000Y-147447000D03*
X161428000Y-146177000D03*
X172328000Y-146177000D03*
X161428000Y-144907000D03*
X172328000Y-144907000D03*
D24*
X144440000Y-111293000D03*
X140040000Y-111293000D03*
X144440000Y-111943000D03*
X140040000Y-111943000D03*
X144440000Y-112593000D03*
X140040000Y-112593000D03*
X144440000Y-113243000D03*
X140040000Y-113243000D03*
D25*
X182796000Y-152212000D03*
X182796000Y-153162000D03*
X182796000Y-154112000D03*
X184996000Y-154112000D03*
X184996000Y-152212000D03*
D21*
X183896000Y-103312000D03*
X183896000Y-101412000D03*
X183896000Y-83500000D03*
X183896000Y-81600000D03*
X183896000Y-123378000D03*
X183896000Y-121478000D03*
D12*
X172482000Y-150114000D03*
X174482000Y-150114000D03*
X172482000Y-151892000D03*
X174482000Y-151892000D03*
X172482000Y-153670000D03*
X174482000Y-153670000D03*
D26*
X140843000Y-77216000D03*
X144145000Y-77216000D03*
D17*
X149606000Y-73279000D03*
X149606000Y-69977000D03*
D26*
X145669000Y-83058000D03*
X148971000Y-83058000D03*
D11*
X130556000Y-108474000D03*
X130556000Y-110474000D03*
D12*
X132318000Y-116078000D03*
X130318000Y-116078000D03*
X134350000Y-110490000D03*
X132350000Y-110490000D03*
D11*
X128778000Y-114062000D03*
X128778000Y-116062000D03*
D20*
X132146000Y-108712000D03*
X134046000Y-108712000D03*
D25*
X132504000Y-112334000D03*
X132504000Y-113284000D03*
X132504000Y-114234000D03*
X134704000Y-114234000D03*
X134704000Y-112334000D03*
M02*
