G04 #@! TF.FileFunction,Copper,L2,Bot,Signal*
%FSLAX46Y46*%
G04 Gerber Fmt 4.6, Leading zero omitted, Abs format (unit mm)*
G04 Created by KiCad (PCBNEW 4.0.5) date 03/08/17 17:48:46*
%MOMM*%
%LPD*%
G01*
G04 APERTURE LIST*
%ADD10C,0.100000*%
%ADD11C,3.200400*%
%ADD12R,1.700000X1.700000*%
%ADD13O,1.700000X1.700000*%
%ADD14C,4.000500*%
%ADD15C,0.700000*%
%ADD16C,1.200000*%
%ADD17C,1.000000*%
%ADD18C,0.250000*%
%ADD19C,0.750000*%
%ADD20C,0.600000*%
%ADD21C,0.254000*%
G04 APERTURE END LIST*
D10*
D11*
X226822000Y-96266000D03*
X226822000Y-91186000D03*
X226822000Y-68326000D03*
X210820000Y-121158000D03*
X210820000Y-116078000D03*
X210820000Y-93218000D03*
X226822000Y-145288000D03*
X226822000Y-140208000D03*
X226822000Y-117348000D03*
D12*
X141478000Y-88646000D03*
D13*
X138938000Y-88646000D03*
X136398000Y-88646000D03*
X133858000Y-88646000D03*
X131318000Y-88646000D03*
X128778000Y-88646000D03*
X126238000Y-88646000D03*
X123698000Y-88646000D03*
X121158000Y-88646000D03*
X118618000Y-88646000D03*
D12*
X141478000Y-134366000D03*
D13*
X138938000Y-134366000D03*
X136398000Y-134366000D03*
X133858000Y-134366000D03*
X131318000Y-134366000D03*
X128778000Y-134366000D03*
X126238000Y-134366000D03*
X123698000Y-134366000D03*
X121158000Y-134366000D03*
X118618000Y-134366000D03*
D12*
X141478000Y-91186000D03*
D13*
X138938000Y-91186000D03*
X136398000Y-91186000D03*
X133858000Y-91186000D03*
X131318000Y-91186000D03*
X128778000Y-91186000D03*
X126238000Y-91186000D03*
X123698000Y-91186000D03*
X121158000Y-91186000D03*
X118618000Y-91186000D03*
D12*
X141478000Y-131826000D03*
D13*
X138938000Y-131826000D03*
X136398000Y-131826000D03*
X133858000Y-131826000D03*
X131318000Y-131826000D03*
X128778000Y-131826000D03*
X126238000Y-131826000D03*
X123698000Y-131826000D03*
X121158000Y-131826000D03*
X118618000Y-131826000D03*
D12*
X211074000Y-63246000D03*
D13*
X208534000Y-63246000D03*
X205994000Y-63246000D03*
D12*
X155448000Y-69850000D03*
D13*
X152908000Y-69850000D03*
D12*
X188214000Y-63246000D03*
D13*
X185674000Y-63246000D03*
D12*
X191008000Y-147066000D03*
X193802000Y-142748000D03*
X177546000Y-87376000D03*
X177546000Y-107188000D03*
D14*
X184150000Y-92202000D03*
X184150000Y-86614000D03*
X184404000Y-112014000D03*
X184404000Y-106426000D03*
X184404000Y-132334000D03*
X184404000Y-126746000D03*
D12*
X177800000Y-127508000D03*
D15*
X116078000Y-103378000D03*
X116078000Y-110490000D03*
D16*
X152908000Y-150876000D03*
D17*
X144780000Y-101854000D03*
X148844000Y-101346000D03*
D15*
X123698000Y-96012000D03*
X125730000Y-98044000D03*
X125476000Y-107188000D03*
D17*
X157988000Y-142748000D03*
D15*
X154686000Y-132334000D03*
X154178000Y-127508000D03*
X153924000Y-124714000D03*
X155448000Y-84582000D03*
X155194000Y-94742000D03*
X154178000Y-107950000D03*
X153924000Y-114808000D03*
X155194000Y-104394000D03*
D16*
X152908000Y-80010000D03*
X136906000Y-81788000D03*
D15*
X154178000Y-88646000D03*
D16*
X191008000Y-95250000D03*
X187706000Y-95250000D03*
X186944000Y-115062000D03*
X191516000Y-115062000D03*
X159258000Y-153162000D03*
D15*
X146050000Y-106934000D03*
X161798000Y-134112000D03*
X153924000Y-129794000D03*
X151638000Y-130556000D03*
X151638000Y-126238000D03*
X161798000Y-114046000D03*
X154432000Y-112268000D03*
X151892000Y-111506000D03*
X151638000Y-105918000D03*
X162052000Y-93980000D03*
X154686000Y-92456000D03*
X151638000Y-91694000D03*
X151638000Y-88138000D03*
D16*
X149098000Y-86614000D03*
X194564000Y-134112000D03*
X189992000Y-129540000D03*
X172278000Y-141798000D03*
X170688000Y-155194000D03*
D15*
X148590000Y-141986000D03*
X143510000Y-115062000D03*
X147320000Y-141478000D03*
X136652000Y-114808000D03*
X136906000Y-112522000D03*
X121920000Y-120396000D03*
D16*
X111252000Y-121920000D03*
X133096000Y-121920000D03*
D17*
X173101000Y-85217000D03*
X177038000Y-84836000D03*
X173101000Y-125349000D03*
X176530000Y-124714000D03*
D16*
X144018000Y-87376000D03*
X135890000Y-85852000D03*
D15*
X137414000Y-126746000D03*
X132334000Y-129032000D03*
X145288000Y-133604000D03*
X140970000Y-124206000D03*
X124968000Y-125730000D03*
X135128000Y-127000000D03*
D16*
X159512000Y-137160000D03*
X157480000Y-138684000D03*
X202692000Y-138938000D03*
X155956000Y-140208000D03*
D17*
X173228000Y-91694000D03*
X178562000Y-91186000D03*
X173101000Y-111379000D03*
X178562000Y-111252000D03*
X173101000Y-131699000D03*
X178562000Y-131826000D03*
X173101000Y-105029000D03*
X176530000Y-104648000D03*
X128016000Y-111760000D03*
X128524000Y-107188000D03*
D18*
X115824000Y-109220000D02*
X116078000Y-109474000D01*
X114808000Y-104648000D02*
X116078000Y-103378000D01*
X114808000Y-108204000D02*
X114808000Y-104648000D01*
X115824000Y-109220000D02*
X114808000Y-108204000D01*
X116078000Y-109474000D02*
X116078000Y-110490000D01*
D19*
X152908000Y-149098000D02*
X152908000Y-150876000D01*
X152908000Y-149098000D02*
X152908000Y-141732000D01*
X152908000Y-141224000D02*
X152908000Y-141732000D01*
X157734000Y-69850000D02*
X155448000Y-69850000D01*
X155448000Y-69850000D02*
X160274000Y-69850000D01*
X208534000Y-63246000D02*
X208534000Y-61214000D01*
X208534000Y-61214000D02*
X207264000Y-59944000D01*
X207264000Y-59944000D02*
X170180000Y-59944000D01*
X170180000Y-59944000D02*
X160274000Y-69850000D01*
D20*
X145288000Y-101346000D02*
X146558000Y-101346000D01*
X144780000Y-101854000D02*
X145288000Y-101346000D01*
X146558000Y-101346000D02*
X148844000Y-101346000D01*
D18*
X123698000Y-96012000D02*
X125730000Y-98044000D01*
X145034000Y-99822000D02*
X146558000Y-101346000D01*
X132842000Y-99822000D02*
X145034000Y-99822000D01*
X125476000Y-107188000D02*
X132842000Y-99822000D01*
D20*
X157988000Y-142748000D02*
X154432000Y-142748000D01*
X154432000Y-142748000D02*
X152908000Y-141224000D01*
D19*
X152908000Y-141224000D02*
X152908000Y-137922000D01*
D20*
X152908000Y-137668000D02*
X152908000Y-137922000D01*
D19*
X152908000Y-130556000D02*
X152908000Y-137922000D01*
D18*
X154686000Y-132334000D02*
X152908000Y-130556000D01*
D19*
X152908000Y-127000000D02*
X152908000Y-126238000D01*
X152908000Y-127000000D02*
X152908000Y-130556000D01*
D18*
X154178000Y-127508000D02*
X152908000Y-126238000D01*
X153924000Y-124714000D02*
X152908000Y-123698000D01*
X152908000Y-87122000D02*
X155448000Y-84582000D01*
X152908000Y-97028000D02*
X155194000Y-94742000D01*
X152908000Y-109220000D02*
X154178000Y-107950000D01*
X153924000Y-114808000D02*
X152908000Y-115824000D01*
X152908000Y-106680000D02*
X153162000Y-106680000D01*
X153162000Y-106680000D02*
X152908000Y-106680000D01*
X152908000Y-103378000D02*
X152908000Y-103632000D01*
X153924000Y-104394000D02*
X152908000Y-103378000D01*
X155194000Y-104394000D02*
X153924000Y-104394000D01*
D19*
X152908000Y-81788000D02*
X152908000Y-80010000D01*
X149098000Y-79502000D02*
X149352000Y-79502000D01*
X139192000Y-79502000D02*
X149098000Y-79502000D01*
X136906000Y-81788000D02*
X139192000Y-79502000D01*
X152146000Y-81026000D02*
X152908000Y-81788000D01*
X150876000Y-81026000D02*
X152146000Y-81026000D01*
X149352000Y-79502000D02*
X150876000Y-81026000D01*
D18*
X154178000Y-88646000D02*
X152908000Y-89916000D01*
D19*
X152908000Y-81788000D02*
X152908000Y-83820000D01*
X152908000Y-83820000D02*
X152908000Y-87122000D01*
X152908000Y-87122000D02*
X152908000Y-89916000D01*
X152908000Y-115062000D02*
X152908000Y-115824000D01*
X152908000Y-115824000D02*
X152908000Y-123698000D01*
X152908000Y-123698000D02*
X152908000Y-126238000D01*
X152908000Y-89916000D02*
X152908000Y-93726000D01*
X152908000Y-93726000D02*
X152908000Y-97028000D01*
X152908000Y-97028000D02*
X152908000Y-103632000D01*
X152908000Y-103632000D02*
X152908000Y-106680000D01*
X152908000Y-106680000D02*
X152908000Y-109220000D01*
X152908000Y-109220000D02*
X152908000Y-115062000D01*
X187706000Y-95250000D02*
X191008000Y-95250000D01*
X186944000Y-115062000D02*
X191516000Y-115062000D01*
X150368000Y-130810000D02*
X150368000Y-129286000D01*
X150368000Y-151130000D02*
X150368000Y-130810000D01*
X150368000Y-151130000D02*
X150368000Y-151384000D01*
X150368000Y-151384000D02*
X152146000Y-153162000D01*
X152146000Y-153162000D02*
X159258000Y-153162000D01*
D18*
X150368000Y-105918000D02*
X149352000Y-106934000D01*
X149352000Y-106934000D02*
X146050000Y-106934000D01*
X161798000Y-134112000D02*
X161798000Y-133604000D01*
X161798000Y-133604000D02*
X160782000Y-132588000D01*
X160782000Y-132588000D02*
X156210000Y-132588000D01*
X156210000Y-132588000D02*
X154432000Y-130810000D01*
X154432000Y-130810000D02*
X154432000Y-130302000D01*
X154432000Y-130302000D02*
X153924000Y-129794000D01*
X151638000Y-130556000D02*
X150368000Y-129286000D01*
X151638000Y-126238000D02*
X150368000Y-124968000D01*
X155448000Y-112268000D02*
X154432000Y-112268000D01*
X160528000Y-112268000D02*
X155448000Y-112268000D01*
X161798000Y-113538000D02*
X160528000Y-112268000D01*
X161798000Y-114046000D02*
X161798000Y-113538000D01*
X151892000Y-111506000D02*
X150368000Y-109982000D01*
X150368000Y-104648000D02*
X151638000Y-105918000D01*
X162052000Y-93980000D02*
X161290000Y-93980000D01*
X161290000Y-93980000D02*
X159766000Y-92456000D01*
X159766000Y-92456000D02*
X154686000Y-92456000D01*
X151638000Y-91694000D02*
X150368000Y-90424000D01*
X151638000Y-88138000D02*
X150368000Y-89408000D01*
D19*
X150368000Y-129286000D02*
X150368000Y-124968000D01*
X150368000Y-124968000D02*
X150368000Y-109982000D01*
X150368000Y-109982000D02*
X150368000Y-109220000D01*
X150368000Y-87884000D02*
X150368000Y-89408000D01*
X150368000Y-89408000D02*
X150368000Y-90424000D01*
X150368000Y-90424000D02*
X150368000Y-104648000D01*
X150368000Y-104648000D02*
X150368000Y-105156000D01*
X150368000Y-105156000D02*
X150368000Y-105918000D01*
X150368000Y-105918000D02*
X150368000Y-109220000D01*
X149098000Y-86614000D02*
X150368000Y-87884000D01*
X189992000Y-129540000D02*
X194564000Y-134112000D01*
X172278000Y-153604000D02*
X170688000Y-155194000D01*
X172278000Y-141798000D02*
X172278000Y-153604000D01*
D18*
X144018000Y-115570000D02*
X143510000Y-115062000D01*
X147066000Y-118618000D02*
X144018000Y-115570000D01*
X147828000Y-129032000D02*
X147828000Y-126746000D01*
X148590000Y-141986000D02*
X148590000Y-131318000D01*
X148590000Y-131318000D02*
X147828000Y-130556000D01*
X147828000Y-130556000D02*
X147828000Y-129032000D01*
X147828000Y-126746000D02*
X147066000Y-125984000D01*
X147066000Y-125984000D02*
X147066000Y-118618000D01*
X143002000Y-116586000D02*
X141224000Y-114808000D01*
X136652000Y-113284000D02*
X138176000Y-114808000D01*
X138176000Y-114808000D02*
X140208000Y-114808000D01*
X146050000Y-119634000D02*
X143002000Y-116586000D01*
X147320000Y-132334000D02*
X147320000Y-132080000D01*
X147320000Y-141478000D02*
X147320000Y-132334000D01*
X146812000Y-127762000D02*
X146050000Y-127000000D01*
X146812000Y-131572000D02*
X146812000Y-127762000D01*
X147320000Y-132080000D02*
X146812000Y-131572000D01*
X146050000Y-127000000D02*
X146050000Y-119634000D01*
X141224000Y-114808000D02*
X140208000Y-114808000D01*
X136652000Y-114808000D02*
X136652000Y-113284000D01*
X136652000Y-113284000D02*
X136652000Y-112776000D01*
X136652000Y-112776000D02*
X136668000Y-112760000D01*
X136668000Y-112760000D02*
X136906000Y-112522000D01*
X124460000Y-113284000D02*
X124460000Y-113030000D01*
X121412000Y-116332000D02*
X121412000Y-119380000D01*
X124460000Y-100584000D02*
X124460000Y-113030000D01*
X124206000Y-113538000D02*
X121412000Y-116332000D01*
X124460000Y-100584000D02*
X133858000Y-91186000D01*
X121412000Y-119888000D02*
X121920000Y-120396000D01*
X121412000Y-119380000D02*
X121412000Y-119888000D01*
X124206000Y-113538000D02*
X124460000Y-113284000D01*
D19*
X111252000Y-121920000D02*
X133096000Y-121920000D01*
D20*
X176276000Y-85090000D02*
X176784000Y-85090000D01*
X176022000Y-85090000D02*
X176276000Y-85090000D01*
X173101000Y-85217000D02*
X173228000Y-85090000D01*
X173228000Y-85090000D02*
X176022000Y-85090000D01*
X176784000Y-85090000D02*
X177038000Y-84836000D01*
X176022000Y-125222000D02*
X176530000Y-124714000D01*
X173228000Y-125222000D02*
X176022000Y-125222000D01*
X173101000Y-125349000D02*
X173228000Y-125222000D01*
D19*
X143256000Y-91186000D02*
X144018000Y-90424000D01*
X144018000Y-90424000D02*
X144018000Y-87376000D01*
X143256000Y-91186000D02*
X141478000Y-91186000D01*
X145796000Y-90932000D02*
X146050000Y-90678000D01*
X143256000Y-93472000D02*
X145796000Y-90932000D01*
X138938000Y-91186000D02*
X138938000Y-92710000D01*
X138938000Y-92710000D02*
X139700000Y-93472000D01*
X139700000Y-93472000D02*
X143256000Y-93472000D01*
X146050000Y-87122000D02*
X144780000Y-85852000D01*
X146050000Y-90678000D02*
X146050000Y-87122000D01*
X144780000Y-85852000D02*
X135890000Y-85852000D01*
D18*
X137414000Y-126746000D02*
X136652000Y-127508000D01*
X133858000Y-129540000D02*
X133858000Y-131826000D01*
X135890000Y-127508000D02*
X133858000Y-129540000D01*
X136652000Y-127508000D02*
X135890000Y-127508000D01*
X131064000Y-129032000D02*
X130556000Y-129540000D01*
X132334000Y-129032000D02*
X131064000Y-129032000D01*
X128778000Y-131318000D02*
X130556000Y-129540000D01*
X128778000Y-131318000D02*
X128778000Y-131826000D01*
X124968000Y-133096000D02*
X123698000Y-131826000D01*
X124968000Y-135636000D02*
X124968000Y-133096000D01*
X125476000Y-136144000D02*
X124968000Y-135636000D01*
X144272000Y-136144000D02*
X125476000Y-136144000D01*
X145288000Y-135128000D02*
X144272000Y-136144000D01*
X145288000Y-133604000D02*
X145288000Y-135128000D01*
X140208000Y-124206000D02*
X139954000Y-124206000D01*
X140970000Y-124206000D02*
X140208000Y-124206000D01*
X132842000Y-125730000D02*
X124968000Y-125730000D01*
X133096000Y-125730000D02*
X132842000Y-125730000D01*
X136906000Y-121920000D02*
X133096000Y-125730000D01*
X137668000Y-121920000D02*
X136906000Y-121920000D01*
X139954000Y-124206000D02*
X137668000Y-121920000D01*
X123444000Y-127000000D02*
X118618000Y-131826000D01*
X132588000Y-127000000D02*
X123444000Y-127000000D01*
X133350000Y-127762000D02*
X132588000Y-127000000D01*
X134366000Y-127762000D02*
X133350000Y-127762000D01*
X135128000Y-127000000D02*
X134366000Y-127762000D01*
D19*
X160782000Y-137160000D02*
X159512000Y-137160000D01*
X203454000Y-137160000D02*
X216408000Y-124206000D01*
X218694000Y-124206000D02*
X221234000Y-121666000D01*
X216408000Y-124206000D02*
X218694000Y-124206000D01*
X203454000Y-137160000D02*
X160782000Y-137160000D01*
X221234000Y-101854000D02*
X221234000Y-121666000D01*
X226822000Y-96266000D02*
X221234000Y-101854000D01*
X160782000Y-138430000D02*
X160528000Y-138684000D01*
X200660000Y-138430000D02*
X200914000Y-138430000D01*
X200660000Y-138430000D02*
X160782000Y-138430000D01*
X160528000Y-138684000D02*
X157480000Y-138684000D01*
X202184000Y-138430000D02*
X200914000Y-138430000D01*
X202692000Y-138938000D02*
X202184000Y-138430000D01*
X162052000Y-139700000D02*
X161544000Y-140208000D01*
X226822000Y-145288000D02*
X205232000Y-145288000D01*
X199644000Y-139700000D02*
X162052000Y-139700000D01*
X205232000Y-145288000D02*
X199644000Y-139700000D01*
X161544000Y-140208000D02*
X155956000Y-140208000D01*
D20*
X173736000Y-91186000D02*
X173228000Y-91694000D01*
X178562000Y-91186000D02*
X173736000Y-91186000D01*
X178054000Y-111252000D02*
X178562000Y-111252000D01*
X173101000Y-111379000D02*
X173228000Y-111252000D01*
X173228000Y-111252000D02*
X178054000Y-111252000D01*
X178054000Y-131572000D02*
X178308000Y-131572000D01*
X173101000Y-131699000D02*
X173228000Y-131572000D01*
X173228000Y-131572000D02*
X178054000Y-131572000D01*
X178308000Y-131572000D02*
X178562000Y-131826000D01*
X173101000Y-105029000D02*
X173228000Y-104902000D01*
X176276000Y-104902000D02*
X176530000Y-104648000D01*
X173228000Y-104902000D02*
X176276000Y-104902000D01*
X128016000Y-107696000D02*
X128016000Y-111760000D01*
X128524000Y-107188000D02*
X128016000Y-107696000D01*
D21*
G36*
X198247000Y-156262000D02*
X171577000Y-156262000D01*
X171577000Y-156051581D01*
X171734371Y-155894485D01*
X171922785Y-155440734D01*
X171922831Y-155387525D01*
X172992178Y-154318178D01*
X173211118Y-153990510D01*
X173288001Y-153604000D01*
X173288000Y-153603995D01*
X173288000Y-146216000D01*
X189510560Y-146216000D01*
X189510560Y-147916000D01*
X189554838Y-148151317D01*
X189693910Y-148367441D01*
X189906110Y-148512431D01*
X190158000Y-148563440D01*
X191858000Y-148563440D01*
X192093317Y-148519162D01*
X192309441Y-148380090D01*
X192454431Y-148167890D01*
X192505440Y-147916000D01*
X192505440Y-146216000D01*
X192461162Y-145980683D01*
X192322090Y-145764559D01*
X192109890Y-145619569D01*
X191858000Y-145568560D01*
X190158000Y-145568560D01*
X189922683Y-145612838D01*
X189706559Y-145751910D01*
X189561569Y-145964110D01*
X189510560Y-146216000D01*
X173288000Y-146216000D01*
X173288000Y-143033750D01*
X192317000Y-143033750D01*
X192317000Y-143724310D01*
X192413673Y-143957699D01*
X192592302Y-144136327D01*
X192825691Y-144233000D01*
X193516250Y-144233000D01*
X193675000Y-144074250D01*
X193675000Y-142875000D01*
X193929000Y-142875000D01*
X193929000Y-144074250D01*
X194087750Y-144233000D01*
X194778309Y-144233000D01*
X195011698Y-144136327D01*
X195190327Y-143957699D01*
X195287000Y-143724310D01*
X195287000Y-143033750D01*
X195128250Y-142875000D01*
X193929000Y-142875000D01*
X193675000Y-142875000D01*
X192475750Y-142875000D01*
X192317000Y-143033750D01*
X173288000Y-143033750D01*
X173288000Y-142534793D01*
X173324371Y-142498485D01*
X173512785Y-142044734D01*
X173513023Y-141771690D01*
X192317000Y-141771690D01*
X192317000Y-142462250D01*
X192475750Y-142621000D01*
X193675000Y-142621000D01*
X193675000Y-141421750D01*
X193929000Y-141421750D01*
X193929000Y-142621000D01*
X195128250Y-142621000D01*
X195287000Y-142462250D01*
X195287000Y-141771690D01*
X195190327Y-141538301D01*
X195011698Y-141359673D01*
X194778309Y-141263000D01*
X194087750Y-141263000D01*
X193929000Y-141421750D01*
X193675000Y-141421750D01*
X193516250Y-141263000D01*
X192825691Y-141263000D01*
X192592302Y-141359673D01*
X192413673Y-141538301D01*
X192317000Y-141771690D01*
X173513023Y-141771690D01*
X173513214Y-141553421D01*
X173325592Y-141099343D01*
X172978485Y-140751629D01*
X172878231Y-140710000D01*
X198247000Y-140710000D01*
X198247000Y-156262000D01*
X198247000Y-156262000D01*
G37*
X198247000Y-156262000D02*
X171577000Y-156262000D01*
X171577000Y-156051581D01*
X171734371Y-155894485D01*
X171922785Y-155440734D01*
X171922831Y-155387525D01*
X172992178Y-154318178D01*
X173211118Y-153990510D01*
X173288001Y-153604000D01*
X173288000Y-153603995D01*
X173288000Y-146216000D01*
X189510560Y-146216000D01*
X189510560Y-147916000D01*
X189554838Y-148151317D01*
X189693910Y-148367441D01*
X189906110Y-148512431D01*
X190158000Y-148563440D01*
X191858000Y-148563440D01*
X192093317Y-148519162D01*
X192309441Y-148380090D01*
X192454431Y-148167890D01*
X192505440Y-147916000D01*
X192505440Y-146216000D01*
X192461162Y-145980683D01*
X192322090Y-145764559D01*
X192109890Y-145619569D01*
X191858000Y-145568560D01*
X190158000Y-145568560D01*
X189922683Y-145612838D01*
X189706559Y-145751910D01*
X189561569Y-145964110D01*
X189510560Y-146216000D01*
X173288000Y-146216000D01*
X173288000Y-143033750D01*
X192317000Y-143033750D01*
X192317000Y-143724310D01*
X192413673Y-143957699D01*
X192592302Y-144136327D01*
X192825691Y-144233000D01*
X193516250Y-144233000D01*
X193675000Y-144074250D01*
X193675000Y-142875000D01*
X193929000Y-142875000D01*
X193929000Y-144074250D01*
X194087750Y-144233000D01*
X194778309Y-144233000D01*
X195011698Y-144136327D01*
X195190327Y-143957699D01*
X195287000Y-143724310D01*
X195287000Y-143033750D01*
X195128250Y-142875000D01*
X193929000Y-142875000D01*
X193675000Y-142875000D01*
X192475750Y-142875000D01*
X192317000Y-143033750D01*
X173288000Y-143033750D01*
X173288000Y-142534793D01*
X173324371Y-142498485D01*
X173512785Y-142044734D01*
X173513023Y-141771690D01*
X192317000Y-141771690D01*
X192317000Y-142462250D01*
X192475750Y-142621000D01*
X193675000Y-142621000D01*
X193675000Y-141421750D01*
X193929000Y-141421750D01*
X193929000Y-142621000D01*
X195128250Y-142621000D01*
X195287000Y-142462250D01*
X195287000Y-141771690D01*
X195190327Y-141538301D01*
X195011698Y-141359673D01*
X194778309Y-141263000D01*
X194087750Y-141263000D01*
X193929000Y-141421750D01*
X193675000Y-141421750D01*
X193516250Y-141263000D01*
X192825691Y-141263000D01*
X192592302Y-141359673D01*
X192413673Y-141538301D01*
X192317000Y-141771690D01*
X173513023Y-141771690D01*
X173513214Y-141553421D01*
X173325592Y-141099343D01*
X172978485Y-140751629D01*
X172878231Y-140710000D01*
X198247000Y-140710000D01*
X198247000Y-156262000D01*
G36*
X195199000Y-132080000D02*
X195209006Y-132129410D01*
X195229574Y-132162651D01*
X198247000Y-135682981D01*
X198247000Y-136150000D01*
X170815000Y-136150000D01*
X170815000Y-131923775D01*
X171965803Y-131923775D01*
X172138233Y-132341086D01*
X172457235Y-132660645D01*
X172874244Y-132833803D01*
X173325775Y-132834197D01*
X173743086Y-132661767D01*
X173898123Y-132507000D01*
X177638079Y-132507000D01*
X177918235Y-132787645D01*
X178335244Y-132960803D01*
X178786775Y-132961197D01*
X179041651Y-132855884D01*
X181768293Y-132855884D01*
X182168641Y-133824799D01*
X182909302Y-134566754D01*
X183877517Y-134968792D01*
X184925884Y-134969707D01*
X185894799Y-134569359D01*
X186636754Y-133828698D01*
X187038792Y-132860483D01*
X187039707Y-131812116D01*
X186639359Y-130843201D01*
X185898698Y-130101246D01*
X185136080Y-129784579D01*
X188756786Y-129784579D01*
X188944408Y-130238657D01*
X189291515Y-130586371D01*
X189745266Y-130774785D01*
X189798475Y-130774831D01*
X193328831Y-134305187D01*
X193328786Y-134356579D01*
X193516408Y-134810657D01*
X193863515Y-135158371D01*
X194317266Y-135346785D01*
X194808579Y-135347214D01*
X195262657Y-135159592D01*
X195610371Y-134812485D01*
X195798785Y-134358734D01*
X195799214Y-133867421D01*
X195611592Y-133413343D01*
X195264485Y-133065629D01*
X194810734Y-132877215D01*
X194757525Y-132877169D01*
X191227169Y-129346813D01*
X191227214Y-129295421D01*
X191039592Y-128841343D01*
X190692485Y-128493629D01*
X190238734Y-128305215D01*
X189747421Y-128304786D01*
X189293343Y-128492408D01*
X188945629Y-128839515D01*
X188757215Y-129293266D01*
X188756786Y-129784579D01*
X185136080Y-129784579D01*
X184930483Y-129699208D01*
X183882116Y-129698293D01*
X182913201Y-130098641D01*
X182171246Y-130839302D01*
X181769208Y-131807517D01*
X181768293Y-132855884D01*
X179041651Y-132855884D01*
X179204086Y-132788767D01*
X179523645Y-132469765D01*
X179696803Y-132052756D01*
X179697197Y-131601225D01*
X179524767Y-131183914D01*
X179205765Y-130864355D01*
X178788756Y-130691197D01*
X178579548Y-130691014D01*
X178308000Y-130637000D01*
X173503084Y-130637000D01*
X173327756Y-130564197D01*
X172876225Y-130563803D01*
X172458914Y-130736233D01*
X172139355Y-131055235D01*
X171966197Y-131472244D01*
X171965803Y-131923775D01*
X170815000Y-131923775D01*
X170815000Y-126658000D01*
X176302560Y-126658000D01*
X176302560Y-128358000D01*
X176346838Y-128593317D01*
X176485910Y-128809441D01*
X176698110Y-128954431D01*
X176950000Y-129005440D01*
X178650000Y-129005440D01*
X178885317Y-128961162D01*
X179101441Y-128822090D01*
X179246431Y-128609890D01*
X179297440Y-128358000D01*
X179297440Y-127267884D01*
X181768293Y-127267884D01*
X182168641Y-128236799D01*
X182909302Y-128978754D01*
X183877517Y-129380792D01*
X184925884Y-129381707D01*
X185894799Y-128981359D01*
X186636754Y-128240698D01*
X187038792Y-127272483D01*
X187039707Y-126224116D01*
X186639359Y-125255201D01*
X185898698Y-124513246D01*
X184930483Y-124111208D01*
X183882116Y-124110293D01*
X182913201Y-124510641D01*
X182171246Y-125251302D01*
X181769208Y-126219517D01*
X181768293Y-127267884D01*
X179297440Y-127267884D01*
X179297440Y-126658000D01*
X179253162Y-126422683D01*
X179114090Y-126206559D01*
X178901890Y-126061569D01*
X178650000Y-126010560D01*
X176950000Y-126010560D01*
X176714683Y-126054838D01*
X176498559Y-126193910D01*
X176353569Y-126406110D01*
X176302560Y-126658000D01*
X170815000Y-126658000D01*
X170815000Y-125573775D01*
X171965803Y-125573775D01*
X172138233Y-125991086D01*
X172457235Y-126310645D01*
X172874244Y-126483803D01*
X173325775Y-126484197D01*
X173743086Y-126311767D01*
X173898123Y-126157000D01*
X176022000Y-126157000D01*
X176379809Y-126085827D01*
X176683145Y-125883145D01*
X176717126Y-125849164D01*
X176754775Y-125849197D01*
X177172086Y-125676767D01*
X177491645Y-125357765D01*
X177664803Y-124940756D01*
X177665197Y-124489225D01*
X177492767Y-124071914D01*
X177173765Y-123752355D01*
X176756756Y-123579197D01*
X176305225Y-123578803D01*
X175887914Y-123751233D01*
X175568355Y-124070235D01*
X175478346Y-124287000D01*
X173503084Y-124287000D01*
X173327756Y-124214197D01*
X172876225Y-124213803D01*
X172458914Y-124386233D01*
X172139355Y-124705235D01*
X171966197Y-125122244D01*
X171965803Y-125573775D01*
X170815000Y-125573775D01*
X170815000Y-112535884D01*
X181768293Y-112535884D01*
X182168641Y-113504799D01*
X182909302Y-114246754D01*
X183877517Y-114648792D01*
X184925884Y-114649707D01*
X185894799Y-114249359D01*
X186636754Y-113508698D01*
X187038792Y-112540483D01*
X187039707Y-111492116D01*
X186639359Y-110523201D01*
X185898698Y-109781246D01*
X184930483Y-109379208D01*
X183882116Y-109378293D01*
X182913201Y-109778641D01*
X182171246Y-110519302D01*
X181769208Y-111487517D01*
X181768293Y-112535884D01*
X170815000Y-112535884D01*
X170815000Y-111603775D01*
X171965803Y-111603775D01*
X172138233Y-112021086D01*
X172457235Y-112340645D01*
X172874244Y-112513803D01*
X173325775Y-112514197D01*
X173743086Y-112341767D01*
X173898123Y-112187000D01*
X177891636Y-112187000D01*
X177918235Y-112213645D01*
X178335244Y-112386803D01*
X178786775Y-112387197D01*
X179204086Y-112214767D01*
X179523645Y-111895765D01*
X179696803Y-111478756D01*
X179697197Y-111027225D01*
X179524767Y-110609914D01*
X179205765Y-110290355D01*
X178788756Y-110117197D01*
X178337225Y-110116803D01*
X177919914Y-110289233D01*
X177892099Y-110317000D01*
X173503084Y-110317000D01*
X173327756Y-110244197D01*
X172876225Y-110243803D01*
X172458914Y-110416233D01*
X172139355Y-110735235D01*
X171966197Y-111152244D01*
X171965803Y-111603775D01*
X170815000Y-111603775D01*
X170815000Y-105253775D01*
X171965803Y-105253775D01*
X172138233Y-105671086D01*
X172457235Y-105990645D01*
X172874244Y-106163803D01*
X173325775Y-106164197D01*
X173743086Y-105991767D01*
X173898123Y-105837000D01*
X176276000Y-105837000D01*
X176313516Y-105829538D01*
X176244559Y-105873910D01*
X176099569Y-106086110D01*
X176048560Y-106338000D01*
X176048560Y-108038000D01*
X176092838Y-108273317D01*
X176231910Y-108489441D01*
X176444110Y-108634431D01*
X176696000Y-108685440D01*
X178396000Y-108685440D01*
X178631317Y-108641162D01*
X178847441Y-108502090D01*
X178992431Y-108289890D01*
X179043440Y-108038000D01*
X179043440Y-106947884D01*
X181768293Y-106947884D01*
X182168641Y-107916799D01*
X182909302Y-108658754D01*
X183877517Y-109060792D01*
X184925884Y-109061707D01*
X185894799Y-108661359D01*
X186636754Y-107920698D01*
X187038792Y-106952483D01*
X187039707Y-105904116D01*
X186639359Y-104935201D01*
X185898698Y-104193246D01*
X184930483Y-103791208D01*
X183882116Y-103790293D01*
X182913201Y-104190641D01*
X182171246Y-104931302D01*
X181769208Y-105899517D01*
X181768293Y-106947884D01*
X179043440Y-106947884D01*
X179043440Y-106338000D01*
X178999162Y-106102683D01*
X178860090Y-105886559D01*
X178647890Y-105741569D01*
X178396000Y-105690560D01*
X176978973Y-105690560D01*
X177172086Y-105610767D01*
X177491645Y-105291765D01*
X177664803Y-104874756D01*
X177665197Y-104423225D01*
X177492767Y-104005914D01*
X177173765Y-103686355D01*
X176756756Y-103513197D01*
X176305225Y-103512803D01*
X175887914Y-103685233D01*
X175605655Y-103967000D01*
X173503084Y-103967000D01*
X173327756Y-103894197D01*
X172876225Y-103893803D01*
X172458914Y-104066233D01*
X172139355Y-104385235D01*
X171966197Y-104802244D01*
X171965803Y-105253775D01*
X170815000Y-105253775D01*
X170815000Y-91918775D01*
X172092803Y-91918775D01*
X172265233Y-92336086D01*
X172584235Y-92655645D01*
X173001244Y-92828803D01*
X173452775Y-92829197D01*
X173707651Y-92723884D01*
X181514293Y-92723884D01*
X181914641Y-93692799D01*
X182655302Y-94434754D01*
X183623517Y-94836792D01*
X184671884Y-94837707D01*
X185640799Y-94437359D01*
X186382754Y-93696698D01*
X186784792Y-92728483D01*
X186785707Y-91680116D01*
X186385359Y-90711201D01*
X185644698Y-89969246D01*
X184676483Y-89567208D01*
X183628116Y-89566293D01*
X182659201Y-89966641D01*
X181917246Y-90707302D01*
X181515208Y-91675517D01*
X181514293Y-92723884D01*
X173707651Y-92723884D01*
X173870086Y-92656767D01*
X174189645Y-92337765D01*
X174279654Y-92121000D01*
X177891636Y-92121000D01*
X177918235Y-92147645D01*
X178335244Y-92320803D01*
X178786775Y-92321197D01*
X179204086Y-92148767D01*
X179523645Y-91829765D01*
X179696803Y-91412756D01*
X179697197Y-90961225D01*
X179524767Y-90543914D01*
X179205765Y-90224355D01*
X178788756Y-90051197D01*
X178337225Y-90050803D01*
X177919914Y-90223233D01*
X177892099Y-90251000D01*
X173736000Y-90251000D01*
X173378191Y-90322173D01*
X173074855Y-90524855D01*
X173074853Y-90524858D01*
X173040875Y-90558836D01*
X173003225Y-90558803D01*
X172585914Y-90731233D01*
X172266355Y-91050235D01*
X172093197Y-91467244D01*
X172092803Y-91918775D01*
X170815000Y-91918775D01*
X170815000Y-85441775D01*
X171965803Y-85441775D01*
X172138233Y-85859086D01*
X172457235Y-86178645D01*
X172874244Y-86351803D01*
X173325775Y-86352197D01*
X173743086Y-86179767D01*
X173898123Y-86025000D01*
X176301919Y-86025000D01*
X176244559Y-86061910D01*
X176099569Y-86274110D01*
X176048560Y-86526000D01*
X176048560Y-88226000D01*
X176092838Y-88461317D01*
X176231910Y-88677441D01*
X176444110Y-88822431D01*
X176696000Y-88873440D01*
X178396000Y-88873440D01*
X178631317Y-88829162D01*
X178847441Y-88690090D01*
X178992431Y-88477890D01*
X179043440Y-88226000D01*
X179043440Y-87135884D01*
X181514293Y-87135884D01*
X181914641Y-88104799D01*
X182655302Y-88846754D01*
X183623517Y-89248792D01*
X184671884Y-89249707D01*
X185640799Y-88849359D01*
X186382754Y-88108698D01*
X186784792Y-87140483D01*
X186785707Y-86092116D01*
X186385359Y-85123201D01*
X185644698Y-84381246D01*
X184676483Y-83979208D01*
X183628116Y-83978293D01*
X182659201Y-84378641D01*
X181917246Y-85119302D01*
X181515208Y-86087517D01*
X181514293Y-87135884D01*
X179043440Y-87135884D01*
X179043440Y-86526000D01*
X178999162Y-86290683D01*
X178860090Y-86074559D01*
X178647890Y-85929569D01*
X178396000Y-85878560D01*
X177486973Y-85878560D01*
X177680086Y-85798767D01*
X177999645Y-85479765D01*
X178172803Y-85062756D01*
X178173197Y-84611225D01*
X178000767Y-84193914D01*
X177681765Y-83874355D01*
X177264756Y-83701197D01*
X176813225Y-83700803D01*
X176395914Y-83873233D01*
X176113655Y-84155000D01*
X173503084Y-84155000D01*
X173327756Y-84082197D01*
X172876225Y-84081803D01*
X172458914Y-84254233D01*
X172139355Y-84573235D01*
X171966197Y-84990244D01*
X171965803Y-85441775D01*
X170815000Y-85441775D01*
X170815000Y-74220606D01*
X181818699Y-63216907D01*
X184189000Y-63216907D01*
X184189000Y-63275093D01*
X184302039Y-63843378D01*
X184623946Y-64325147D01*
X185105715Y-64647054D01*
X185674000Y-64760093D01*
X186242285Y-64647054D01*
X186724054Y-64325147D01*
X186753403Y-64281223D01*
X186825673Y-64455698D01*
X187004301Y-64634327D01*
X187237690Y-64731000D01*
X187928250Y-64731000D01*
X188087000Y-64572250D01*
X188087000Y-63373000D01*
X188341000Y-63373000D01*
X188341000Y-64572250D01*
X188499750Y-64731000D01*
X189190310Y-64731000D01*
X189423699Y-64634327D01*
X189602327Y-64455698D01*
X189699000Y-64222309D01*
X189699000Y-63531750D01*
X189540250Y-63373000D01*
X188341000Y-63373000D01*
X188087000Y-63373000D01*
X188067000Y-63373000D01*
X188067000Y-63119000D01*
X188087000Y-63119000D01*
X188087000Y-61919750D01*
X188341000Y-61919750D01*
X188341000Y-63119000D01*
X189540250Y-63119000D01*
X189699000Y-62960250D01*
X189699000Y-62269691D01*
X189602327Y-62036302D01*
X189423699Y-61857673D01*
X189190310Y-61761000D01*
X188499750Y-61761000D01*
X188341000Y-61919750D01*
X188087000Y-61919750D01*
X187928250Y-61761000D01*
X187237690Y-61761000D01*
X187004301Y-61857673D01*
X186825673Y-62036302D01*
X186753403Y-62210777D01*
X186724054Y-62166853D01*
X186242285Y-61844946D01*
X185674000Y-61731907D01*
X185105715Y-61844946D01*
X184623946Y-62166853D01*
X184302039Y-62648622D01*
X184189000Y-63216907D01*
X181818699Y-63216907D01*
X183440606Y-61595000D01*
X195199000Y-61595000D01*
X195199000Y-132080000D01*
X195199000Y-132080000D01*
G37*
X195199000Y-132080000D02*
X195209006Y-132129410D01*
X195229574Y-132162651D01*
X198247000Y-135682981D01*
X198247000Y-136150000D01*
X170815000Y-136150000D01*
X170815000Y-131923775D01*
X171965803Y-131923775D01*
X172138233Y-132341086D01*
X172457235Y-132660645D01*
X172874244Y-132833803D01*
X173325775Y-132834197D01*
X173743086Y-132661767D01*
X173898123Y-132507000D01*
X177638079Y-132507000D01*
X177918235Y-132787645D01*
X178335244Y-132960803D01*
X178786775Y-132961197D01*
X179041651Y-132855884D01*
X181768293Y-132855884D01*
X182168641Y-133824799D01*
X182909302Y-134566754D01*
X183877517Y-134968792D01*
X184925884Y-134969707D01*
X185894799Y-134569359D01*
X186636754Y-133828698D01*
X187038792Y-132860483D01*
X187039707Y-131812116D01*
X186639359Y-130843201D01*
X185898698Y-130101246D01*
X185136080Y-129784579D01*
X188756786Y-129784579D01*
X188944408Y-130238657D01*
X189291515Y-130586371D01*
X189745266Y-130774785D01*
X189798475Y-130774831D01*
X193328831Y-134305187D01*
X193328786Y-134356579D01*
X193516408Y-134810657D01*
X193863515Y-135158371D01*
X194317266Y-135346785D01*
X194808579Y-135347214D01*
X195262657Y-135159592D01*
X195610371Y-134812485D01*
X195798785Y-134358734D01*
X195799214Y-133867421D01*
X195611592Y-133413343D01*
X195264485Y-133065629D01*
X194810734Y-132877215D01*
X194757525Y-132877169D01*
X191227169Y-129346813D01*
X191227214Y-129295421D01*
X191039592Y-128841343D01*
X190692485Y-128493629D01*
X190238734Y-128305215D01*
X189747421Y-128304786D01*
X189293343Y-128492408D01*
X188945629Y-128839515D01*
X188757215Y-129293266D01*
X188756786Y-129784579D01*
X185136080Y-129784579D01*
X184930483Y-129699208D01*
X183882116Y-129698293D01*
X182913201Y-130098641D01*
X182171246Y-130839302D01*
X181769208Y-131807517D01*
X181768293Y-132855884D01*
X179041651Y-132855884D01*
X179204086Y-132788767D01*
X179523645Y-132469765D01*
X179696803Y-132052756D01*
X179697197Y-131601225D01*
X179524767Y-131183914D01*
X179205765Y-130864355D01*
X178788756Y-130691197D01*
X178579548Y-130691014D01*
X178308000Y-130637000D01*
X173503084Y-130637000D01*
X173327756Y-130564197D01*
X172876225Y-130563803D01*
X172458914Y-130736233D01*
X172139355Y-131055235D01*
X171966197Y-131472244D01*
X171965803Y-131923775D01*
X170815000Y-131923775D01*
X170815000Y-126658000D01*
X176302560Y-126658000D01*
X176302560Y-128358000D01*
X176346838Y-128593317D01*
X176485910Y-128809441D01*
X176698110Y-128954431D01*
X176950000Y-129005440D01*
X178650000Y-129005440D01*
X178885317Y-128961162D01*
X179101441Y-128822090D01*
X179246431Y-128609890D01*
X179297440Y-128358000D01*
X179297440Y-127267884D01*
X181768293Y-127267884D01*
X182168641Y-128236799D01*
X182909302Y-128978754D01*
X183877517Y-129380792D01*
X184925884Y-129381707D01*
X185894799Y-128981359D01*
X186636754Y-128240698D01*
X187038792Y-127272483D01*
X187039707Y-126224116D01*
X186639359Y-125255201D01*
X185898698Y-124513246D01*
X184930483Y-124111208D01*
X183882116Y-124110293D01*
X182913201Y-124510641D01*
X182171246Y-125251302D01*
X181769208Y-126219517D01*
X181768293Y-127267884D01*
X179297440Y-127267884D01*
X179297440Y-126658000D01*
X179253162Y-126422683D01*
X179114090Y-126206559D01*
X178901890Y-126061569D01*
X178650000Y-126010560D01*
X176950000Y-126010560D01*
X176714683Y-126054838D01*
X176498559Y-126193910D01*
X176353569Y-126406110D01*
X176302560Y-126658000D01*
X170815000Y-126658000D01*
X170815000Y-125573775D01*
X171965803Y-125573775D01*
X172138233Y-125991086D01*
X172457235Y-126310645D01*
X172874244Y-126483803D01*
X173325775Y-126484197D01*
X173743086Y-126311767D01*
X173898123Y-126157000D01*
X176022000Y-126157000D01*
X176379809Y-126085827D01*
X176683145Y-125883145D01*
X176717126Y-125849164D01*
X176754775Y-125849197D01*
X177172086Y-125676767D01*
X177491645Y-125357765D01*
X177664803Y-124940756D01*
X177665197Y-124489225D01*
X177492767Y-124071914D01*
X177173765Y-123752355D01*
X176756756Y-123579197D01*
X176305225Y-123578803D01*
X175887914Y-123751233D01*
X175568355Y-124070235D01*
X175478346Y-124287000D01*
X173503084Y-124287000D01*
X173327756Y-124214197D01*
X172876225Y-124213803D01*
X172458914Y-124386233D01*
X172139355Y-124705235D01*
X171966197Y-125122244D01*
X171965803Y-125573775D01*
X170815000Y-125573775D01*
X170815000Y-112535884D01*
X181768293Y-112535884D01*
X182168641Y-113504799D01*
X182909302Y-114246754D01*
X183877517Y-114648792D01*
X184925884Y-114649707D01*
X185894799Y-114249359D01*
X186636754Y-113508698D01*
X187038792Y-112540483D01*
X187039707Y-111492116D01*
X186639359Y-110523201D01*
X185898698Y-109781246D01*
X184930483Y-109379208D01*
X183882116Y-109378293D01*
X182913201Y-109778641D01*
X182171246Y-110519302D01*
X181769208Y-111487517D01*
X181768293Y-112535884D01*
X170815000Y-112535884D01*
X170815000Y-111603775D01*
X171965803Y-111603775D01*
X172138233Y-112021086D01*
X172457235Y-112340645D01*
X172874244Y-112513803D01*
X173325775Y-112514197D01*
X173743086Y-112341767D01*
X173898123Y-112187000D01*
X177891636Y-112187000D01*
X177918235Y-112213645D01*
X178335244Y-112386803D01*
X178786775Y-112387197D01*
X179204086Y-112214767D01*
X179523645Y-111895765D01*
X179696803Y-111478756D01*
X179697197Y-111027225D01*
X179524767Y-110609914D01*
X179205765Y-110290355D01*
X178788756Y-110117197D01*
X178337225Y-110116803D01*
X177919914Y-110289233D01*
X177892099Y-110317000D01*
X173503084Y-110317000D01*
X173327756Y-110244197D01*
X172876225Y-110243803D01*
X172458914Y-110416233D01*
X172139355Y-110735235D01*
X171966197Y-111152244D01*
X171965803Y-111603775D01*
X170815000Y-111603775D01*
X170815000Y-105253775D01*
X171965803Y-105253775D01*
X172138233Y-105671086D01*
X172457235Y-105990645D01*
X172874244Y-106163803D01*
X173325775Y-106164197D01*
X173743086Y-105991767D01*
X173898123Y-105837000D01*
X176276000Y-105837000D01*
X176313516Y-105829538D01*
X176244559Y-105873910D01*
X176099569Y-106086110D01*
X176048560Y-106338000D01*
X176048560Y-108038000D01*
X176092838Y-108273317D01*
X176231910Y-108489441D01*
X176444110Y-108634431D01*
X176696000Y-108685440D01*
X178396000Y-108685440D01*
X178631317Y-108641162D01*
X178847441Y-108502090D01*
X178992431Y-108289890D01*
X179043440Y-108038000D01*
X179043440Y-106947884D01*
X181768293Y-106947884D01*
X182168641Y-107916799D01*
X182909302Y-108658754D01*
X183877517Y-109060792D01*
X184925884Y-109061707D01*
X185894799Y-108661359D01*
X186636754Y-107920698D01*
X187038792Y-106952483D01*
X187039707Y-105904116D01*
X186639359Y-104935201D01*
X185898698Y-104193246D01*
X184930483Y-103791208D01*
X183882116Y-103790293D01*
X182913201Y-104190641D01*
X182171246Y-104931302D01*
X181769208Y-105899517D01*
X181768293Y-106947884D01*
X179043440Y-106947884D01*
X179043440Y-106338000D01*
X178999162Y-106102683D01*
X178860090Y-105886559D01*
X178647890Y-105741569D01*
X178396000Y-105690560D01*
X176978973Y-105690560D01*
X177172086Y-105610767D01*
X177491645Y-105291765D01*
X177664803Y-104874756D01*
X177665197Y-104423225D01*
X177492767Y-104005914D01*
X177173765Y-103686355D01*
X176756756Y-103513197D01*
X176305225Y-103512803D01*
X175887914Y-103685233D01*
X175605655Y-103967000D01*
X173503084Y-103967000D01*
X173327756Y-103894197D01*
X172876225Y-103893803D01*
X172458914Y-104066233D01*
X172139355Y-104385235D01*
X171966197Y-104802244D01*
X171965803Y-105253775D01*
X170815000Y-105253775D01*
X170815000Y-91918775D01*
X172092803Y-91918775D01*
X172265233Y-92336086D01*
X172584235Y-92655645D01*
X173001244Y-92828803D01*
X173452775Y-92829197D01*
X173707651Y-92723884D01*
X181514293Y-92723884D01*
X181914641Y-93692799D01*
X182655302Y-94434754D01*
X183623517Y-94836792D01*
X184671884Y-94837707D01*
X185640799Y-94437359D01*
X186382754Y-93696698D01*
X186784792Y-92728483D01*
X186785707Y-91680116D01*
X186385359Y-90711201D01*
X185644698Y-89969246D01*
X184676483Y-89567208D01*
X183628116Y-89566293D01*
X182659201Y-89966641D01*
X181917246Y-90707302D01*
X181515208Y-91675517D01*
X181514293Y-92723884D01*
X173707651Y-92723884D01*
X173870086Y-92656767D01*
X174189645Y-92337765D01*
X174279654Y-92121000D01*
X177891636Y-92121000D01*
X177918235Y-92147645D01*
X178335244Y-92320803D01*
X178786775Y-92321197D01*
X179204086Y-92148767D01*
X179523645Y-91829765D01*
X179696803Y-91412756D01*
X179697197Y-90961225D01*
X179524767Y-90543914D01*
X179205765Y-90224355D01*
X178788756Y-90051197D01*
X178337225Y-90050803D01*
X177919914Y-90223233D01*
X177892099Y-90251000D01*
X173736000Y-90251000D01*
X173378191Y-90322173D01*
X173074855Y-90524855D01*
X173074853Y-90524858D01*
X173040875Y-90558836D01*
X173003225Y-90558803D01*
X172585914Y-90731233D01*
X172266355Y-91050235D01*
X172093197Y-91467244D01*
X172092803Y-91918775D01*
X170815000Y-91918775D01*
X170815000Y-85441775D01*
X171965803Y-85441775D01*
X172138233Y-85859086D01*
X172457235Y-86178645D01*
X172874244Y-86351803D01*
X173325775Y-86352197D01*
X173743086Y-86179767D01*
X173898123Y-86025000D01*
X176301919Y-86025000D01*
X176244559Y-86061910D01*
X176099569Y-86274110D01*
X176048560Y-86526000D01*
X176048560Y-88226000D01*
X176092838Y-88461317D01*
X176231910Y-88677441D01*
X176444110Y-88822431D01*
X176696000Y-88873440D01*
X178396000Y-88873440D01*
X178631317Y-88829162D01*
X178847441Y-88690090D01*
X178992431Y-88477890D01*
X179043440Y-88226000D01*
X179043440Y-87135884D01*
X181514293Y-87135884D01*
X181914641Y-88104799D01*
X182655302Y-88846754D01*
X183623517Y-89248792D01*
X184671884Y-89249707D01*
X185640799Y-88849359D01*
X186382754Y-88108698D01*
X186784792Y-87140483D01*
X186785707Y-86092116D01*
X186385359Y-85123201D01*
X185644698Y-84381246D01*
X184676483Y-83979208D01*
X183628116Y-83978293D01*
X182659201Y-84378641D01*
X181917246Y-85119302D01*
X181515208Y-86087517D01*
X181514293Y-87135884D01*
X179043440Y-87135884D01*
X179043440Y-86526000D01*
X178999162Y-86290683D01*
X178860090Y-86074559D01*
X178647890Y-85929569D01*
X178396000Y-85878560D01*
X177486973Y-85878560D01*
X177680086Y-85798767D01*
X177999645Y-85479765D01*
X178172803Y-85062756D01*
X178173197Y-84611225D01*
X178000767Y-84193914D01*
X177681765Y-83874355D01*
X177264756Y-83701197D01*
X176813225Y-83700803D01*
X176395914Y-83873233D01*
X176113655Y-84155000D01*
X173503084Y-84155000D01*
X173327756Y-84082197D01*
X172876225Y-84081803D01*
X172458914Y-84254233D01*
X172139355Y-84573235D01*
X171966197Y-84990244D01*
X171965803Y-85441775D01*
X170815000Y-85441775D01*
X170815000Y-74220606D01*
X181818699Y-63216907D01*
X184189000Y-63216907D01*
X184189000Y-63275093D01*
X184302039Y-63843378D01*
X184623946Y-64325147D01*
X185105715Y-64647054D01*
X185674000Y-64760093D01*
X186242285Y-64647054D01*
X186724054Y-64325147D01*
X186753403Y-64281223D01*
X186825673Y-64455698D01*
X187004301Y-64634327D01*
X187237690Y-64731000D01*
X187928250Y-64731000D01*
X188087000Y-64572250D01*
X188087000Y-63373000D01*
X188341000Y-63373000D01*
X188341000Y-64572250D01*
X188499750Y-64731000D01*
X189190310Y-64731000D01*
X189423699Y-64634327D01*
X189602327Y-64455698D01*
X189699000Y-64222309D01*
X189699000Y-63531750D01*
X189540250Y-63373000D01*
X188341000Y-63373000D01*
X188087000Y-63373000D01*
X188067000Y-63373000D01*
X188067000Y-63119000D01*
X188087000Y-63119000D01*
X188087000Y-61919750D01*
X188341000Y-61919750D01*
X188341000Y-63119000D01*
X189540250Y-63119000D01*
X189699000Y-62960250D01*
X189699000Y-62269691D01*
X189602327Y-62036302D01*
X189423699Y-61857673D01*
X189190310Y-61761000D01*
X188499750Y-61761000D01*
X188341000Y-61919750D01*
X188087000Y-61919750D01*
X187928250Y-61761000D01*
X187237690Y-61761000D01*
X187004301Y-61857673D01*
X186825673Y-62036302D01*
X186753403Y-62210777D01*
X186724054Y-62166853D01*
X186242285Y-61844946D01*
X185674000Y-61731907D01*
X185105715Y-61844946D01*
X184623946Y-62166853D01*
X184302039Y-62648622D01*
X184189000Y-63216907D01*
X181818699Y-63216907D01*
X183440606Y-61595000D01*
X195199000Y-61595000D01*
X195199000Y-132080000D01*
G36*
X214249000Y-61468000D02*
X214259006Y-61517410D01*
X214287447Y-61559035D01*
X214329841Y-61586315D01*
X214376000Y-61595000D01*
X234569000Y-61595000D01*
X234569000Y-153035000D01*
X204597000Y-153035000D01*
X204597000Y-146055083D01*
X204845490Y-146221118D01*
X205232000Y-146298000D01*
X224820834Y-146298000D01*
X224925985Y-146552485D01*
X225554208Y-147181805D01*
X226375441Y-147522811D01*
X227264658Y-147523587D01*
X228086485Y-147184015D01*
X228715805Y-146555792D01*
X229056811Y-145734559D01*
X229057587Y-144845342D01*
X228718015Y-144023515D01*
X228089792Y-143394195D01*
X227268559Y-143053189D01*
X226379342Y-143052413D01*
X225557515Y-143391985D01*
X224928195Y-144020208D01*
X224821150Y-144278000D01*
X205650356Y-144278000D01*
X204597000Y-143224644D01*
X204597000Y-140650658D01*
X224586413Y-140650658D01*
X224925985Y-141472485D01*
X225554208Y-142101805D01*
X226375441Y-142442811D01*
X227264658Y-142443587D01*
X228086485Y-142104015D01*
X228715805Y-141475792D01*
X229056811Y-140654559D01*
X229057587Y-139765342D01*
X228718015Y-138943515D01*
X228089792Y-138314195D01*
X227268559Y-137973189D01*
X226379342Y-137972413D01*
X225557515Y-138311985D01*
X224928195Y-138940208D01*
X224587189Y-139761441D01*
X224586413Y-140650658D01*
X204597000Y-140650658D01*
X204597000Y-137445356D01*
X216826356Y-125216000D01*
X218694000Y-125216000D01*
X219080510Y-125139118D01*
X219408178Y-124920178D01*
X221948178Y-122380178D01*
X222167118Y-122052511D01*
X222244000Y-121666000D01*
X222244000Y-117790658D01*
X224586413Y-117790658D01*
X224925985Y-118612485D01*
X225554208Y-119241805D01*
X226375441Y-119582811D01*
X227264658Y-119583587D01*
X228086485Y-119244015D01*
X228715805Y-118615792D01*
X229056811Y-117794559D01*
X229057587Y-116905342D01*
X228718015Y-116083515D01*
X228089792Y-115454195D01*
X227268559Y-115113189D01*
X226379342Y-115112413D01*
X225557515Y-115451985D01*
X224928195Y-116080208D01*
X224587189Y-116901441D01*
X224586413Y-117790658D01*
X222244000Y-117790658D01*
X222244000Y-102272356D01*
X226121140Y-98395216D01*
X226375441Y-98500811D01*
X227264658Y-98501587D01*
X228086485Y-98162015D01*
X228715805Y-97533792D01*
X229056811Y-96712559D01*
X229057587Y-95823342D01*
X228718015Y-95001515D01*
X228089792Y-94372195D01*
X227268559Y-94031189D01*
X226379342Y-94030413D01*
X225557515Y-94369985D01*
X224928195Y-94998208D01*
X224587189Y-95819441D01*
X224586413Y-96708658D01*
X224693008Y-96966636D01*
X220519822Y-101139822D01*
X220300882Y-101467490D01*
X220224000Y-101854000D01*
X220224000Y-121247644D01*
X218275644Y-123196000D01*
X216408000Y-123196000D01*
X216021489Y-123272882D01*
X215693822Y-123491822D01*
X204597000Y-134588644D01*
X204597000Y-121600658D01*
X208584413Y-121600658D01*
X208923985Y-122422485D01*
X209552208Y-123051805D01*
X210373441Y-123392811D01*
X211262658Y-123393587D01*
X212084485Y-123054015D01*
X212713805Y-122425792D01*
X213054811Y-121604559D01*
X213055587Y-120715342D01*
X212716015Y-119893515D01*
X212087792Y-119264195D01*
X211266559Y-118923189D01*
X210377342Y-118922413D01*
X209555515Y-119261985D01*
X208926195Y-119890208D01*
X208585189Y-120711441D01*
X208584413Y-121600658D01*
X204597000Y-121600658D01*
X204597000Y-116520658D01*
X208584413Y-116520658D01*
X208923985Y-117342485D01*
X209552208Y-117971805D01*
X210373441Y-118312811D01*
X211262658Y-118313587D01*
X212084485Y-117974015D01*
X212713805Y-117345792D01*
X213054811Y-116524559D01*
X213055587Y-115635342D01*
X212716015Y-114813515D01*
X212087792Y-114184195D01*
X211266559Y-113843189D01*
X210377342Y-113842413D01*
X209555515Y-114181985D01*
X208926195Y-114810208D01*
X208585189Y-115631441D01*
X208584413Y-116520658D01*
X204597000Y-116520658D01*
X204597000Y-93660658D01*
X208584413Y-93660658D01*
X208923985Y-94482485D01*
X209552208Y-95111805D01*
X210373441Y-95452811D01*
X211262658Y-95453587D01*
X212084485Y-95114015D01*
X212713805Y-94485792D01*
X213054811Y-93664559D01*
X213055587Y-92775342D01*
X212716015Y-91953515D01*
X212391725Y-91628658D01*
X224586413Y-91628658D01*
X224925985Y-92450485D01*
X225554208Y-93079805D01*
X226375441Y-93420811D01*
X227264658Y-93421587D01*
X228086485Y-93082015D01*
X228715805Y-92453792D01*
X229056811Y-91632559D01*
X229057587Y-90743342D01*
X228718015Y-89921515D01*
X228089792Y-89292195D01*
X227268559Y-88951189D01*
X226379342Y-88950413D01*
X225557515Y-89289985D01*
X224928195Y-89918208D01*
X224587189Y-90739441D01*
X224586413Y-91628658D01*
X212391725Y-91628658D01*
X212087792Y-91324195D01*
X211266559Y-90983189D01*
X210377342Y-90982413D01*
X209555515Y-91321985D01*
X208926195Y-91950208D01*
X208585189Y-92771441D01*
X208584413Y-93660658D01*
X204597000Y-93660658D01*
X204597000Y-68768658D01*
X224586413Y-68768658D01*
X224925985Y-69590485D01*
X225554208Y-70219805D01*
X226375441Y-70560811D01*
X227264658Y-70561587D01*
X228086485Y-70222015D01*
X228715805Y-69593792D01*
X229056811Y-68772559D01*
X229057587Y-67883342D01*
X228718015Y-67061515D01*
X228089792Y-66432195D01*
X227268559Y-66091189D01*
X226379342Y-66090413D01*
X225557515Y-66429985D01*
X224928195Y-67058208D01*
X224587189Y-67879441D01*
X224586413Y-68768658D01*
X204597000Y-68768658D01*
X204597000Y-63717499D01*
X204622039Y-63843378D01*
X204943946Y-64325147D01*
X205425715Y-64647054D01*
X205994000Y-64760093D01*
X206562285Y-64647054D01*
X207044054Y-64325147D01*
X207271702Y-63984447D01*
X207338817Y-64127358D01*
X207767076Y-64517645D01*
X208177110Y-64687476D01*
X208407000Y-64566155D01*
X208407000Y-63373000D01*
X208387000Y-63373000D01*
X208387000Y-63119000D01*
X208407000Y-63119000D01*
X208407000Y-61925845D01*
X208661000Y-61925845D01*
X208661000Y-63119000D01*
X208681000Y-63119000D01*
X208681000Y-63373000D01*
X208661000Y-63373000D01*
X208661000Y-64566155D01*
X208890890Y-64687476D01*
X209300924Y-64517645D01*
X209603937Y-64241499D01*
X209620838Y-64331317D01*
X209759910Y-64547441D01*
X209972110Y-64692431D01*
X210224000Y-64743440D01*
X211924000Y-64743440D01*
X212159317Y-64699162D01*
X212375441Y-64560090D01*
X212520431Y-64347890D01*
X212571440Y-64096000D01*
X212571440Y-62396000D01*
X212527162Y-62160683D01*
X212388090Y-61944559D01*
X212175890Y-61799569D01*
X211924000Y-61748560D01*
X210224000Y-61748560D01*
X209988683Y-61792838D01*
X209772559Y-61931910D01*
X209627569Y-62144110D01*
X209605699Y-62252107D01*
X209300924Y-61974355D01*
X208890890Y-61804524D01*
X208661000Y-61925845D01*
X208407000Y-61925845D01*
X208177110Y-61804524D01*
X207767076Y-61974355D01*
X207338817Y-62364642D01*
X207271702Y-62507553D01*
X207044054Y-62166853D01*
X206562285Y-61844946D01*
X205994000Y-61731907D01*
X205425715Y-61844946D01*
X204943946Y-62166853D01*
X204622039Y-62648622D01*
X204597000Y-62774501D01*
X204597000Y-59563000D01*
X214249000Y-59563000D01*
X214249000Y-61468000D01*
X214249000Y-61468000D01*
G37*
X214249000Y-61468000D02*
X214259006Y-61517410D01*
X214287447Y-61559035D01*
X214329841Y-61586315D01*
X214376000Y-61595000D01*
X234569000Y-61595000D01*
X234569000Y-153035000D01*
X204597000Y-153035000D01*
X204597000Y-146055083D01*
X204845490Y-146221118D01*
X205232000Y-146298000D01*
X224820834Y-146298000D01*
X224925985Y-146552485D01*
X225554208Y-147181805D01*
X226375441Y-147522811D01*
X227264658Y-147523587D01*
X228086485Y-147184015D01*
X228715805Y-146555792D01*
X229056811Y-145734559D01*
X229057587Y-144845342D01*
X228718015Y-144023515D01*
X228089792Y-143394195D01*
X227268559Y-143053189D01*
X226379342Y-143052413D01*
X225557515Y-143391985D01*
X224928195Y-144020208D01*
X224821150Y-144278000D01*
X205650356Y-144278000D01*
X204597000Y-143224644D01*
X204597000Y-140650658D01*
X224586413Y-140650658D01*
X224925985Y-141472485D01*
X225554208Y-142101805D01*
X226375441Y-142442811D01*
X227264658Y-142443587D01*
X228086485Y-142104015D01*
X228715805Y-141475792D01*
X229056811Y-140654559D01*
X229057587Y-139765342D01*
X228718015Y-138943515D01*
X228089792Y-138314195D01*
X227268559Y-137973189D01*
X226379342Y-137972413D01*
X225557515Y-138311985D01*
X224928195Y-138940208D01*
X224587189Y-139761441D01*
X224586413Y-140650658D01*
X204597000Y-140650658D01*
X204597000Y-137445356D01*
X216826356Y-125216000D01*
X218694000Y-125216000D01*
X219080510Y-125139118D01*
X219408178Y-124920178D01*
X221948178Y-122380178D01*
X222167118Y-122052511D01*
X222244000Y-121666000D01*
X222244000Y-117790658D01*
X224586413Y-117790658D01*
X224925985Y-118612485D01*
X225554208Y-119241805D01*
X226375441Y-119582811D01*
X227264658Y-119583587D01*
X228086485Y-119244015D01*
X228715805Y-118615792D01*
X229056811Y-117794559D01*
X229057587Y-116905342D01*
X228718015Y-116083515D01*
X228089792Y-115454195D01*
X227268559Y-115113189D01*
X226379342Y-115112413D01*
X225557515Y-115451985D01*
X224928195Y-116080208D01*
X224587189Y-116901441D01*
X224586413Y-117790658D01*
X222244000Y-117790658D01*
X222244000Y-102272356D01*
X226121140Y-98395216D01*
X226375441Y-98500811D01*
X227264658Y-98501587D01*
X228086485Y-98162015D01*
X228715805Y-97533792D01*
X229056811Y-96712559D01*
X229057587Y-95823342D01*
X228718015Y-95001515D01*
X228089792Y-94372195D01*
X227268559Y-94031189D01*
X226379342Y-94030413D01*
X225557515Y-94369985D01*
X224928195Y-94998208D01*
X224587189Y-95819441D01*
X224586413Y-96708658D01*
X224693008Y-96966636D01*
X220519822Y-101139822D01*
X220300882Y-101467490D01*
X220224000Y-101854000D01*
X220224000Y-121247644D01*
X218275644Y-123196000D01*
X216408000Y-123196000D01*
X216021489Y-123272882D01*
X215693822Y-123491822D01*
X204597000Y-134588644D01*
X204597000Y-121600658D01*
X208584413Y-121600658D01*
X208923985Y-122422485D01*
X209552208Y-123051805D01*
X210373441Y-123392811D01*
X211262658Y-123393587D01*
X212084485Y-123054015D01*
X212713805Y-122425792D01*
X213054811Y-121604559D01*
X213055587Y-120715342D01*
X212716015Y-119893515D01*
X212087792Y-119264195D01*
X211266559Y-118923189D01*
X210377342Y-118922413D01*
X209555515Y-119261985D01*
X208926195Y-119890208D01*
X208585189Y-120711441D01*
X208584413Y-121600658D01*
X204597000Y-121600658D01*
X204597000Y-116520658D01*
X208584413Y-116520658D01*
X208923985Y-117342485D01*
X209552208Y-117971805D01*
X210373441Y-118312811D01*
X211262658Y-118313587D01*
X212084485Y-117974015D01*
X212713805Y-117345792D01*
X213054811Y-116524559D01*
X213055587Y-115635342D01*
X212716015Y-114813515D01*
X212087792Y-114184195D01*
X211266559Y-113843189D01*
X210377342Y-113842413D01*
X209555515Y-114181985D01*
X208926195Y-114810208D01*
X208585189Y-115631441D01*
X208584413Y-116520658D01*
X204597000Y-116520658D01*
X204597000Y-93660658D01*
X208584413Y-93660658D01*
X208923985Y-94482485D01*
X209552208Y-95111805D01*
X210373441Y-95452811D01*
X211262658Y-95453587D01*
X212084485Y-95114015D01*
X212713805Y-94485792D01*
X213054811Y-93664559D01*
X213055587Y-92775342D01*
X212716015Y-91953515D01*
X212391725Y-91628658D01*
X224586413Y-91628658D01*
X224925985Y-92450485D01*
X225554208Y-93079805D01*
X226375441Y-93420811D01*
X227264658Y-93421587D01*
X228086485Y-93082015D01*
X228715805Y-92453792D01*
X229056811Y-91632559D01*
X229057587Y-90743342D01*
X228718015Y-89921515D01*
X228089792Y-89292195D01*
X227268559Y-88951189D01*
X226379342Y-88950413D01*
X225557515Y-89289985D01*
X224928195Y-89918208D01*
X224587189Y-90739441D01*
X224586413Y-91628658D01*
X212391725Y-91628658D01*
X212087792Y-91324195D01*
X211266559Y-90983189D01*
X210377342Y-90982413D01*
X209555515Y-91321985D01*
X208926195Y-91950208D01*
X208585189Y-92771441D01*
X208584413Y-93660658D01*
X204597000Y-93660658D01*
X204597000Y-68768658D01*
X224586413Y-68768658D01*
X224925985Y-69590485D01*
X225554208Y-70219805D01*
X226375441Y-70560811D01*
X227264658Y-70561587D01*
X228086485Y-70222015D01*
X228715805Y-69593792D01*
X229056811Y-68772559D01*
X229057587Y-67883342D01*
X228718015Y-67061515D01*
X228089792Y-66432195D01*
X227268559Y-66091189D01*
X226379342Y-66090413D01*
X225557515Y-66429985D01*
X224928195Y-67058208D01*
X224587189Y-67879441D01*
X224586413Y-68768658D01*
X204597000Y-68768658D01*
X204597000Y-63717499D01*
X204622039Y-63843378D01*
X204943946Y-64325147D01*
X205425715Y-64647054D01*
X205994000Y-64760093D01*
X206562285Y-64647054D01*
X207044054Y-64325147D01*
X207271702Y-63984447D01*
X207338817Y-64127358D01*
X207767076Y-64517645D01*
X208177110Y-64687476D01*
X208407000Y-64566155D01*
X208407000Y-63373000D01*
X208387000Y-63373000D01*
X208387000Y-63119000D01*
X208407000Y-63119000D01*
X208407000Y-61925845D01*
X208661000Y-61925845D01*
X208661000Y-63119000D01*
X208681000Y-63119000D01*
X208681000Y-63373000D01*
X208661000Y-63373000D01*
X208661000Y-64566155D01*
X208890890Y-64687476D01*
X209300924Y-64517645D01*
X209603937Y-64241499D01*
X209620838Y-64331317D01*
X209759910Y-64547441D01*
X209972110Y-64692431D01*
X210224000Y-64743440D01*
X211924000Y-64743440D01*
X212159317Y-64699162D01*
X212375441Y-64560090D01*
X212520431Y-64347890D01*
X212571440Y-64096000D01*
X212571440Y-62396000D01*
X212527162Y-62160683D01*
X212388090Y-61944559D01*
X212175890Y-61799569D01*
X211924000Y-61748560D01*
X210224000Y-61748560D01*
X209988683Y-61792838D01*
X209772559Y-61931910D01*
X209627569Y-62144110D01*
X209605699Y-62252107D01*
X209300924Y-61974355D01*
X208890890Y-61804524D01*
X208661000Y-61925845D01*
X208407000Y-61925845D01*
X208177110Y-61804524D01*
X207767076Y-61974355D01*
X207338817Y-62364642D01*
X207271702Y-62507553D01*
X207044054Y-62166853D01*
X206562285Y-61844946D01*
X205994000Y-61731907D01*
X205425715Y-61844946D01*
X204943946Y-62166853D01*
X204622039Y-62648622D01*
X204597000Y-62774501D01*
X204597000Y-59563000D01*
X214249000Y-59563000D01*
X214249000Y-61468000D01*
G36*
X162433000Y-93125802D02*
X162238799Y-93045162D01*
X161866833Y-93044838D01*
X161557467Y-93172665D01*
X160303401Y-91918599D01*
X160056839Y-91753852D01*
X159766000Y-91696000D01*
X155248463Y-91696000D01*
X155216327Y-91663808D01*
X154872799Y-91521162D01*
X154500833Y-91520838D01*
X154157057Y-91662883D01*
X153893808Y-91925673D01*
X153751162Y-92269201D01*
X153750838Y-92641167D01*
X153892883Y-92984943D01*
X154155673Y-93248192D01*
X154499201Y-93390838D01*
X154871167Y-93391162D01*
X155214943Y-93249117D01*
X155248118Y-93216000D01*
X159451198Y-93216000D01*
X160752599Y-94517401D01*
X160999160Y-94682148D01*
X161047414Y-94691746D01*
X161290000Y-94740000D01*
X161489537Y-94740000D01*
X161521673Y-94772192D01*
X161865201Y-94914838D01*
X162237167Y-94915162D01*
X162433000Y-94834246D01*
X162433000Y-113146666D01*
X162335401Y-113000599D01*
X161065401Y-111730599D01*
X160818839Y-111565852D01*
X160528000Y-111508000D01*
X154994463Y-111508000D01*
X154962327Y-111475808D01*
X154618799Y-111333162D01*
X154246833Y-111332838D01*
X153903057Y-111474883D01*
X153639808Y-111737673D01*
X153497162Y-112081201D01*
X153496838Y-112453167D01*
X153638883Y-112796943D01*
X153901673Y-113060192D01*
X154245201Y-113202838D01*
X154617167Y-113203162D01*
X154960943Y-113061117D01*
X154994118Y-113028000D01*
X160213198Y-113028000D01*
X160916338Y-113731140D01*
X160863162Y-113859201D01*
X160862838Y-114231167D01*
X161004883Y-114574943D01*
X161267673Y-114838192D01*
X161611201Y-114980838D01*
X161983167Y-114981162D01*
X162326943Y-114839117D01*
X162433000Y-114733245D01*
X162433000Y-133212667D01*
X162335401Y-133066599D01*
X161319401Y-132050599D01*
X161072839Y-131885852D01*
X160782000Y-131828000D01*
X156524802Y-131828000D01*
X155192000Y-130495198D01*
X155192000Y-130302000D01*
X155134148Y-130011161D01*
X154969401Y-129764599D01*
X154859122Y-129654320D01*
X154859162Y-129608833D01*
X154717117Y-129265057D01*
X154454327Y-129001808D01*
X154110799Y-128859162D01*
X153738833Y-128858838D01*
X153395057Y-129000883D01*
X153131808Y-129263673D01*
X152989162Y-129607201D01*
X152988838Y-129979167D01*
X153130883Y-130322943D01*
X153393673Y-130586192D01*
X153672000Y-130701764D01*
X153672000Y-130810000D01*
X153729852Y-131100839D01*
X153894599Y-131347401D01*
X155672599Y-133125401D01*
X155919161Y-133290148D01*
X156210000Y-133348000D01*
X160467198Y-133348000D01*
X160916338Y-133797140D01*
X160863162Y-133925201D01*
X160862838Y-134297167D01*
X161004883Y-134640943D01*
X161267673Y-134904192D01*
X161611201Y-135046838D01*
X161983167Y-135047162D01*
X162326943Y-134905117D01*
X162433000Y-134799245D01*
X162433000Y-136150000D01*
X160248793Y-136150000D01*
X160212485Y-136113629D01*
X159758734Y-135925215D01*
X159267421Y-135924786D01*
X158813343Y-136112408D01*
X158465629Y-136459515D01*
X158277215Y-136913266D01*
X158276786Y-137404579D01*
X158388109Y-137674000D01*
X158216793Y-137674000D01*
X158180485Y-137637629D01*
X157726734Y-137449215D01*
X157235421Y-137448786D01*
X156781343Y-137636408D01*
X156433629Y-137983515D01*
X156245215Y-138437266D01*
X156244786Y-138928579D01*
X156275758Y-139003537D01*
X156202734Y-138973215D01*
X155711421Y-138972786D01*
X155257343Y-139160408D01*
X154909629Y-139507515D01*
X154721215Y-139961266D01*
X154720786Y-140452579D01*
X154908408Y-140906657D01*
X155255515Y-141254371D01*
X155709266Y-141442785D01*
X156200579Y-141443214D01*
X156654657Y-141255592D01*
X156692315Y-141218000D01*
X161544000Y-141218000D01*
X161930510Y-141141118D01*
X162258178Y-140922178D01*
X162433000Y-140747356D01*
X162433000Y-141933394D01*
X162216197Y-142150197D01*
X162188334Y-142192211D01*
X162179000Y-142240000D01*
X162179000Y-155321000D01*
X148388606Y-155321000D01*
X135725803Y-142658197D01*
X135683789Y-142630334D01*
X135636000Y-142621000D01*
X115368606Y-142621000D01*
X110184000Y-137436394D01*
X110184000Y-131796907D01*
X117133000Y-131796907D01*
X117133000Y-131855093D01*
X117246039Y-132423378D01*
X117567946Y-132905147D01*
X117853578Y-133096000D01*
X117567946Y-133286853D01*
X117246039Y-133768622D01*
X117133000Y-134336907D01*
X117133000Y-134395093D01*
X117246039Y-134963378D01*
X117567946Y-135445147D01*
X118049715Y-135767054D01*
X118618000Y-135880093D01*
X119186285Y-135767054D01*
X119668054Y-135445147D01*
X119888000Y-135115974D01*
X120107946Y-135445147D01*
X120589715Y-135767054D01*
X121158000Y-135880093D01*
X121726285Y-135767054D01*
X122208054Y-135445147D01*
X122428000Y-135115974D01*
X122647946Y-135445147D01*
X123129715Y-135767054D01*
X123698000Y-135880093D01*
X124235295Y-135773218D01*
X124265852Y-135926839D01*
X124430599Y-136173401D01*
X124938599Y-136681401D01*
X125185161Y-136846148D01*
X125476000Y-136904000D01*
X144272000Y-136904000D01*
X144562839Y-136846148D01*
X144809401Y-136681401D01*
X145825401Y-135665401D01*
X145990148Y-135418839D01*
X146048000Y-135128000D01*
X146048000Y-134166463D01*
X146080192Y-134134327D01*
X146222838Y-133790799D01*
X146223162Y-133418833D01*
X146081117Y-133075057D01*
X145818327Y-132811808D01*
X145474799Y-132669162D01*
X145102833Y-132668838D01*
X144759057Y-132810883D01*
X144495808Y-133073673D01*
X144353162Y-133417201D01*
X144352838Y-133789167D01*
X144494883Y-134132943D01*
X144528000Y-134166118D01*
X144528000Y-134813198D01*
X143957198Y-135384000D01*
X142941419Y-135384000D01*
X142975440Y-135216000D01*
X142975440Y-133516000D01*
X142931162Y-133280683D01*
X142810985Y-133093923D01*
X142924431Y-132927890D01*
X142975440Y-132676000D01*
X142975440Y-130976000D01*
X142931162Y-130740683D01*
X142792090Y-130524559D01*
X142579890Y-130379569D01*
X142328000Y-130328560D01*
X140628000Y-130328560D01*
X140392683Y-130372838D01*
X140176559Y-130511910D01*
X140031569Y-130724110D01*
X140017914Y-130791541D01*
X139988054Y-130746853D01*
X139506285Y-130424946D01*
X138938000Y-130311907D01*
X138369715Y-130424946D01*
X137887946Y-130746853D01*
X137668000Y-131076026D01*
X137448054Y-130746853D01*
X136966285Y-130424946D01*
X136398000Y-130311907D01*
X135829715Y-130424946D01*
X135347946Y-130746853D01*
X135128000Y-131076026D01*
X134908054Y-130746853D01*
X134618000Y-130553046D01*
X134618000Y-129854802D01*
X136204802Y-128268000D01*
X136652000Y-128268000D01*
X136942839Y-128210148D01*
X137189401Y-128045401D01*
X137553680Y-127681122D01*
X137599167Y-127681162D01*
X137942943Y-127539117D01*
X138206192Y-127276327D01*
X138348838Y-126932799D01*
X138349162Y-126560833D01*
X138207117Y-126217057D01*
X137944327Y-125953808D01*
X137600799Y-125811162D01*
X137228833Y-125810838D01*
X136885057Y-125952883D01*
X136621808Y-126215673D01*
X136479162Y-126559201D01*
X136479121Y-126606077D01*
X136337198Y-126748000D01*
X136035547Y-126748000D01*
X135921117Y-126471057D01*
X135658327Y-126207808D01*
X135314799Y-126065162D01*
X134942833Y-126064838D01*
X134599057Y-126206883D01*
X134335808Y-126469673D01*
X134193162Y-126813201D01*
X134193121Y-126860077D01*
X134051198Y-127002000D01*
X133664802Y-127002000D01*
X133143378Y-126480576D01*
X133386839Y-126432148D01*
X133633401Y-126267401D01*
X137220802Y-122680000D01*
X137353198Y-122680000D01*
X139416599Y-124743401D01*
X139663160Y-124908148D01*
X139954000Y-124966000D01*
X140124941Y-124966000D01*
X140326235Y-125167645D01*
X140743244Y-125340803D01*
X141194775Y-125341197D01*
X141612086Y-125168767D01*
X141931645Y-124849765D01*
X142104803Y-124432756D01*
X142105197Y-123981225D01*
X141932767Y-123563914D01*
X141613765Y-123244355D01*
X141196756Y-123071197D01*
X140745225Y-123070803D01*
X140327914Y-123243233D01*
X140196860Y-123374058D01*
X138205401Y-121382599D01*
X137958839Y-121217852D01*
X137668000Y-121160000D01*
X136906000Y-121160000D01*
X136615161Y-121217852D01*
X136368599Y-121382599D01*
X132781198Y-124970000D01*
X125530463Y-124970000D01*
X125498327Y-124937808D01*
X125154799Y-124795162D01*
X124782833Y-124794838D01*
X124439057Y-124936883D01*
X124175808Y-125199673D01*
X124033162Y-125543201D01*
X124032838Y-125915167D01*
X124167056Y-126240000D01*
X123444000Y-126240000D01*
X123153161Y-126297852D01*
X122906599Y-126462599D01*
X118984408Y-130384790D01*
X118618000Y-130311907D01*
X118049715Y-130424946D01*
X117567946Y-130746853D01*
X117246039Y-131228622D01*
X117133000Y-131796907D01*
X110184000Y-131796907D01*
X110184000Y-122569266D01*
X110204408Y-122618657D01*
X110551515Y-122966371D01*
X111005266Y-123154785D01*
X111496579Y-123155214D01*
X111950657Y-122967592D01*
X111988315Y-122930000D01*
X132359207Y-122930000D01*
X132395515Y-122966371D01*
X132849266Y-123154785D01*
X133340579Y-123155214D01*
X133794657Y-122967592D01*
X134142371Y-122620485D01*
X134330785Y-122166734D01*
X134331214Y-121675421D01*
X134143592Y-121221343D01*
X133796485Y-120873629D01*
X133342734Y-120685215D01*
X132851421Y-120684786D01*
X132397343Y-120872408D01*
X132359685Y-120910000D01*
X122718972Y-120910000D01*
X122854838Y-120582799D01*
X122855162Y-120210833D01*
X122713117Y-119867057D01*
X122450327Y-119603808D01*
X122172000Y-119488236D01*
X122172000Y-116646802D01*
X123825635Y-114993167D01*
X135716838Y-114993167D01*
X135858883Y-115336943D01*
X136121673Y-115600192D01*
X136465201Y-115742838D01*
X136837167Y-115743162D01*
X137180943Y-115601117D01*
X137444192Y-115338327D01*
X137499156Y-115205958D01*
X137638599Y-115345401D01*
X137885160Y-115510148D01*
X137933414Y-115519746D01*
X138176000Y-115568000D01*
X140909198Y-115568000D01*
X145290000Y-119948802D01*
X145290000Y-127000000D01*
X145347852Y-127290839D01*
X145512599Y-127537401D01*
X146052000Y-128076802D01*
X146052000Y-131572000D01*
X146109852Y-131862839D01*
X146274599Y-132109401D01*
X146560000Y-132394802D01*
X146560000Y-140915537D01*
X146527808Y-140947673D01*
X146385162Y-141291201D01*
X146384838Y-141663167D01*
X146526883Y-142006943D01*
X146789673Y-142270192D01*
X147133201Y-142412838D01*
X147505167Y-142413162D01*
X147718420Y-142325048D01*
X147796883Y-142514943D01*
X148059673Y-142778192D01*
X148403201Y-142920838D01*
X148775167Y-142921162D01*
X149118943Y-142779117D01*
X149358000Y-142540477D01*
X149358000Y-151384000D01*
X149434882Y-151770510D01*
X149653822Y-152098178D01*
X151431822Y-153876178D01*
X151759490Y-154095118D01*
X152146000Y-154172000D01*
X158521207Y-154172000D01*
X158557515Y-154208371D01*
X159011266Y-154396785D01*
X159502579Y-154397214D01*
X159956657Y-154209592D01*
X160304371Y-153862485D01*
X160492785Y-153408734D01*
X160493214Y-152917421D01*
X160305592Y-152463343D01*
X159958485Y-152115629D01*
X159504734Y-151927215D01*
X159013421Y-151926786D01*
X158559343Y-152114408D01*
X158521685Y-152152000D01*
X152564356Y-152152000D01*
X151378000Y-150965644D01*
X151378000Y-131460442D01*
X151451201Y-131490838D01*
X151823167Y-131491162D01*
X152166943Y-131349117D01*
X152430192Y-131086327D01*
X152572838Y-130742799D01*
X152573162Y-130370833D01*
X152431117Y-130027057D01*
X152168327Y-129763808D01*
X151824799Y-129621162D01*
X151777923Y-129621121D01*
X151378000Y-129221198D01*
X151378000Y-127142442D01*
X151451201Y-127172838D01*
X151823167Y-127173162D01*
X152166943Y-127031117D01*
X152430192Y-126768327D01*
X152572838Y-126424799D01*
X152573162Y-126052833D01*
X152431117Y-125709057D01*
X152168327Y-125445808D01*
X151824799Y-125303162D01*
X151777923Y-125303121D01*
X151378000Y-124903198D01*
X151378000Y-112304972D01*
X151705201Y-112440838D01*
X152077167Y-112441162D01*
X152420943Y-112299117D01*
X152684192Y-112036327D01*
X152826838Y-111692799D01*
X152827162Y-111320833D01*
X152685117Y-110977057D01*
X152422327Y-110713808D01*
X152078799Y-110571162D01*
X152031923Y-110571121D01*
X151378000Y-109917198D01*
X151378000Y-106822442D01*
X151451201Y-106852838D01*
X151823167Y-106853162D01*
X152166943Y-106711117D01*
X152430192Y-106448327D01*
X152572838Y-106104799D01*
X152573162Y-105732833D01*
X152431117Y-105389057D01*
X152168327Y-105125808D01*
X151824799Y-104983162D01*
X151777923Y-104983121D01*
X151378000Y-104583198D01*
X151378000Y-92598442D01*
X151451201Y-92628838D01*
X151823167Y-92629162D01*
X152166943Y-92487117D01*
X152430192Y-92224327D01*
X152572838Y-91880799D01*
X152573162Y-91508833D01*
X152431117Y-91165057D01*
X152168327Y-90901808D01*
X151824799Y-90759162D01*
X151777923Y-90759121D01*
X151378000Y-90359198D01*
X151378000Y-89472802D01*
X151777680Y-89073122D01*
X151823167Y-89073162D01*
X152166943Y-88931117D01*
X152430192Y-88668327D01*
X152572838Y-88324799D01*
X152573162Y-87952833D01*
X152431117Y-87609057D01*
X152168327Y-87345808D01*
X151824799Y-87203162D01*
X151452833Y-87202838D01*
X151179658Y-87315711D01*
X151082178Y-87169822D01*
X150333169Y-86420813D01*
X150333214Y-86369421D01*
X150145592Y-85915343D01*
X149798485Y-85567629D01*
X149344734Y-85379215D01*
X148853421Y-85378786D01*
X148399343Y-85566408D01*
X148051629Y-85913515D01*
X147863215Y-86367266D01*
X147862786Y-86858579D01*
X148050408Y-87312657D01*
X148397515Y-87660371D01*
X148851266Y-87848785D01*
X148904475Y-87848831D01*
X149358000Y-88302356D01*
X149358000Y-105853198D01*
X149037198Y-106174000D01*
X146612463Y-106174000D01*
X146580327Y-106141808D01*
X146236799Y-105999162D01*
X145864833Y-105998838D01*
X145521057Y-106140883D01*
X145257808Y-106403673D01*
X145115162Y-106747201D01*
X145114838Y-107119167D01*
X145256883Y-107462943D01*
X145519673Y-107726192D01*
X145863201Y-107868838D01*
X146235167Y-107869162D01*
X146578943Y-107727117D01*
X146612118Y-107694000D01*
X149352000Y-107694000D01*
X149358000Y-107692807D01*
X149358000Y-141431896D01*
X149350000Y-141423882D01*
X149350000Y-131318000D01*
X149292148Y-131027161D01*
X149127401Y-130780599D01*
X148588000Y-130241198D01*
X148588000Y-126746000D01*
X148530148Y-126455161D01*
X148365401Y-126208599D01*
X147826000Y-125669198D01*
X147826000Y-118618000D01*
X147768148Y-118327161D01*
X147603401Y-118080599D01*
X144445122Y-114922320D01*
X144445162Y-114876833D01*
X144303117Y-114533057D01*
X144040327Y-114269808D01*
X143696799Y-114127162D01*
X143324833Y-114126838D01*
X142981057Y-114268883D01*
X142717808Y-114531673D01*
X142575162Y-114875201D01*
X142574980Y-115084178D01*
X141761401Y-114270599D01*
X141514839Y-114105852D01*
X141224000Y-114048000D01*
X138490802Y-114048000D01*
X137596572Y-113153770D01*
X137698192Y-113052327D01*
X137840838Y-112708799D01*
X137841162Y-112336833D01*
X137699117Y-111993057D01*
X137436327Y-111729808D01*
X137092799Y-111587162D01*
X136720833Y-111586838D01*
X136377057Y-111728883D01*
X136113808Y-111991673D01*
X135971162Y-112335201D01*
X135971059Y-112453422D01*
X135949852Y-112485161D01*
X135892000Y-112776000D01*
X135892000Y-114245537D01*
X135859808Y-114277673D01*
X135717162Y-114621201D01*
X135716838Y-114993167D01*
X123825635Y-114993167D01*
X124997401Y-113821401D01*
X125162148Y-113574840D01*
X125220000Y-113284000D01*
X125220000Y-111984775D01*
X126880803Y-111984775D01*
X127053233Y-112402086D01*
X127372235Y-112721645D01*
X127789244Y-112894803D01*
X128240775Y-112895197D01*
X128658086Y-112722767D01*
X128977645Y-112403765D01*
X129150803Y-111986756D01*
X129151197Y-111535225D01*
X128978767Y-111117914D01*
X128951000Y-111090099D01*
X128951000Y-108239639D01*
X129166086Y-108150767D01*
X129485645Y-107831765D01*
X129658803Y-107414756D01*
X129659197Y-106963225D01*
X129486767Y-106545914D01*
X129167765Y-106226355D01*
X128750756Y-106053197D01*
X128299225Y-106052803D01*
X127881914Y-106225233D01*
X127562355Y-106544235D01*
X127389197Y-106961244D01*
X127389163Y-107000547D01*
X127354855Y-107034855D01*
X127152173Y-107338191D01*
X127081000Y-107696000D01*
X127081000Y-111089636D01*
X127054355Y-111116235D01*
X126881197Y-111533244D01*
X126880803Y-111984775D01*
X125220000Y-111984775D01*
X125220000Y-100898802D01*
X133491592Y-92627210D01*
X133858000Y-92700093D01*
X134426285Y-92587054D01*
X134908054Y-92265147D01*
X135128000Y-91935974D01*
X135347946Y-92265147D01*
X135829715Y-92587054D01*
X136398000Y-92700093D01*
X136966285Y-92587054D01*
X137448054Y-92265147D01*
X137668000Y-91935974D01*
X137887946Y-92265147D01*
X137928000Y-92291910D01*
X137928000Y-92710000D01*
X138004882Y-93096510D01*
X138223822Y-93424178D01*
X138985822Y-94186178D01*
X139313490Y-94405118D01*
X139700000Y-94482000D01*
X143256000Y-94482000D01*
X143642510Y-94405118D01*
X143970178Y-94186178D01*
X146764178Y-91392178D01*
X146983118Y-91064510D01*
X147060000Y-90678000D01*
X147060000Y-87122000D01*
X146983118Y-86735490D01*
X146764178Y-86407822D01*
X145494178Y-85137822D01*
X145166510Y-84918882D01*
X144780000Y-84842000D01*
X136626793Y-84842000D01*
X136590485Y-84805629D01*
X136136734Y-84617215D01*
X135645421Y-84616786D01*
X135191343Y-84804408D01*
X134843629Y-85151515D01*
X134655215Y-85605266D01*
X134654786Y-86096579D01*
X134842408Y-86550657D01*
X135189515Y-86898371D01*
X135643266Y-87086785D01*
X136134579Y-87087214D01*
X136588657Y-86899592D01*
X136626315Y-86862000D01*
X142894194Y-86862000D01*
X142783215Y-87129266D01*
X142783032Y-87338370D01*
X142579890Y-87199569D01*
X142328000Y-87148560D01*
X140628000Y-87148560D01*
X140392683Y-87192838D01*
X140176559Y-87331910D01*
X140031569Y-87544110D01*
X140017914Y-87611541D01*
X139988054Y-87566853D01*
X139506285Y-87244946D01*
X138938000Y-87131907D01*
X138369715Y-87244946D01*
X137887946Y-87566853D01*
X137668000Y-87896026D01*
X137448054Y-87566853D01*
X136966285Y-87244946D01*
X136398000Y-87131907D01*
X135829715Y-87244946D01*
X135347946Y-87566853D01*
X135128000Y-87896026D01*
X134908054Y-87566853D01*
X134426285Y-87244946D01*
X133858000Y-87131907D01*
X133289715Y-87244946D01*
X132807946Y-87566853D01*
X132588000Y-87896026D01*
X132368054Y-87566853D01*
X131886285Y-87244946D01*
X131318000Y-87131907D01*
X130749715Y-87244946D01*
X130267946Y-87566853D01*
X130048000Y-87896026D01*
X129828054Y-87566853D01*
X129346285Y-87244946D01*
X128778000Y-87131907D01*
X128209715Y-87244946D01*
X127727946Y-87566853D01*
X127508000Y-87896026D01*
X127288054Y-87566853D01*
X126806285Y-87244946D01*
X126238000Y-87131907D01*
X125669715Y-87244946D01*
X125187946Y-87566853D01*
X124968000Y-87896026D01*
X124748054Y-87566853D01*
X124266285Y-87244946D01*
X123698000Y-87131907D01*
X123129715Y-87244946D01*
X122647946Y-87566853D01*
X122428000Y-87896026D01*
X122208054Y-87566853D01*
X121726285Y-87244946D01*
X121158000Y-87131907D01*
X120589715Y-87244946D01*
X120107946Y-87566853D01*
X119888000Y-87896026D01*
X119668054Y-87566853D01*
X119186285Y-87244946D01*
X118618000Y-87131907D01*
X118049715Y-87244946D01*
X117567946Y-87566853D01*
X117246039Y-88048622D01*
X117133000Y-88616907D01*
X117133000Y-88675093D01*
X117246039Y-89243378D01*
X117567946Y-89725147D01*
X117853578Y-89916000D01*
X117567946Y-90106853D01*
X117246039Y-90588622D01*
X117133000Y-91156907D01*
X117133000Y-91215093D01*
X117246039Y-91783378D01*
X117567946Y-92265147D01*
X118049715Y-92587054D01*
X118618000Y-92700093D01*
X119186285Y-92587054D01*
X119668054Y-92265147D01*
X119888000Y-91935974D01*
X120107946Y-92265147D01*
X120589715Y-92587054D01*
X121158000Y-92700093D01*
X121726285Y-92587054D01*
X122208054Y-92265147D01*
X122428000Y-91935974D01*
X122647946Y-92265147D01*
X123129715Y-92587054D01*
X123698000Y-92700093D01*
X124266285Y-92587054D01*
X124748054Y-92265147D01*
X124968000Y-91935974D01*
X125187946Y-92265147D01*
X125669715Y-92587054D01*
X126238000Y-92700093D01*
X126806285Y-92587054D01*
X127288054Y-92265147D01*
X127508000Y-91935974D01*
X127727946Y-92265147D01*
X128209715Y-92587054D01*
X128778000Y-92700093D01*
X129346285Y-92587054D01*
X129828054Y-92265147D01*
X130048000Y-91935974D01*
X130267946Y-92265147D01*
X130749715Y-92587054D01*
X131277217Y-92691981D01*
X123922599Y-100046599D01*
X123757852Y-100293161D01*
X123700000Y-100584000D01*
X123700000Y-112969198D01*
X120874599Y-115794599D01*
X120709852Y-116041161D01*
X120652000Y-116332000D01*
X120652000Y-119888000D01*
X120709852Y-120178839D01*
X120874599Y-120425401D01*
X120984878Y-120535680D01*
X120984838Y-120581167D01*
X121120709Y-120910000D01*
X111988793Y-120910000D01*
X111952485Y-120873629D01*
X111498734Y-120685215D01*
X111007421Y-120684786D01*
X110553343Y-120872408D01*
X110205629Y-121219515D01*
X110184000Y-121271603D01*
X110184000Y-89893606D01*
X124512606Y-75565000D01*
X136144000Y-75565000D01*
X136193410Y-75554994D01*
X136233803Y-75527803D01*
X141940699Y-69820907D01*
X151423000Y-69820907D01*
X151423000Y-69879093D01*
X151536039Y-70447378D01*
X151857946Y-70929147D01*
X152339715Y-71251054D01*
X152908000Y-71364093D01*
X153476285Y-71251054D01*
X153958054Y-70929147D01*
X153987403Y-70885223D01*
X154059673Y-71059698D01*
X154238301Y-71238327D01*
X154471690Y-71335000D01*
X155162250Y-71335000D01*
X155321000Y-71176250D01*
X155321000Y-69977000D01*
X155575000Y-69977000D01*
X155575000Y-71176250D01*
X155733750Y-71335000D01*
X156424310Y-71335000D01*
X156657699Y-71238327D01*
X156836327Y-71059698D01*
X156933000Y-70826309D01*
X156933000Y-70135750D01*
X156774250Y-69977000D01*
X155575000Y-69977000D01*
X155321000Y-69977000D01*
X155301000Y-69977000D01*
X155301000Y-69723000D01*
X155321000Y-69723000D01*
X155321000Y-68523750D01*
X155575000Y-68523750D01*
X155575000Y-69723000D01*
X156774250Y-69723000D01*
X156933000Y-69564250D01*
X156933000Y-68873691D01*
X156836327Y-68640302D01*
X156657699Y-68461673D01*
X156424310Y-68365000D01*
X155733750Y-68365000D01*
X155575000Y-68523750D01*
X155321000Y-68523750D01*
X155162250Y-68365000D01*
X154471690Y-68365000D01*
X154238301Y-68461673D01*
X154059673Y-68640302D01*
X153987403Y-68814777D01*
X153958054Y-68770853D01*
X153476285Y-68448946D01*
X152908000Y-68335907D01*
X152339715Y-68448946D01*
X151857946Y-68770853D01*
X151536039Y-69252622D01*
X151423000Y-69820907D01*
X141940699Y-69820907D01*
X144578606Y-67183000D01*
X162433000Y-67183000D01*
X162433000Y-93125802D01*
X162433000Y-93125802D01*
G37*
X162433000Y-93125802D02*
X162238799Y-93045162D01*
X161866833Y-93044838D01*
X161557467Y-93172665D01*
X160303401Y-91918599D01*
X160056839Y-91753852D01*
X159766000Y-91696000D01*
X155248463Y-91696000D01*
X155216327Y-91663808D01*
X154872799Y-91521162D01*
X154500833Y-91520838D01*
X154157057Y-91662883D01*
X153893808Y-91925673D01*
X153751162Y-92269201D01*
X153750838Y-92641167D01*
X153892883Y-92984943D01*
X154155673Y-93248192D01*
X154499201Y-93390838D01*
X154871167Y-93391162D01*
X155214943Y-93249117D01*
X155248118Y-93216000D01*
X159451198Y-93216000D01*
X160752599Y-94517401D01*
X160999160Y-94682148D01*
X161047414Y-94691746D01*
X161290000Y-94740000D01*
X161489537Y-94740000D01*
X161521673Y-94772192D01*
X161865201Y-94914838D01*
X162237167Y-94915162D01*
X162433000Y-94834246D01*
X162433000Y-113146666D01*
X162335401Y-113000599D01*
X161065401Y-111730599D01*
X160818839Y-111565852D01*
X160528000Y-111508000D01*
X154994463Y-111508000D01*
X154962327Y-111475808D01*
X154618799Y-111333162D01*
X154246833Y-111332838D01*
X153903057Y-111474883D01*
X153639808Y-111737673D01*
X153497162Y-112081201D01*
X153496838Y-112453167D01*
X153638883Y-112796943D01*
X153901673Y-113060192D01*
X154245201Y-113202838D01*
X154617167Y-113203162D01*
X154960943Y-113061117D01*
X154994118Y-113028000D01*
X160213198Y-113028000D01*
X160916338Y-113731140D01*
X160863162Y-113859201D01*
X160862838Y-114231167D01*
X161004883Y-114574943D01*
X161267673Y-114838192D01*
X161611201Y-114980838D01*
X161983167Y-114981162D01*
X162326943Y-114839117D01*
X162433000Y-114733245D01*
X162433000Y-133212667D01*
X162335401Y-133066599D01*
X161319401Y-132050599D01*
X161072839Y-131885852D01*
X160782000Y-131828000D01*
X156524802Y-131828000D01*
X155192000Y-130495198D01*
X155192000Y-130302000D01*
X155134148Y-130011161D01*
X154969401Y-129764599D01*
X154859122Y-129654320D01*
X154859162Y-129608833D01*
X154717117Y-129265057D01*
X154454327Y-129001808D01*
X154110799Y-128859162D01*
X153738833Y-128858838D01*
X153395057Y-129000883D01*
X153131808Y-129263673D01*
X152989162Y-129607201D01*
X152988838Y-129979167D01*
X153130883Y-130322943D01*
X153393673Y-130586192D01*
X153672000Y-130701764D01*
X153672000Y-130810000D01*
X153729852Y-131100839D01*
X153894599Y-131347401D01*
X155672599Y-133125401D01*
X155919161Y-133290148D01*
X156210000Y-133348000D01*
X160467198Y-133348000D01*
X160916338Y-133797140D01*
X160863162Y-133925201D01*
X160862838Y-134297167D01*
X161004883Y-134640943D01*
X161267673Y-134904192D01*
X161611201Y-135046838D01*
X161983167Y-135047162D01*
X162326943Y-134905117D01*
X162433000Y-134799245D01*
X162433000Y-136150000D01*
X160248793Y-136150000D01*
X160212485Y-136113629D01*
X159758734Y-135925215D01*
X159267421Y-135924786D01*
X158813343Y-136112408D01*
X158465629Y-136459515D01*
X158277215Y-136913266D01*
X158276786Y-137404579D01*
X158388109Y-137674000D01*
X158216793Y-137674000D01*
X158180485Y-137637629D01*
X157726734Y-137449215D01*
X157235421Y-137448786D01*
X156781343Y-137636408D01*
X156433629Y-137983515D01*
X156245215Y-138437266D01*
X156244786Y-138928579D01*
X156275758Y-139003537D01*
X156202734Y-138973215D01*
X155711421Y-138972786D01*
X155257343Y-139160408D01*
X154909629Y-139507515D01*
X154721215Y-139961266D01*
X154720786Y-140452579D01*
X154908408Y-140906657D01*
X155255515Y-141254371D01*
X155709266Y-141442785D01*
X156200579Y-141443214D01*
X156654657Y-141255592D01*
X156692315Y-141218000D01*
X161544000Y-141218000D01*
X161930510Y-141141118D01*
X162258178Y-140922178D01*
X162433000Y-140747356D01*
X162433000Y-141933394D01*
X162216197Y-142150197D01*
X162188334Y-142192211D01*
X162179000Y-142240000D01*
X162179000Y-155321000D01*
X148388606Y-155321000D01*
X135725803Y-142658197D01*
X135683789Y-142630334D01*
X135636000Y-142621000D01*
X115368606Y-142621000D01*
X110184000Y-137436394D01*
X110184000Y-131796907D01*
X117133000Y-131796907D01*
X117133000Y-131855093D01*
X117246039Y-132423378D01*
X117567946Y-132905147D01*
X117853578Y-133096000D01*
X117567946Y-133286853D01*
X117246039Y-133768622D01*
X117133000Y-134336907D01*
X117133000Y-134395093D01*
X117246039Y-134963378D01*
X117567946Y-135445147D01*
X118049715Y-135767054D01*
X118618000Y-135880093D01*
X119186285Y-135767054D01*
X119668054Y-135445147D01*
X119888000Y-135115974D01*
X120107946Y-135445147D01*
X120589715Y-135767054D01*
X121158000Y-135880093D01*
X121726285Y-135767054D01*
X122208054Y-135445147D01*
X122428000Y-135115974D01*
X122647946Y-135445147D01*
X123129715Y-135767054D01*
X123698000Y-135880093D01*
X124235295Y-135773218D01*
X124265852Y-135926839D01*
X124430599Y-136173401D01*
X124938599Y-136681401D01*
X125185161Y-136846148D01*
X125476000Y-136904000D01*
X144272000Y-136904000D01*
X144562839Y-136846148D01*
X144809401Y-136681401D01*
X145825401Y-135665401D01*
X145990148Y-135418839D01*
X146048000Y-135128000D01*
X146048000Y-134166463D01*
X146080192Y-134134327D01*
X146222838Y-133790799D01*
X146223162Y-133418833D01*
X146081117Y-133075057D01*
X145818327Y-132811808D01*
X145474799Y-132669162D01*
X145102833Y-132668838D01*
X144759057Y-132810883D01*
X144495808Y-133073673D01*
X144353162Y-133417201D01*
X144352838Y-133789167D01*
X144494883Y-134132943D01*
X144528000Y-134166118D01*
X144528000Y-134813198D01*
X143957198Y-135384000D01*
X142941419Y-135384000D01*
X142975440Y-135216000D01*
X142975440Y-133516000D01*
X142931162Y-133280683D01*
X142810985Y-133093923D01*
X142924431Y-132927890D01*
X142975440Y-132676000D01*
X142975440Y-130976000D01*
X142931162Y-130740683D01*
X142792090Y-130524559D01*
X142579890Y-130379569D01*
X142328000Y-130328560D01*
X140628000Y-130328560D01*
X140392683Y-130372838D01*
X140176559Y-130511910D01*
X140031569Y-130724110D01*
X140017914Y-130791541D01*
X139988054Y-130746853D01*
X139506285Y-130424946D01*
X138938000Y-130311907D01*
X138369715Y-130424946D01*
X137887946Y-130746853D01*
X137668000Y-131076026D01*
X137448054Y-130746853D01*
X136966285Y-130424946D01*
X136398000Y-130311907D01*
X135829715Y-130424946D01*
X135347946Y-130746853D01*
X135128000Y-131076026D01*
X134908054Y-130746853D01*
X134618000Y-130553046D01*
X134618000Y-129854802D01*
X136204802Y-128268000D01*
X136652000Y-128268000D01*
X136942839Y-128210148D01*
X137189401Y-128045401D01*
X137553680Y-127681122D01*
X137599167Y-127681162D01*
X137942943Y-127539117D01*
X138206192Y-127276327D01*
X138348838Y-126932799D01*
X138349162Y-126560833D01*
X138207117Y-126217057D01*
X137944327Y-125953808D01*
X137600799Y-125811162D01*
X137228833Y-125810838D01*
X136885057Y-125952883D01*
X136621808Y-126215673D01*
X136479162Y-126559201D01*
X136479121Y-126606077D01*
X136337198Y-126748000D01*
X136035547Y-126748000D01*
X135921117Y-126471057D01*
X135658327Y-126207808D01*
X135314799Y-126065162D01*
X134942833Y-126064838D01*
X134599057Y-126206883D01*
X134335808Y-126469673D01*
X134193162Y-126813201D01*
X134193121Y-126860077D01*
X134051198Y-127002000D01*
X133664802Y-127002000D01*
X133143378Y-126480576D01*
X133386839Y-126432148D01*
X133633401Y-126267401D01*
X137220802Y-122680000D01*
X137353198Y-122680000D01*
X139416599Y-124743401D01*
X139663160Y-124908148D01*
X139954000Y-124966000D01*
X140124941Y-124966000D01*
X140326235Y-125167645D01*
X140743244Y-125340803D01*
X141194775Y-125341197D01*
X141612086Y-125168767D01*
X141931645Y-124849765D01*
X142104803Y-124432756D01*
X142105197Y-123981225D01*
X141932767Y-123563914D01*
X141613765Y-123244355D01*
X141196756Y-123071197D01*
X140745225Y-123070803D01*
X140327914Y-123243233D01*
X140196860Y-123374058D01*
X138205401Y-121382599D01*
X137958839Y-121217852D01*
X137668000Y-121160000D01*
X136906000Y-121160000D01*
X136615161Y-121217852D01*
X136368599Y-121382599D01*
X132781198Y-124970000D01*
X125530463Y-124970000D01*
X125498327Y-124937808D01*
X125154799Y-124795162D01*
X124782833Y-124794838D01*
X124439057Y-124936883D01*
X124175808Y-125199673D01*
X124033162Y-125543201D01*
X124032838Y-125915167D01*
X124167056Y-126240000D01*
X123444000Y-126240000D01*
X123153161Y-126297852D01*
X122906599Y-126462599D01*
X118984408Y-130384790D01*
X118618000Y-130311907D01*
X118049715Y-130424946D01*
X117567946Y-130746853D01*
X117246039Y-131228622D01*
X117133000Y-131796907D01*
X110184000Y-131796907D01*
X110184000Y-122569266D01*
X110204408Y-122618657D01*
X110551515Y-122966371D01*
X111005266Y-123154785D01*
X111496579Y-123155214D01*
X111950657Y-122967592D01*
X111988315Y-122930000D01*
X132359207Y-122930000D01*
X132395515Y-122966371D01*
X132849266Y-123154785D01*
X133340579Y-123155214D01*
X133794657Y-122967592D01*
X134142371Y-122620485D01*
X134330785Y-122166734D01*
X134331214Y-121675421D01*
X134143592Y-121221343D01*
X133796485Y-120873629D01*
X133342734Y-120685215D01*
X132851421Y-120684786D01*
X132397343Y-120872408D01*
X132359685Y-120910000D01*
X122718972Y-120910000D01*
X122854838Y-120582799D01*
X122855162Y-120210833D01*
X122713117Y-119867057D01*
X122450327Y-119603808D01*
X122172000Y-119488236D01*
X122172000Y-116646802D01*
X123825635Y-114993167D01*
X135716838Y-114993167D01*
X135858883Y-115336943D01*
X136121673Y-115600192D01*
X136465201Y-115742838D01*
X136837167Y-115743162D01*
X137180943Y-115601117D01*
X137444192Y-115338327D01*
X137499156Y-115205958D01*
X137638599Y-115345401D01*
X137885160Y-115510148D01*
X137933414Y-115519746D01*
X138176000Y-115568000D01*
X140909198Y-115568000D01*
X145290000Y-119948802D01*
X145290000Y-127000000D01*
X145347852Y-127290839D01*
X145512599Y-127537401D01*
X146052000Y-128076802D01*
X146052000Y-131572000D01*
X146109852Y-131862839D01*
X146274599Y-132109401D01*
X146560000Y-132394802D01*
X146560000Y-140915537D01*
X146527808Y-140947673D01*
X146385162Y-141291201D01*
X146384838Y-141663167D01*
X146526883Y-142006943D01*
X146789673Y-142270192D01*
X147133201Y-142412838D01*
X147505167Y-142413162D01*
X147718420Y-142325048D01*
X147796883Y-142514943D01*
X148059673Y-142778192D01*
X148403201Y-142920838D01*
X148775167Y-142921162D01*
X149118943Y-142779117D01*
X149358000Y-142540477D01*
X149358000Y-151384000D01*
X149434882Y-151770510D01*
X149653822Y-152098178D01*
X151431822Y-153876178D01*
X151759490Y-154095118D01*
X152146000Y-154172000D01*
X158521207Y-154172000D01*
X158557515Y-154208371D01*
X159011266Y-154396785D01*
X159502579Y-154397214D01*
X159956657Y-154209592D01*
X160304371Y-153862485D01*
X160492785Y-153408734D01*
X160493214Y-152917421D01*
X160305592Y-152463343D01*
X159958485Y-152115629D01*
X159504734Y-151927215D01*
X159013421Y-151926786D01*
X158559343Y-152114408D01*
X158521685Y-152152000D01*
X152564356Y-152152000D01*
X151378000Y-150965644D01*
X151378000Y-131460442D01*
X151451201Y-131490838D01*
X151823167Y-131491162D01*
X152166943Y-131349117D01*
X152430192Y-131086327D01*
X152572838Y-130742799D01*
X152573162Y-130370833D01*
X152431117Y-130027057D01*
X152168327Y-129763808D01*
X151824799Y-129621162D01*
X151777923Y-129621121D01*
X151378000Y-129221198D01*
X151378000Y-127142442D01*
X151451201Y-127172838D01*
X151823167Y-127173162D01*
X152166943Y-127031117D01*
X152430192Y-126768327D01*
X152572838Y-126424799D01*
X152573162Y-126052833D01*
X152431117Y-125709057D01*
X152168327Y-125445808D01*
X151824799Y-125303162D01*
X151777923Y-125303121D01*
X151378000Y-124903198D01*
X151378000Y-112304972D01*
X151705201Y-112440838D01*
X152077167Y-112441162D01*
X152420943Y-112299117D01*
X152684192Y-112036327D01*
X152826838Y-111692799D01*
X152827162Y-111320833D01*
X152685117Y-110977057D01*
X152422327Y-110713808D01*
X152078799Y-110571162D01*
X152031923Y-110571121D01*
X151378000Y-109917198D01*
X151378000Y-106822442D01*
X151451201Y-106852838D01*
X151823167Y-106853162D01*
X152166943Y-106711117D01*
X152430192Y-106448327D01*
X152572838Y-106104799D01*
X152573162Y-105732833D01*
X152431117Y-105389057D01*
X152168327Y-105125808D01*
X151824799Y-104983162D01*
X151777923Y-104983121D01*
X151378000Y-104583198D01*
X151378000Y-92598442D01*
X151451201Y-92628838D01*
X151823167Y-92629162D01*
X152166943Y-92487117D01*
X152430192Y-92224327D01*
X152572838Y-91880799D01*
X152573162Y-91508833D01*
X152431117Y-91165057D01*
X152168327Y-90901808D01*
X151824799Y-90759162D01*
X151777923Y-90759121D01*
X151378000Y-90359198D01*
X151378000Y-89472802D01*
X151777680Y-89073122D01*
X151823167Y-89073162D01*
X152166943Y-88931117D01*
X152430192Y-88668327D01*
X152572838Y-88324799D01*
X152573162Y-87952833D01*
X152431117Y-87609057D01*
X152168327Y-87345808D01*
X151824799Y-87203162D01*
X151452833Y-87202838D01*
X151179658Y-87315711D01*
X151082178Y-87169822D01*
X150333169Y-86420813D01*
X150333214Y-86369421D01*
X150145592Y-85915343D01*
X149798485Y-85567629D01*
X149344734Y-85379215D01*
X148853421Y-85378786D01*
X148399343Y-85566408D01*
X148051629Y-85913515D01*
X147863215Y-86367266D01*
X147862786Y-86858579D01*
X148050408Y-87312657D01*
X148397515Y-87660371D01*
X148851266Y-87848785D01*
X148904475Y-87848831D01*
X149358000Y-88302356D01*
X149358000Y-105853198D01*
X149037198Y-106174000D01*
X146612463Y-106174000D01*
X146580327Y-106141808D01*
X146236799Y-105999162D01*
X145864833Y-105998838D01*
X145521057Y-106140883D01*
X145257808Y-106403673D01*
X145115162Y-106747201D01*
X145114838Y-107119167D01*
X145256883Y-107462943D01*
X145519673Y-107726192D01*
X145863201Y-107868838D01*
X146235167Y-107869162D01*
X146578943Y-107727117D01*
X146612118Y-107694000D01*
X149352000Y-107694000D01*
X149358000Y-107692807D01*
X149358000Y-141431896D01*
X149350000Y-141423882D01*
X149350000Y-131318000D01*
X149292148Y-131027161D01*
X149127401Y-130780599D01*
X148588000Y-130241198D01*
X148588000Y-126746000D01*
X148530148Y-126455161D01*
X148365401Y-126208599D01*
X147826000Y-125669198D01*
X147826000Y-118618000D01*
X147768148Y-118327161D01*
X147603401Y-118080599D01*
X144445122Y-114922320D01*
X144445162Y-114876833D01*
X144303117Y-114533057D01*
X144040327Y-114269808D01*
X143696799Y-114127162D01*
X143324833Y-114126838D01*
X142981057Y-114268883D01*
X142717808Y-114531673D01*
X142575162Y-114875201D01*
X142574980Y-115084178D01*
X141761401Y-114270599D01*
X141514839Y-114105852D01*
X141224000Y-114048000D01*
X138490802Y-114048000D01*
X137596572Y-113153770D01*
X137698192Y-113052327D01*
X137840838Y-112708799D01*
X137841162Y-112336833D01*
X137699117Y-111993057D01*
X137436327Y-111729808D01*
X137092799Y-111587162D01*
X136720833Y-111586838D01*
X136377057Y-111728883D01*
X136113808Y-111991673D01*
X135971162Y-112335201D01*
X135971059Y-112453422D01*
X135949852Y-112485161D01*
X135892000Y-112776000D01*
X135892000Y-114245537D01*
X135859808Y-114277673D01*
X135717162Y-114621201D01*
X135716838Y-114993167D01*
X123825635Y-114993167D01*
X124997401Y-113821401D01*
X125162148Y-113574840D01*
X125220000Y-113284000D01*
X125220000Y-111984775D01*
X126880803Y-111984775D01*
X127053233Y-112402086D01*
X127372235Y-112721645D01*
X127789244Y-112894803D01*
X128240775Y-112895197D01*
X128658086Y-112722767D01*
X128977645Y-112403765D01*
X129150803Y-111986756D01*
X129151197Y-111535225D01*
X128978767Y-111117914D01*
X128951000Y-111090099D01*
X128951000Y-108239639D01*
X129166086Y-108150767D01*
X129485645Y-107831765D01*
X129658803Y-107414756D01*
X129659197Y-106963225D01*
X129486767Y-106545914D01*
X129167765Y-106226355D01*
X128750756Y-106053197D01*
X128299225Y-106052803D01*
X127881914Y-106225233D01*
X127562355Y-106544235D01*
X127389197Y-106961244D01*
X127389163Y-107000547D01*
X127354855Y-107034855D01*
X127152173Y-107338191D01*
X127081000Y-107696000D01*
X127081000Y-111089636D01*
X127054355Y-111116235D01*
X126881197Y-111533244D01*
X126880803Y-111984775D01*
X125220000Y-111984775D01*
X125220000Y-100898802D01*
X133491592Y-92627210D01*
X133858000Y-92700093D01*
X134426285Y-92587054D01*
X134908054Y-92265147D01*
X135128000Y-91935974D01*
X135347946Y-92265147D01*
X135829715Y-92587054D01*
X136398000Y-92700093D01*
X136966285Y-92587054D01*
X137448054Y-92265147D01*
X137668000Y-91935974D01*
X137887946Y-92265147D01*
X137928000Y-92291910D01*
X137928000Y-92710000D01*
X138004882Y-93096510D01*
X138223822Y-93424178D01*
X138985822Y-94186178D01*
X139313490Y-94405118D01*
X139700000Y-94482000D01*
X143256000Y-94482000D01*
X143642510Y-94405118D01*
X143970178Y-94186178D01*
X146764178Y-91392178D01*
X146983118Y-91064510D01*
X147060000Y-90678000D01*
X147060000Y-87122000D01*
X146983118Y-86735490D01*
X146764178Y-86407822D01*
X145494178Y-85137822D01*
X145166510Y-84918882D01*
X144780000Y-84842000D01*
X136626793Y-84842000D01*
X136590485Y-84805629D01*
X136136734Y-84617215D01*
X135645421Y-84616786D01*
X135191343Y-84804408D01*
X134843629Y-85151515D01*
X134655215Y-85605266D01*
X134654786Y-86096579D01*
X134842408Y-86550657D01*
X135189515Y-86898371D01*
X135643266Y-87086785D01*
X136134579Y-87087214D01*
X136588657Y-86899592D01*
X136626315Y-86862000D01*
X142894194Y-86862000D01*
X142783215Y-87129266D01*
X142783032Y-87338370D01*
X142579890Y-87199569D01*
X142328000Y-87148560D01*
X140628000Y-87148560D01*
X140392683Y-87192838D01*
X140176559Y-87331910D01*
X140031569Y-87544110D01*
X140017914Y-87611541D01*
X139988054Y-87566853D01*
X139506285Y-87244946D01*
X138938000Y-87131907D01*
X138369715Y-87244946D01*
X137887946Y-87566853D01*
X137668000Y-87896026D01*
X137448054Y-87566853D01*
X136966285Y-87244946D01*
X136398000Y-87131907D01*
X135829715Y-87244946D01*
X135347946Y-87566853D01*
X135128000Y-87896026D01*
X134908054Y-87566853D01*
X134426285Y-87244946D01*
X133858000Y-87131907D01*
X133289715Y-87244946D01*
X132807946Y-87566853D01*
X132588000Y-87896026D01*
X132368054Y-87566853D01*
X131886285Y-87244946D01*
X131318000Y-87131907D01*
X130749715Y-87244946D01*
X130267946Y-87566853D01*
X130048000Y-87896026D01*
X129828054Y-87566853D01*
X129346285Y-87244946D01*
X128778000Y-87131907D01*
X128209715Y-87244946D01*
X127727946Y-87566853D01*
X127508000Y-87896026D01*
X127288054Y-87566853D01*
X126806285Y-87244946D01*
X126238000Y-87131907D01*
X125669715Y-87244946D01*
X125187946Y-87566853D01*
X124968000Y-87896026D01*
X124748054Y-87566853D01*
X124266285Y-87244946D01*
X123698000Y-87131907D01*
X123129715Y-87244946D01*
X122647946Y-87566853D01*
X122428000Y-87896026D01*
X122208054Y-87566853D01*
X121726285Y-87244946D01*
X121158000Y-87131907D01*
X120589715Y-87244946D01*
X120107946Y-87566853D01*
X119888000Y-87896026D01*
X119668054Y-87566853D01*
X119186285Y-87244946D01*
X118618000Y-87131907D01*
X118049715Y-87244946D01*
X117567946Y-87566853D01*
X117246039Y-88048622D01*
X117133000Y-88616907D01*
X117133000Y-88675093D01*
X117246039Y-89243378D01*
X117567946Y-89725147D01*
X117853578Y-89916000D01*
X117567946Y-90106853D01*
X117246039Y-90588622D01*
X117133000Y-91156907D01*
X117133000Y-91215093D01*
X117246039Y-91783378D01*
X117567946Y-92265147D01*
X118049715Y-92587054D01*
X118618000Y-92700093D01*
X119186285Y-92587054D01*
X119668054Y-92265147D01*
X119888000Y-91935974D01*
X120107946Y-92265147D01*
X120589715Y-92587054D01*
X121158000Y-92700093D01*
X121726285Y-92587054D01*
X122208054Y-92265147D01*
X122428000Y-91935974D01*
X122647946Y-92265147D01*
X123129715Y-92587054D01*
X123698000Y-92700093D01*
X124266285Y-92587054D01*
X124748054Y-92265147D01*
X124968000Y-91935974D01*
X125187946Y-92265147D01*
X125669715Y-92587054D01*
X126238000Y-92700093D01*
X126806285Y-92587054D01*
X127288054Y-92265147D01*
X127508000Y-91935974D01*
X127727946Y-92265147D01*
X128209715Y-92587054D01*
X128778000Y-92700093D01*
X129346285Y-92587054D01*
X129828054Y-92265147D01*
X130048000Y-91935974D01*
X130267946Y-92265147D01*
X130749715Y-92587054D01*
X131277217Y-92691981D01*
X123922599Y-100046599D01*
X123757852Y-100293161D01*
X123700000Y-100584000D01*
X123700000Y-112969198D01*
X120874599Y-115794599D01*
X120709852Y-116041161D01*
X120652000Y-116332000D01*
X120652000Y-119888000D01*
X120709852Y-120178839D01*
X120874599Y-120425401D01*
X120984878Y-120535680D01*
X120984838Y-120581167D01*
X121120709Y-120910000D01*
X111988793Y-120910000D01*
X111952485Y-120873629D01*
X111498734Y-120685215D01*
X111007421Y-120684786D01*
X110553343Y-120872408D01*
X110205629Y-121219515D01*
X110184000Y-121271603D01*
X110184000Y-89893606D01*
X124512606Y-75565000D01*
X136144000Y-75565000D01*
X136193410Y-75554994D01*
X136233803Y-75527803D01*
X141940699Y-69820907D01*
X151423000Y-69820907D01*
X151423000Y-69879093D01*
X151536039Y-70447378D01*
X151857946Y-70929147D01*
X152339715Y-71251054D01*
X152908000Y-71364093D01*
X153476285Y-71251054D01*
X153958054Y-70929147D01*
X153987403Y-70885223D01*
X154059673Y-71059698D01*
X154238301Y-71238327D01*
X154471690Y-71335000D01*
X155162250Y-71335000D01*
X155321000Y-71176250D01*
X155321000Y-69977000D01*
X155575000Y-69977000D01*
X155575000Y-71176250D01*
X155733750Y-71335000D01*
X156424310Y-71335000D01*
X156657699Y-71238327D01*
X156836327Y-71059698D01*
X156933000Y-70826309D01*
X156933000Y-70135750D01*
X156774250Y-69977000D01*
X155575000Y-69977000D01*
X155321000Y-69977000D01*
X155301000Y-69977000D01*
X155301000Y-69723000D01*
X155321000Y-69723000D01*
X155321000Y-68523750D01*
X155575000Y-68523750D01*
X155575000Y-69723000D01*
X156774250Y-69723000D01*
X156933000Y-69564250D01*
X156933000Y-68873691D01*
X156836327Y-68640302D01*
X156657699Y-68461673D01*
X156424310Y-68365000D01*
X155733750Y-68365000D01*
X155575000Y-68523750D01*
X155321000Y-68523750D01*
X155162250Y-68365000D01*
X154471690Y-68365000D01*
X154238301Y-68461673D01*
X154059673Y-68640302D01*
X153987403Y-68814777D01*
X153958054Y-68770853D01*
X153476285Y-68448946D01*
X152908000Y-68335907D01*
X152339715Y-68448946D01*
X151857946Y-68770853D01*
X151536039Y-69252622D01*
X151423000Y-69820907D01*
X141940699Y-69820907D01*
X144578606Y-67183000D01*
X162433000Y-67183000D01*
X162433000Y-93125802D01*
M02*
