M48
;DRILL file {KiCad 4.0.5} date 03/08/17 17:48:34
;FORMAT={3:3/ absolute / metric / suppress leading zeros}
FMAT,2
METRIC,TZ
T1C0.500
T2C0.700
T3C0.900
T4C1.000
T5C1.001
T6C1.501
%
G90
G05
M71
T1
X116078Y-103378
X116078Y-110490
X121920Y-120396
X123698Y-96012
X124968Y-125730
X125476Y-107188
X125730Y-98044
X132334Y-129032
X135128Y-127000
X136652Y-114808
X136906Y-112522
X137414Y-126746
X140970Y-124206
X143510Y-115062
X145288Y-133604
X146050Y-106934
X147320Y-141478
X148590Y-141986
X151638Y-88138
X151638Y-91694
X151638Y-105918
X151638Y-126238
X151638Y-130556
X151892Y-111506
X153924Y-114808
X153924Y-124714
X153924Y-129794
X154178Y-88646
X154178Y-107950
X154178Y-127508
X154432Y-112268
X154686Y-92456
X154686Y-132334
X155194Y-94742
X155194Y-104394
X155448Y-84582
X161798Y-114046
X161798Y-134112
X162052Y-93980
T2
X128016Y-111760
X128524Y-107188
X144780Y-101854
X148844Y-101346
X157988Y-142748
X173101Y-85217
X173101Y-105029
X173101Y-111379
X173101Y-125349
X173101Y-131699
X173228Y-91694
X176530Y-104648
X176530Y-124714
X177038Y-84836
X178562Y-91186
X178562Y-111252
X178562Y-131826
T3
X111252Y-121920
X133096Y-121920
X135890Y-85852
X136906Y-81788
X144018Y-87376
X149098Y-86614
X152908Y-80010
X152908Y-150876
X155956Y-140208
X157480Y-138684
X159258Y-153162
X159512Y-137160
X170688Y-155194
X172278Y-141798
X186944Y-115062
X187706Y-95250
X189992Y-129540
X191008Y-95250
X191516Y-115062
X194564Y-134112
X202692Y-138938
T4
X118618Y-88646
X118618Y-91186
X118618Y-131826
X118618Y-134366
X121158Y-88646
X121158Y-91186
X121158Y-131826
X121158Y-134366
X123698Y-88646
X123698Y-91186
X123698Y-131826
X123698Y-134366
X126238Y-88646
X126238Y-91186
X126238Y-131826
X126238Y-134366
X128778Y-88646
X128778Y-91186
X128778Y-131826
X128778Y-134366
X131318Y-88646
X131318Y-91186
X131318Y-131826
X131318Y-134366
X133858Y-88646
X133858Y-91186
X133858Y-131826
X133858Y-134366
X136398Y-88646
X136398Y-91186
X136398Y-131826
X136398Y-134366
X138938Y-88646
X138938Y-91186
X138938Y-131826
X138938Y-134366
X141478Y-88646
X141478Y-91186
X141478Y-131826
X141478Y-134366
X152908Y-69850
X155448Y-69850
X177546Y-87376
X177546Y-107188
X177800Y-127508
X185674Y-63246
X188214Y-63246
X191008Y-147066
X193802Y-142748
X205994Y-63246
X208534Y-63246
X211074Y-63246
T5
X210820Y-93218
X210820Y-116078
X210820Y-121158
X226822Y-68326
X226822Y-91186
X226822Y-96266
X226822Y-117348
X226822Y-140208
X226822Y-145288
T6
X184150Y-86614
X184150Y-92202
X184404Y-106426
X184404Y-112014
X184404Y-126746
X184404Y-132334
T0
M30
